<svg width="80" height="80" viewBox="0 0 80 80" fill="none" xmlns="http://www.w3.org/2000/svg">
<circle cx="40" cy="40" r="40" fill="#DBF8DD"/>
<path d="M42 23.3333V52.6667" stroke="#079911" stroke-width="2" stroke-linecap="round" stroke-linejoin="round"/>
<path d="M48.6667 28.6667H38.6667C37.429 28.6667 36.242 29.1583 35.3668 30.0335C34.4917 30.9087 34 32.0956 34 33.3333C34 34.571 34.4917 35.758 35.3668 36.6332C36.242 37.5083 37.429 38 38.6667 38H45.3333C46.571 38 47.758 38.4917 48.6332 39.3668C49.5083 40.242 50 41.429 50 42.6667C50 43.9043 49.5083 45.0913 48.6332 45.9665C47.758 46.8417 46.571 47.3333 45.3333 47.3333H34" stroke="#079911" stroke-width="2" stroke-linecap="round" stroke-linejoin="round"/>
</svg>
