<svg width="40" height="40" viewBox="0 0 40 40" fill="none" xmlns="http://www.w3.org/2000/svg">
<g clip-path="url(#clip0_16_643)">
<path d="M24.5834 10.8333H15.4167C12.8854 10.8333 10.8334 12.8853 10.8334 15.4166V24.5833C10.8334 27.1146 12.8854 29.1666 15.4167 29.1666H24.5834C27.1147 29.1666 29.1667 27.1146 29.1667 24.5833V15.4166C29.1667 12.8853 27.1147 10.8333 24.5834 10.8333Z" stroke="#079911" stroke-width="2" stroke-linecap="round" stroke-linejoin="round"/>
<path d="M23.6667 19.4225C23.7798 20.1854 23.6495 20.9646 23.2943 21.6491C22.9391 22.3337 22.377 22.8888 21.6882 23.2356C20.9993 23.5823 20.2186 23.703 19.4571 23.5805C18.6957 23.4579 17.9923 23.0984 17.4469 22.5531C16.9016 22.0078 16.5421 21.3043 16.4196 20.5429C16.297 19.7815 16.4177 19.0008 16.7645 18.3119C17.1112 17.623 17.6663 17.061 18.3509 16.7058C19.0355 16.3505 19.8146 16.2202 20.5775 16.3334C21.3557 16.4488 22.0761 16.8114 22.6324 17.3676C23.1887 17.9239 23.5513 18.6444 23.6667 19.4225Z" stroke="#079911" stroke-width="2" stroke-linecap="round" stroke-linejoin="round"/>
<path d="M25.0417 14.9583H25.0517" stroke="#079911" stroke-width="2" stroke-linecap="round" stroke-linejoin="round"/>
</g>
<circle cx="20" cy="20" r="19" stroke="#079911" stroke-width="2"/>
<defs>
<clipPath id="clip0_16_643">
<rect width="22" height="22" fill="white" transform="translate(9 9)"/>
</clipPath>
</defs>
</svg>
