<svg width="94" height="120" viewBox="0 0 94 120" fill="none" xmlns="http://www.w3.org/2000/svg">
<path d="M7.512 69.288C6.168 69.288 4.88 69.112 3.648 68.76C2.416 68.392 1.424 67.92 0.672 67.344L1.992 64.416C2.712 64.928 3.56 65.352 4.536 65.688C5.528 66.008 6.528 66.168 7.536 66.168C8.304 66.168 8.92 66.096 9.384 65.952C9.864 65.792 10.216 65.576 10.44 65.304C10.664 65.032 10.776 64.72 10.776 64.368C10.776 63.92 10.6 63.568 10.248 63.312C9.896 63.04 9.432 62.824 8.856 62.664C8.28 62.488 7.64 62.328 6.936 62.184C6.248 62.024 5.552 61.832 4.848 61.608C4.16 61.384 3.528 61.096 2.952 60.744C2.376 60.392 1.904 59.928 1.536 59.352C1.184 58.776 1.008 58.04 1.008 57.144C1.008 56.184 1.264 55.312 1.776 54.528C2.304 53.728 3.088 53.096 4.128 52.632C5.184 52.152 6.504 51.912 8.088 51.912C9.144 51.912 10.184 52.04 11.208 52.296C12.232 52.536 13.136 52.904 13.92 53.4L12.72 56.352C11.936 55.904 11.152 55.576 10.368 55.368C9.584 55.144 8.816 55.032 8.064 55.032C7.312 55.032 6.696 55.12 6.216 55.296C5.736 55.472 5.392 55.704 5.184 55.992C4.976 56.264 4.872 56.584 4.872 56.952C4.872 57.384 5.048 57.736 5.4 58.008C5.752 58.264 6.216 58.472 6.792 58.632C7.368 58.792 8 58.952 8.688 59.112C9.392 59.272 10.088 59.456 10.776 59.664C11.48 59.872 12.12 60.152 12.696 60.504C13.272 60.856 13.736 61.32 14.088 61.896C14.456 62.472 14.64 63.2 14.64 64.08C14.64 65.024 14.376 65.888 13.848 66.672C13.32 67.456 12.528 68.088 11.472 68.568C10.432 69.048 9.112 69.288 7.512 69.288ZM17.0567 69V52.2H20.9447V69H17.0567ZM24.6917 69V52.2H27.9077L37.8197 64.296H36.2597V52.2H40.0997V69H36.9077L26.9717 56.904H28.5317V69H24.6917ZM41.6265 69L49.1145 52.2H52.9545L60.4665 69H56.3865L50.2425 54.168H51.7785L45.6105 69H41.6265ZM45.3705 65.4L46.4025 62.448H55.0425L56.0985 65.4H45.3705ZM65.0874 69L59.5914 52.2H63.6234L68.3994 67.08H66.3834L71.3754 52.2H74.9754L79.7754 67.08H77.8314L82.7274 52.2H86.4474L80.9514 69H76.7754L72.5274 55.944H73.6314L69.2634 69H65.0874Z" fill="black"/>
<circle cx="91" cy="66" r="3" fill="#079911"/>
</svg>
