<svg width="534" height="400" viewBox="0 0 534 400" fill="none" xmlns="http://www.w3.org/2000/svg">
<path fill-rule="evenodd" clip-rule="evenodd" d="M299.482 174.726C304.221 178.162 303.467 184.922 302.04 189.834C299.939 197.067 295.754 203.762 290.98 209.534C282.511 219.772 268.133 231.269 254.88 222.28C243.078 214.275 235.633 198.122 233.063 184.517C232.269 180.312 231.211 174.047 234.943 170.886C240.46 166.213 250.191 167.063 256.851 167.665C261.237 168.061 265.469 169.405 269.803 168.774C279.874 167.307 291.082 168.636 299.482 174.726Z" fill="#079911"/>
<path fill-rule="evenodd" clip-rule="evenodd" d="M95.3005 228.304C104.902 240.484 121.226 242.408 135.724 242.288C144.43 242.216 153.153 241.561 161.688 239.787C166.289 238.83 170.86 237.563 175.306 236.041C178.242 235.035 182.614 234.532 183.864 231.386C187.161 223.083 184.735 212.671 183.378 204.244C182.687 199.958 182.169 195.646 181.497 191.356C181.068 188.612 180.862 185.575 179.711 183.007C178.365 179.999 176.664 180.6 173.815 181.431C169.891 182.577 165.862 183.053 161.827 183.669C151.979 185.173 143.388 188.205 134.439 192.502C125.59 196.752 117.006 200.946 109.113 206.855C105.114 209.849 101.668 213.099 98.4577 216.916C95.9776 219.864 92.2761 224.467 95.3005 228.304ZM137.271 282.402C137.349 283.713 152.397 279.754 154.377 279.31C167.37 276.396 180.621 273.077 192.887 267.811C204.336 262.896 214.424 257.274 223.434 248.542C227.634 244.472 231.411 240.185 235.026 235.621C236.837 233.333 239.312 233.598 241.333 231.663C243.15 229.921 244.543 228.561 243.975 225.956C239.435 227.152 231.05 234.673 226.343 230.876C223.66 228.711 227.381 226.45 229.099 225.195C232.328 222.837 235.09 219.927 237.657 216.872C233.249 217.727 229.147 219.378 225.31 221.676C223.606 222.696 217.765 226.398 216.405 222.869C215.568 220.697 219.529 217.967 220.764 216.765C223.796 213.815 227.07 210.37 228.68 206.403C224.699 205.479 220.947 208.556 218.236 211.062C215.227 213.844 211.539 216.763 209.016 219.969C207.714 221.623 207.431 223.575 206.414 225.359C205.27 227.365 203.44 229.085 201.69 230.569C198.32 233.43 194.379 235.536 190.333 237.278C181.087 241.259 171.178 244.076 161.323 246.052C156.488 247.022 151.773 247.469 146.866 247.633C143.052 247.761 141.364 248.901 139.908 252.415C135.968 261.923 136.683 272.383 137.271 282.402ZM250.439 209.954C252.644 212.017 255.509 213.311 257.814 215.295C259.842 217.04 262.181 218.902 264.445 220.314C266.861 221.82 268.666 220.764 270.842 219.401C273.396 217.801 276.332 217.153 278.963 215.722C288.059 210.772 299.186 198.642 297.488 187.505C296.768 182.784 294.328 178.14 289.896 175.998C285.871 174.053 280.02 172.974 275.715 174.599C273.286 175.517 271.548 177.541 269.992 179.532C268.177 181.852 267.482 181.486 265.634 179.248C262.327 175.245 256.874 171.732 251.483 171.817C248.803 171.859 246.142 172.424 243.729 173.536C243.401 173.687 243.219 174.143 242.891 174.298C242.488 174.488 241.826 174.093 241.545 174.27C240.839 174.718 240.133 176.115 239.726 176.824C238.09 179.67 235.145 185.25 238.113 187.646C238.115 187.647 237.981 190.887 238.022 191.257C238.231 193.19 238.899 194.786 239.76 196.554C242.346 201.865 246.163 205.954 250.439 209.954ZM246.043 254.891C248.131 255.541 250.381 248.995 248.378 247.95C246.467 246.954 244.151 254.304 246.043 254.891ZM278.849 247.065C279.572 249.538 279.878 252.344 281.647 254.356C283.266 252.434 283.426 248.888 281.855 246.912C280.959 245.785 278.058 244.363 278.849 247.065ZM212.007 203.742C212.019 203.804 209.494 205.012 210.726 206.333C212.409 208.136 212.178 204.626 212.007 203.742ZM201.572 183.589C201.602 186.09 206.894 185.486 206.857 182.972C206.81 179.877 201.542 180.939 201.572 183.589ZM207.89 162.694C207.366 160.405 198.16 157.221 198.411 161.21C198.537 163.211 209.001 167.561 207.89 162.694ZM302.268 240.322C303.3 241.562 304.766 242.051 306.003 243.004C307.3 244.002 308.227 245.296 309.36 246.468C312.471 249.685 316.217 252.328 319.573 255.283C325.744 260.715 331.655 266.555 338.497 271.162C350.724 279.394 364.902 283.896 378.978 287.839C380.143 288.165 383.502 289.484 384.656 288.502C385.9 287.443 385.268 283.716 385.21 282.308C384.977 276.531 384.304 270.687 384.376 264.919C384.407 262.55 385.1 259.182 383.864 257.014C382.484 254.593 378.631 253.885 376.247 252.974C369.002 250.205 362.023 245.534 355.623 241.207C347.756 235.889 339.81 230.482 331.714 225.517C323.782 220.653 315.033 217.396 306.185 214.618C305.775 215.479 309.997 218.251 310.479 218.64C312.794 220.503 315.312 222.435 317.031 224.895C318.247 226.636 319.495 230.577 316.136 230.678C314.507 230.727 312.1 229.152 310.624 228.643C308.185 227.801 305.672 227.21 303.121 226.826C305.314 229.241 312.748 233.578 311.395 237.594C310.083 241.491 302.493 236.943 299.88 236.943C300.309 238.302 301.385 239.261 302.268 240.322ZM391.937 251.198C396.798 252.907 401.78 253.879 406.797 254.983C411.578 256.035 415.998 256.828 420.896 256.212C427.658 255.361 435.142 252.56 435.999 244.876C437.016 235.772 430.586 227.406 425.065 220.875C418.346 212.928 410.801 205.823 402.624 199.39C394.456 192.963 385.64 187.297 376.404 182.514C369.377 178.875 361.441 176.665 354.012 173.935C352.598 173.415 348.689 171.59 347.367 173.102C346.298 174.326 347.753 176.364 348.24 177.5C349.189 179.715 349.32 181.944 349.565 184.322C350.661 194.941 351.979 205.556 352.586 216.221C352.755 219.193 353.053 222.302 352.879 225.276C352.784 226.923 351.926 229.021 352.497 230.63C353.595 233.722 358.62 235.768 361.283 237.149C366.052 239.621 371.1 241.466 375.917 243.831C381.208 246.428 386.358 249.235 391.937 251.198ZM324.524 182.2C323.19 182.017 321.191 181.654 320.002 182.518C318.451 183.645 318.858 185.214 320.29 186.031C321.422 186.677 324.07 186.854 325.187 186.268C327.091 185.269 326.769 182.51 324.524 182.2ZM317.135 206.789C318.213 208.585 322.154 209.762 321.81 206.411C321.516 203.542 315.149 203.482 317.135 206.789ZM318.598 156.201C316.865 156.872 313.719 157.447 313.205 159.676C312.727 161.752 314.693 161.614 316.112 161.043C317.279 160.575 322.479 156.165 318.598 156.201ZM47.0382 235.362C48.0504 231.423 47.2795 227.061 47.8381 223.026C48.3801 219.115 49.3553 215.521 50.7545 211.835C53.853 203.674 57.4027 196.329 62.4251 189.167C71.8841 175.68 82.8585 163.8 96.1104 153.949C109.193 144.224 123.68 136.32 139.026 130.781C155.299 124.907 171.68 122.862 188.841 121.736C193.966 121.401 199.086 121.002 204.182 120.355C207.906 119.882 212.575 119.299 216.257 120.44C218.57 121.157 219.863 123.174 217.343 124.498C215.556 125.437 213.217 125.549 211.243 125.798C213.627 133.372 217.506 140.971 223.653 146.185C229.653 151.277 237.683 153.022 245.257 154.313C249.364 155.013 253.962 155.554 258.133 155.252C260.77 155.062 262.827 153.841 263.891 156.557C264.629 158.444 264.979 160.514 265.952 157.665C267.103 154.297 267.668 154.318 271.249 153.362C278.572 151.405 286.968 149.62 293.357 145.389C299.985 141 302.291 133.898 305.991 127.286C306.906 125.652 309.666 122.344 308.256 120.471C306.966 118.759 302.771 118.929 300.851 118.751C298.824 118.562 296.784 118.554 294.751 118.475C293.572 118.43 291.202 118.913 291.676 117.153C292.392 114.5 300.054 114.84 301.957 114.797C305.495 114.718 309.083 114.799 312.603 115.189C330.06 117.119 347.674 120.689 364.567 125.45C397.342 134.685 429.085 151.703 453.004 176.219C475.963 199.753 483.237 238.915 469.123 268.964C461.787 284.58 445.868 290.995 430.437 296.176C422.298 298.909 413.679 301.047 405.026 300.531C400.874 300.283 396.935 299.165 392.885 298.323C391.119 297.956 389.109 297.37 387.295 297.518C385.922 297.63 384.603 298.89 383.315 298.22C382.401 297.745 382.003 296.38 380.886 295.799C379.545 295.102 377.918 294.85 376.47 294.498C372.443 293.52 368.544 291.933 364.608 290.633C360.538 289.288 356.697 287.555 352.792 285.804C350.82 284.92 346.256 281.323 344.971 283.952C344.386 285.152 344.635 287.467 344.492 288.725C344.242 290.926 343.949 293.122 343.628 295.314C342.92 300.139 342.073 304.944 341.206 309.744C339.639 318.403 337.621 326.692 334.246 334.838C331.551 341.342 329.185 348.714 324.181 353.887C321.997 356.146 319.016 357.162 315.883 356.453C312.319 355.645 310.545 352.408 308.382 349.79C303.622 344.031 295.763 339.618 288.507 338.029C279.62 336.084 270.964 338.929 262.482 341.347C253.51 343.906 244.377 346.343 235.57 349.418C227.364 352.285 218.503 356.517 209.603 356.149C201.842 355.828 194.593 349.511 188.996 344.697C183.374 339.861 176.345 332.78 168.262 333.35C164.248 333.633 160.59 335.569 156.681 336.356C152.389 337.221 147.822 337.343 143.457 337.665C138.039 338.065 125.918 336.653 123.914 330.135C123.617 329.168 123.615 327.177 124.892 326.79C126.066 326.434 126.666 327.807 127.779 327.745C130.043 327.617 131.812 323.67 133.056 322.141C138.075 315.972 144.96 311.37 150.593 305.797C156.952 299.504 162.382 291.88 167.174 284.36C165.008 283.797 162.67 284.732 160.574 285.176C158.026 285.716 155.543 286.368 153.032 287.06C150.265 287.822 147.459 288.345 144.65 288.926C142.555 289.358 139.774 289.489 137.883 290.54C136.231 291.458 135.31 292.443 133.26 292.71C131.176 292.98 129.036 292.752 126.942 292.738C121.278 292.7 115.626 292.594 109.989 291.996C90.0702 289.88 68.956 281.454 56.9787 264.734C53.7209 260.186 51.0965 255.148 49.438 249.801C48.1437 245.627 45.9118 239.745 47.0382 235.362Z" fill="black"/>
<path fill-rule="evenodd" clip-rule="evenodd" d="M233.86 42.7127C228.625 42.7868 223.719 44.339 218.842 46.1036C214.552 47.6552 209.98 49.0907 206.511 52.1878C200.273 57.7588 198.648 66.9832 197.627 74.8751C196.354 84.7231 200.591 92.9855 204.158 101.895C207.493 110.228 213.616 116.978 220.893 122.122C224.705 124.816 228.919 126.443 233.327 127.869C237.806 129.317 242.143 131.257 246.934 131.25C254.21 131.24 263.524 127.784 266.624 120.615C268.035 117.352 266.661 116.766 263.837 118.54C259.741 121.113 255.792 123.89 251.005 125.032C241.722 127.247 230.603 123.816 222.463 119.289C214.326 114.763 208.863 107.964 205.212 99.4988C201.528 90.9585 200.097 82.543 201.518 73.3359C202.722 65.5335 205.116 58.4065 212.147 54.1709C227.326 45.0287 247.776 45.7653 261.275 57.6464C263.126 59.2752 264.956 60.8602 266.863 62.4155C268.076 63.404 269.504 64.59 269.328 66.2997C269.177 67.7636 266.056 73.4081 269.815 71.6744C272.861 70.2685 274.517 67.5203 278.208 67.1801C282.137 66.8177 286.823 69.8357 287.998 73.6341C289.119 77.2584 287.12 82.217 283.989 84.2959C282.05 85.5832 279.917 85.3844 277.715 85.3325C276.623 85.3066 273.581 84.9516 272.858 86.1068C271.578 88.1498 276.092 90.2973 277.549 90.7492C281.094 91.8489 285.283 90.5547 287.321 87.3904C289.392 84.1736 290.81 80.4505 291.096 76.6181C291.368 72.9463 290.535 69.2288 288.369 66.2139C286.065 63.0076 281.368 59.4129 277.158 60.5267C275.33 61.0102 273.862 62.8983 272.069 63.257C270.937 63.483 271.413 63.6448 270.475 62.8057C269.88 62.2734 269.317 61.2911 268.768 60.6601C265.608 57.0321 262.483 53.1602 258.616 50.2564C251.681 45.0497 242.463 42.5905 233.86 42.7127ZM253.037 114.642C252.217 112.719 250.71 116.149 250.265 116.723C249.383 117.857 247.309 118.74 247.399 120.413C247.546 123.176 251.312 122.663 252.567 121.222C253.996 119.581 253.846 116.541 253.037 114.642ZM226.286 101.563C224.255 104.728 226.731 108.145 228.337 110.947C229.872 113.626 231.298 116.654 233.086 119.172C236.054 123.354 242.51 118.83 242.702 114.533C242.848 111.243 240.518 112.675 239.022 113.904C237.483 115.169 236.753 115.484 235.139 114.102C231.893 111.321 230.434 106.669 228.19 103.147C227.745 102.449 226.939 102.029 226.286 101.563ZM220.496 102.58C219.972 104.111 221.071 108.168 218.016 107.762C216.328 107.538 215.968 105.116 215.08 104.059C212.096 100.505 213.011 107.227 213.791 108.909C215.51 112.616 220.32 115.171 222.706 110.467C223.593 108.718 223.59 106.509 223.139 104.628C222.893 103.604 221.462 99.7534 220.496 102.58ZM247.736 95.3301C248.006 97.1163 249.685 100.675 247.635 101.953C245.832 103.078 242.691 100.635 241.302 99.6151C239.859 98.5552 236.588 95.515 236.46 99.2984C236.394 101.227 238.325 103.541 239.702 104.652C242.642 107.021 248.749 109.147 250.914 104.687C252.094 102.257 251.449 98.7988 250.669 96.3506C250.037 94.3664 247.083 91.0158 247.736 95.3301ZM209.187 85.551C207.991 86.9399 205.157 90.0518 206.698 92.0298C208.5 94.3418 211.428 90.0999 212.583 88.9192C213.623 87.8556 215.811 84.827 214.878 83.2205C213.333 80.5622 210.238 84.3316 209.187 85.551ZM227.987 79.5703C224.077 82.1173 229.218 83.9512 231.444 84.1793C234.14 84.4541 237.585 84.6365 240.061 83.314C243.57 81.4394 242.4 78.6077 238.999 77.9299C235.512 77.2354 231.021 77.5934 227.987 79.5703ZM278.812 71.4623C275.937 72.0217 272.654 72.7498 271.674 75.8842C270.663 79.1236 272.116 80.1986 275.053 79.4694C277.77 78.7944 281.828 78.1152 283.364 75.4612C285.199 72.2904 281.478 70.9442 278.812 71.4623Z" fill="black"/>
<path fill-rule="evenodd" clip-rule="evenodd" d="M437.007 141.068C437.972 144.184 442.855 146.25 445.29 148.144C453.808 154.771 462.132 161.67 469.832 169.233C473.829 173.159 476.855 177.907 480.321 182.273C481.166 183.338 482.664 185.724 484.323 185.5C486.143 185.255 486.511 182.121 486.453 180.752C486.254 176.085 481.991 171.577 478.951 168.363C475.531 164.749 471.875 161.227 468.141 157.936C464.03 154.313 459.569 151.199 455.022 148.15C450.558 145.157 446.278 141.698 441.635 138.987C439.448 137.709 435.817 137.224 437.007 141.068ZM139.259 111.477C135.704 111.589 132.234 112.756 128.881 113.838C121.505 116.22 114.481 119.524 107.553 122.977C95.4089 129.031 83.7218 136.355 73.009 144.682C70.7695 146.423 68.4737 147.833 66.0386 149.256C64.48 150.168 62.2579 151.28 61.6575 153.138C60.1323 157.861 67.8306 153.121 68.9231 152.442L70.4598 151.489C93.2534 137.363 116.021 123.637 141.803 115.536C143.177 115.104 143.604 113.879 142.883 112.664C142.102 111.348 140.58 111.436 139.259 111.477ZM438.044 121.362C438.209 122.8 439.838 123.127 440.936 123.589C445.036 125.31 449.237 126.779 453.325 128.529C460.912 131.778 467.88 136.492 475.799 138.957C477.609 139.522 477.876 137.695 477.391 136.452C476.852 135.065 475.231 134.091 474.059 133.289C470.677 130.972 466.842 129.307 463.087 127.698C459.364 126.101 455.53 124.893 451.713 123.555C448.166 122.311 444.048 119.996 440.238 119.825L440.072 119.817C438.859 119.755 437.852 119.673 438.044 121.362ZM132.788 99.5155C136.413 98.4959 132.988 96.2011 130.834 96.3623C128.431 96.5424 126.108 97.677 123.829 98.3614C116.861 100.454 110.402 102.742 103.892 105.989C102.922 106.474 98.6447 108.772 101.474 109.79C103.434 110.495 108.013 107.47 109.697 106.744C117.094 103.554 125.043 101.693 132.788 99.5155Z" fill="black"/>
<path fill-rule="evenodd" clip-rule="evenodd" d="M277.287 106.943C276.834 105.614 271.23 91.0817 273.424 90.6435C275.747 90.1788 278.853 98.6103 279.527 100.134C282.016 105.76 283.49 111.796 284.645 117.831C285.449 122.033 286.156 126.338 285.874 130.634C285.658 133.935 284.294 134.435 282.047 136.458C282.047 126.43 280.523 116.435 277.287 106.943Z" fill="black"/>
</svg>
