<svg width="464" height="390" viewBox="0 0 464 390" fill="none" xmlns="http://www.w3.org/2000/svg">
<circle cx="244" cy="195" r="195" fill="#F2FFF3"/>
<path fill-rule="evenodd" clip-rule="evenodd" d="M77.8445 246.192C78.1465 245.487 78.4474 244.782 78.7494 244.078C79.1226 245.307 79.2273 245.918 77.8445 246.192ZM78.2463 249.448C77.5921 249.564 77.8499 247.525 77.8499 247.169C78.9797 247.805 78.0441 248.567 78.2463 249.448ZM77.2265 243.564C77.7841 243.237 78.3417 242.91 78.8994 242.582C78.1228 244.012 78.4275 243.119 78.7478 244.074C78.1622 244.241 77.5927 244.046 77.2265 243.564ZM73.9217 254.741C71.8315 262.279 65.1923 268.223 58.1799 271.303C54.1504 273.072 50.1888 273.514 45.8373 273.317C44.159 273.241 42.1841 272.699 40.569 272.8C39.3254 272.878 39.3814 272.931 38.3514 273.977C37.8957 273.143 38.2258 272.558 37.3117 272.072C36.1711 271.467 35.6976 272.172 35.1319 273.011C34.3914 272.248 34.0883 271.85 33.1289 271.397C33.1591 271.412 32.2105 271.376 32.2494 271.387C32.0779 271.335 31.0462 270.676 30.7232 270.556C29.3976 270.061 27.865 269.858 26.6419 269.149C25.5719 268.53 24.6907 266.792 23.4665 268.127C23.4655 265.896 20.4406 264.97 19.0228 263.801C16.8074 261.974 15.0461 259.27 13.9416 256.653C12.7638 253.863 12.3707 251.189 11.8195 248.314C11.4345 246.305 8.91277 243.401 10.4271 241.373C10.7879 242.224 10.6185 243.094 11.2177 243.865C11.757 242.832 12.0536 241.676 12.2973 240.546C12.4171 239.992 13.1106 238.367 13.0319 237.885C12.8717 236.897 11.6421 236.844 12.3238 235.633C13.7378 237.163 14.8789 234.477 13.8106 233.407C13.2832 233.998 13.0896 234.67 12.8463 235.402C11.4561 232.612 15.3039 233.511 14.462 230.993C15.8663 230.724 16.6737 230.373 17.2076 228.993C17.8013 227.459 17.3645 227.124 18.7127 226.11C19.1765 225.762 20.488 225.261 20.728 224.687C21.1924 223.579 20.0108 223.251 21.0457 222.212C21.3951 222.822 22.7574 224.028 23.5032 222.88C23.6526 222.651 23.0254 222.489 23.4816 221.962C24.1574 221.181 24.9134 220.416 26.0562 220.58C25.1513 218.331 30.9335 218.153 32.4144 217.623C33.8985 217.091 35.1577 216.743 36.7314 216.619C38.3034 216.496 38.3816 216.038 39.7126 215.098C39.8253 216.443 40.151 216.148 41.1136 216.385C41.345 215.991 41.5823 215.946 41.825 216.252C42.0666 216.48 42.3621 216.588 42.7105 216.575C43.239 216.602 43.8387 216.533 44.3925 216.545C45.6927 216.57 47.0339 216.462 48.3094 216.49C48.6383 216.435 48.9457 216.321 49.2337 216.148C49.354 216.373 49.4748 216.599 49.5945 216.825C50.2702 216.909 50.3225 217.75 51.1536 216.83C51.3995 218 52.1059 217.391 52.8523 217.708C53.5329 217.998 53.6413 218.462 54.2696 218.785C54.6827 219.118 55.1254 219.162 55.5989 218.918C56.0492 219.249 56.5065 219.572 56.9703 219.884C57.8251 220.364 58.8325 220.658 59.7331 221.036C60.3322 221.282 60.9276 221.538 61.5181 221.802C61.5359 222.511 61.8557 222.761 62.477 222.553C63.0384 223.02 63.1964 223.001 63.7411 223.796C64.975 225.598 66.0697 226.997 67.6283 228.607C74.4022 235.608 76.4834 245.504 73.9217 254.741ZM76.0007 224.974C72.9424 220.904 68.6135 216.243 64.7237 213.672C62.752 212.369 59.9844 210.029 57.5732 209.34C57.0016 209.176 56.41 209.166 55.8481 208.994C55.4139 208.862 55.1777 208.419 54.6827 208.339C54.3364 208.283 54.2981 209.054 53.9304 208.983C53.1613 208.834 52.6738 208.075 52.1307 207.601C50.9643 209.599 50.3311 206.239 48.6184 208.498C46.5799 205.321 41.791 206.016 38.5358 206.176C37.5705 206.223 37.117 206.564 36.2611 206.817C35.4646 207.053 35.3859 206.992 34.516 206.986C32.3497 206.969 30.4266 207.24 28.4242 208.185C25.0601 209.773 21.9722 212.248 18.7769 214.162C15.2057 216.301 11.9867 219.024 9.25468 222.153C-0.621832 233.466 -3.26273 249.978 4.61249 263.093C17.1213 283.923 49.3874 286.149 67.6709 272.016C81.7964 261.096 87.172 239.84 76.0007 224.974Z" fill="black"/>
<path fill-rule="evenodd" clip-rule="evenodd" d="M408.273 34.5886C418.592 41.9103 430.429 46.9121 441.212 53.506C443.912 55.1564 452.321 58.5832 452.24 61.6446C452.192 63.4346 449.665 65.6791 448.558 66.9196C446.663 69.0447 444.879 71.1921 443.13 73.4402C435.122 83.7349 427.581 94.1267 418.902 103.904C417.596 105.375 413.659 112.398 412.389 108.91C411.813 107.328 412.287 105.551 410.786 104.077C410.013 103.317 407.028 102.899 407.897 101.27C408.477 101.53 409.057 101.791 409.638 102.051C409.187 100.749 409.22 99.3233 408.545 98.0928C408.125 97.3284 407.305 96.9666 407.021 96.1058C406.627 94.9163 407.294 93.5341 407.183 92.308C407.072 91.0854 406.438 89.9297 406.059 88.7762C403.814 81.9385 403.008 75.0454 401.858 67.9905C400.721 61.0096 398.949 54.2474 398.253 47.1889C397.518 39.7334 396.617 32.2931 395.416 24.8973C397.561 25.1979 399.209 27.5258 400.726 28.8419C403.111 30.9101 405.7 32.7634 408.273 34.5886ZM400.183 106.768C399.69 106.382 399.305 105.907 399.027 105.345C404.085 102.842 401.033 107.112 400.183 106.768ZM397.107 101.43C394.903 102.037 393.319 102.16 391.619 101.254C391.457 101.169 391.643 100.506 391.352 100.37C391.098 100.252 390.71 100.398 390.493 100.288C389.753 99.9116 388.457 100.736 388.331 99.296C391.144 98.4359 393.911 96.8487 396.882 96.5812C401.01 96.2101 400.819 100.408 397.107 101.43ZM387.448 93.1314C384.44 93.834 381.962 95.4751 378.766 95.0465C375.765 94.6452 373.158 93.0911 370.792 91.3004C376.712 89.6262 382.921 89.3242 388.836 87.7046C390.762 87.1775 393.293 85.7874 395.368 86.3476C397.674 86.9704 397.82 89.1278 398.511 91.0911C394.82 91.7542 391.102 92.2785 387.448 93.1314ZM368.634 84.8007C365.744 85.4904 362.79 86.9984 360.374 84.3958C359.983 83.9758 359.642 84.3951 359.688 83.1013C359.737 81.7371 360.976 80.8583 362.043 80.3779C364.55 79.2488 368.064 79.9788 370.726 79.8126C374.973 79.5487 379.296 78.667 383.497 77.9881C386.406 77.5185 389.411 76.4758 392.383 76.6814C394.679 76.8404 397.448 78.7943 394.103 80.2197C391.056 81.5185 386.489 81.3193 383.188 81.8816C378.31 82.713 373.449 83.6515 368.634 84.8007ZM365.811 71.2202C365.998 71.4108 366.185 71.6013 366.373 71.7919C366.342 71.7847 367.481 70.8635 367.782 70.8369C369.247 70.7096 370.721 70.8103 372.189 70.7276C375.57 70.537 378.977 69.9487 382.298 69.3008C385.003 68.7729 387.758 67.8632 390.542 68.0911C392.953 68.2882 393.206 68.7815 393.364 71.1051C387.211 71.1051 380.873 70.9757 374.826 72.2766C370.889 73.1231 366.55 75.6444 364.578 71.0994C364.989 71.1396 365.4 71.1799 365.811 71.2202ZM369.658 61.3829C371.183 62.5436 375.343 60.6134 377.172 60.4206C379.157 60.2106 381.026 59.9927 382.95 59.4987C384.656 59.06 390.302 56.8695 391.611 58.9644C393.617 62.1739 385.492 62.7629 384.204 62.9219C378.802 63.5885 373.197 64.1797 367.941 65.595C368.513 64.1912 369.085 62.7874 369.658 61.3829ZM377.068 50.4812C377.462 51.9648 389.679 46.4978 389.902 50.4711C390.073 53.5196 377.814 55.0385 375.611 54.771C376.127 53.3672 377.5 52.1101 377.068 50.4812ZM381.17 41.1559C381.43 38.1635 381.831 38.1808 384.234 37.8989C386.066 37.6839 388.585 36.6109 388.108 39.873C387.7 42.6662 380.908 44.1757 381.17 41.1559ZM385.536 30.8598C386.114 29.2532 387.415 31.4157 387.443 32.2327C387.516 34.4067 385.865 33.9363 384.277 33.9363C384.719 32.9209 385.14 31.894 385.536 30.8598ZM405.643 18.8003C405.319 18.4105 403.501 18.2617 402.983 18.0725C401.71 17.6065 401.891 16.6134 400.262 17.5928C400.181 17.5109 400.335 16.7745 400.247 16.7407C400.202 16.7234 399.061 16.2933 398.69 16.056C397.795 15.4836 396.989 14.9233 396.167 14.2049C395.293 13.4419 394.417 12.3344 393.419 11.7267C392.997 11.4707 392.653 11.1075 392.146 11.0291C390.829 10.8263 391.206 11.7425 390.055 11.9245C389.346 12.0367 388.829 11.2096 387.902 11.5663C387.101 11.8741 386.636 12.9967 386.279 13.6648C384.98 16.0963 383.979 18.7133 382.708 21.1706C376.21 33.7364 368.823 45.8254 362.529 58.5084C359.497 64.6183 356.333 70.7707 354.199 77.264C352.661 81.9471 349.186 88.7884 352.175 93.468C354.349 96.8703 358.701 98.3395 362.174 99.9835C367.399 102.457 372.215 105.691 377.498 108.089C383.797 110.949 389.914 113.941 396.054 117.135C398.672 118.497 401.035 120.459 403.645 121.749C405.241 122.538 407.707 121.191 408.226 123C410.227 120.579 413.466 122.193 415.781 120.489C417.142 119.486 418.137 117.511 419.272 116.277C420.976 114.426 422.825 112.708 424.563 110.889C431.461 103.666 437.831 96.1418 444.107 88.3828C450.101 80.9734 457.105 73.9731 462.168 65.8625C464.179 62.6428 464.543 59.2664 463.216 55.7095C462.247 53.1148 459.913 49.1968 456.579 50.9149C457.843 48.8178 452.966 46.5784 451.487 46.1684C451.464 46.1627 451.173 47.7736 450.76 47.7333C450.907 47.7477 449.52 44.1642 448.911 43.7046C447.103 42.3375 444.902 40.7424 442.929 39.6169C441.119 38.585 439.209 38.0736 437.456 36.9187C435.33 35.5192 433.379 33.8594 431.246 32.4693C429.186 31.1273 426.89 29.5409 424.613 28.6182C422.639 27.8178 420.866 27.661 419.09 26.3493C416.893 24.7261 414.976 23.6251 412.442 22.5068C410.25 21.5396 407.211 20.6946 405.643 18.8003Z" fill="black"/>
</svg>
