<svg width="128" height="152" viewBox="0 0 128 152" fill="none" xmlns="http://www.w3.org/2000/svg">
<g clip-path="url(#clip0_3_250)">
<rect width="1440" height="4841" transform="translate(-704 -3418)" fill="white"/>
<circle cx="59" cy="100" r="52" fill="#F2FFF3"/>
<mask id="mask0_3_250" style="mask-type:alpha" maskUnits="userSpaceOnUse" x="-14" y="-5" width="135" height="155">
<path d="M102.5 128.5C78.1 158.9 44.6667 150.5 31 142.5L-2.5 138L-13.5 40.5L43.5 -4.5L76 21.5L115 57C121 68.1667 126.9 98.1 102.5 128.5Z" fill="#D9D9D9"/>
</mask>
<g mask="url(#mask0_3_250)">
<path fill-rule="evenodd" clip-rule="evenodd" d="M45.3269 7.31299L44.9899 7.31884C35.8426 7.56259 27.776 13.4579 21.5196 19.697C18.426 22.7819 15.6048 26.4105 14.2772 30.6329C12.7442 35.5105 13.2486 40.8756 14.415 45.7709C16.9917 56.5892 20.141 67.4631 23.6824 78.0063C25.425 83.1928 27.9518 88.2782 29.2669 93.5866C30.3512 97.96 25.7854 101.145 25.6106 105.64C25.4343 110.174 28.4801 114.433 32.6653 116.053C34.4479 116.743 36.6045 116.167 38.2478 116.874C39.7506 117.52 40.2769 119.428 40.5655 120.893C40.9586 122.89 40.8879 124.886 40.7761 126.901C40.7075 128.134 41.0143 130.146 40.4137 131.245C40.0013 132.001 39.2499 132.247 38.6024 132.764C37.7189 133.469 37.1302 134.347 36.3554 135.157C35.0782 136.495 33.8494 137.219 33.5025 139.17C33.3179 138.727 33.1333 138.284 32.9492 137.841C31.9971 139.586 31.2914 140.422 32.1967 142.078C29.3881 141.802 27.724 146.905 26.9877 148.84C25.6392 152.382 24.7131 156.062 23.3615 159.606C21.5092 164.465 19.0755 169.259 17.8935 174.343C16.9008 178.616 16.115 183.005 15.2325 187.307C14.7354 189.73 14.3022 192.191 13.3927 194.501C13.039 195.398 12.3828 196.001 11.9761 196.801C11.4202 197.895 11.6376 198.473 11.611 199.671C11.5642 201.808 10.2184 203.195 9.79514 205.27C9.34324 207.488 8.974 209.73 8.51794 211.952C7.59905 216.427 5.89701 220.896 5.48723 225.43C5.01141 230.694 3.9906 235.893 3.47734 241.159C3.02804 245.76 3.79145 250.7 2.83201 255.151C1.98125 259.101 3.03586 262.714 3.41132 266.636C3.50649 267.632 1.97499 273.561 4.43626 272.423C3.97396 273.82 3.32603 274.487 3.29119 276.02C3.25894 277.454 3.62814 278.929 3.92976 280.319C4.51219 283.007 4.90012 285.936 6.04106 288.454C7.33124 291.302 9.29747 291.643 11.9704 292.62C13.7801 293.281 17.0385 295.642 18.4645 293.117C19.3147 295.709 20.9746 293.917 22.8353 293.772C22.8228 293.773 23.9003 294.172 24.102 294.2C24.7562 294.288 25.5295 293.979 26.1806 293.925C27.8036 293.79 29.3959 294.007 30.9835 294.336C34.6419 295.095 38.1812 296.145 41.8936 296.675C49.1454 297.708 56.252 297.219 63.5142 297.672C77.7265 298.557 92.1738 297.814 106.397 297.431C107.924 297.39 109.569 297.604 111.076 297.369C112.7 297.115 113.054 296.345 114.319 295.575C116.423 294.294 118.756 295.54 120.938 296.007C127.345 297.381 134.036 297.482 140.493 298.811C153.614 301.509 165.702 306.835 178.27 311.327C183.718 313.275 190.113 316.428 195.988 316.565C203.108 316.719 201.426 309.695 200.118 305.18C204.232 306.274 210.692 311.272 214.874 308.371C219.857 304.915 213.516 299.169 213.218 295.107C222.124 296.958 232.227 301.019 241.267 297.718C243.007 297.083 244.521 295.741 246.388 295.523C248.329 295.295 250.381 295.982 252.344 295.97C256.815 295.942 261.157 295.346 265.626 295.897C275.592 297.127 285.415 297.8 295.461 298.065C305.575 298.331 315.689 298.931 325.807 298.906C330.943 298.893 336.173 298.283 341.299 298.557C343.311 298.664 347.643 300.128 349.057 298.08C350.476 299.784 351.682 298.645 353.503 298.834C353.166 298.8 354.452 299.544 354.645 299.616C355.603 299.973 356.498 299.864 357.497 299.854C360.16 299.827 362.647 301.075 365.296 300.954C365.966 300.924 366.472 300.728 367.041 300.498C367.175 300.443 367.143 299.863 367.359 299.815C368.655 299.524 368.32 300.319 369.143 300.72C370.055 301.164 371.404 300.445 370.885 301.811C373.36 301.702 375.705 302.538 377.956 301.068C376.892 303.424 380.611 301.467 381.583 301.428C383.198 301.363 384.612 302.172 386.223 302.358C388.155 302.581 390.096 301.684 391.987 302.232C393.468 302.661 393.975 303.692 395.516 303.165C396.826 302.717 397.643 301.743 398.279 300.679C399.156 299.211 399.268 298.556 401.382 298.53C402.95 298.511 404.527 298.849 406.11 298.845C407.923 298.842 409.917 298.649 411.572 299.513C413.356 300.443 414.404 301.859 416.382 302.588C425.278 305.864 435.043 304.996 444.324 304.941C448.24 304.917 451.113 305.278 452.213 300.804C453.142 297.025 453.514 293.072 454.4 289.261C455.486 284.592 456.679 280.259 459.089 276.085C461.426 272.037 463.392 267.854 465.427 263.649C469.659 254.903 475.549 247.462 482.117 240.355C484.612 237.654 487.472 234.646 487.588 230.757C487.673 227.4 486.196 223.921 484.259 221.246C482.53 218.858 479.68 216.165 476.456 216.722C474.515 217.057 473.243 218.626 471.794 219.802C470.21 221.088 468.485 221.964 466.577 222.665C462.127 224.3 458.394 226.089 454.54 228.911C450.641 231.766 446.995 234.964 443.623 238.427C437.149 245.076 430.516 251.982 426.796 260.591C425.33 263.983 424.394 267.254 423.394 270.77C422.412 274.224 419.739 273.272 416.734 272.776C413.071 272.17 409.389 271.846 405.702 271.463C404.314 271.318 402.357 271.276 401.521 269.962C400.6 268.514 401.655 266.637 401.739 265.134C401.784 264.332 401.518 263.74 401.452 262.957C401.375 262.067 401.638 261.254 401.639 260.368C401.64 258.462 400.749 256.764 399.269 255.609C396.498 253.447 392.458 252.159 389.178 250.97C384.7 249.346 379.902 248.548 375.29 247.389C370.098 246.084 364.874 244.908 359.654 243.723C354.524 242.558 349.402 241.36 344.218 240.463C341.177 239.937 337.878 240.129 334.93 239.168C331.796 238.146 332.316 234.989 332.325 232.191C332.34 227.571 331.769 222.815 331.094 218.248C329.657 208.539 326.233 199.037 323.12 189.758C320.122 180.821 316.407 172.244 310.275 164.992C304.306 157.932 296.979 151.543 289.379 146.297C281.46 140.83 272.648 136.881 264.382 132.001C266.189 130.617 268.344 129.436 269.382 127.305C270.554 124.899 270.057 122.022 270.007 119.451C269.951 116.549 269.863 114.002 268.828 111.237C268.261 109.723 266.072 106.851 266.407 105.205C266.97 102.44 273.008 100.421 275.232 99.2834C278.719 97.499 282.213 95.6866 285.427 93.434C288.511 91.273 291.413 88.672 293.281 85.3548C293.811 84.4136 294.248 83.4251 294.586 82.399C294.963 81.2543 294.699 80.8642 295.842 80.7803C297.666 80.6459 300.4 82.4793 301.937 83.2892C309.859 87.4647 318.56 93.0839 327.908 92.711C331.3 92.5761 335.113 91.5089 336.312 87.9662C337.891 83.3022 334.594 78.484 331.702 75.1152C337.344 76.0032 347.747 78.7787 352.199 73.7371C355.166 70.3777 352.928 65.0454 350.44 62.1324C347.153 58.2845 342.467 55.9418 338.139 53.4933C343.45 51.4652 349.33 50.1683 354.001 46.7746C358.468 43.5293 357.916 38.5433 354.388 34.7152C350.616 30.623 344.02 28.5272 338.832 27.0079C332.469 25.1444 326.147 25.2938 319.59 25.4188C307.822 25.6428 297.713 29.9876 288.061 36.5563C282.958 40.0298 277.928 43.7782 273.401 47.985C269.156 51.9303 264.627 55.5991 260.444 59.5871C256.391 63.4511 253.203 68.2386 248.925 71.8485C245.287 74.9178 241.299 79.2683 236.678 80.6308C231.778 82.0756 227.367 84.4652 222.425 85.8876C216.819 87.5006 212.004 90.198 206.809 92.7714C185.007 103.571 161.602 110.6 138.617 118.354C126.86 122.319 115.026 125.115 103.023 128.143C96.9955 129.664 91.3984 130.476 85.1784 130.201C83.7442 130.138 82.3745 130.1 80.96 130.3C79.9231 130.445 79.1347 130.838 78.2075 130.217C76.8752 129.326 76.3744 127.005 75.5803 125.683C80.0068 124.309 84.3401 122.822 86.3599 118.279C87.6324 115.416 88.2928 112.077 88.8508 109.005C89.1504 107.352 89.1571 105.683 89.413 104.029C89.5534 103.116 89.9871 102.161 89.9538 101.228C90.0531 101.747 93.3516 100.039 93.8301 99.722C95.6756 98.4975 96.0116 96.0293 95.9965 93.9459C95.9788 91.5928 95.2695 89.0063 93.6741 87.222C92.919 86.3772 92.0204 85.7438 90.9226 85.4256C90.1436 85.1996 89.116 85.4954 88.4291 85.2678C85.3817 84.2589 85.0406 76.7063 84.6085 73.9569C83.6558 67.8985 82.7067 62.1147 80.6506 56.3074C76.9017 45.7199 72.0769 35.4303 66.3301 25.7907C61.4061 17.5306 56.4866 7.4308 45.6601 7.31299H45.3269ZM138.919 261.646C143.302 262.406 147.5 263.958 151.733 265.275C155.686 266.504 159.693 267.287 163.748 268.086C171.82 269.676 180.068 271.132 188.023 273.205C190.262 273.789 191.441 275.107 193.395 276.023C194.844 276.702 196.204 276.014 197.711 275.956C200.992 275.831 204.632 276.903 207.787 277.702C215.237 279.587 221.846 282.861 228.587 286.48C229.19 286.803 233.269 288.673 233.075 289.446C232.918 290.078 227.734 288.382 226.909 288.256C222.734 287.619 218.656 286.301 214.512 285.482C211.111 284.81 207.671 284.355 204.284 283.608C200.515 282.778 192.485 279.891 192.166 286.126C191.821 292.864 199.251 294.937 203.717 298.08C203.219 298.94 196.054 296.104 195.166 295.818C192.119 294.834 189.293 293.061 186.191 292.305C180.794 290.991 181.448 296.961 184.427 299.617C187.738 302.567 193.212 303.458 195.046 307.999C192.638 308.868 189.491 307.235 187.28 306.423C184.376 305.357 181.461 304.307 178.54 303.29C171.982 301.008 165.753 297.864 159.16 295.689C145.633 291.229 131.335 289.95 117.195 289.157C118.455 284.262 119.833 279.395 120.965 274.467C121.45 272.358 121.893 270.24 122.26 268.107C122.516 266.624 122.298 263.074 123.319 261.904C124.561 260.479 127.797 262.481 129.557 262.443C131.282 262.405 132.541 261.514 134.135 261.232C135.648 260.966 137.439 261.39 138.919 261.646ZM393.084 289.983C393.084 292.323 393.489 295.162 390.416 295.435C387.93 295.656 383.067 295.941 381.084 294.17C382.985 293.243 385.144 293.081 387.162 292.546C389.265 291.988 391.207 291.072 393.084 289.983ZM342.358 247.344C343.293 247.351 344.87 248.392 345.723 248.683C347.283 249.214 348.869 249.663 350.463 250.085C355.25 251.355 361.414 251.553 363.612 256.7C364.709 259.268 365.47 265.874 369.283 265.85C372.672 265.828 374.702 260.929 377.119 259.186C379.618 257.385 383.579 258.611 386.274 259.393C389.013 260.188 393.262 261.207 392.955 264.683C392.734 267.182 392.284 269.456 392.305 272.009C392.331 275.258 392.606 278.501 392.606 281.751C390.683 279.113 389.006 273.809 385.6 272.748C382.159 271.676 380.212 277.697 379.317 280.005C378.208 282.865 376.814 286.107 376.729 289.206C376.703 290.179 377.292 292.852 376.617 293.652C376.017 294.363 373.711 293.848 372.966 293.77C368.354 293.289 363.766 292.691 359.139 292.29C356.763 292.084 356.116 291.562 356.349 289.002C356.531 286.991 356.588 285.075 356.336 283.057C355.213 274.046 349.673 265.803 340.305 264.239C334.66 263.295 328.068 263.985 322.432 264.891C320.26 265.24 317.902 266.293 315.695 266.202C314.065 266.134 314.59 266.041 314.256 264.504C314.023 263.43 313.523 262.513 312.707 261.768C312.062 261.18 311.243 261.512 310.636 260.743C310.196 260.186 310.262 259.428 310.054 258.786C309.649 257.538 308.917 255.853 307.459 255.538C305.113 255.03 302.62 258.176 301.436 259.798C300.213 261.476 299.843 266.484 297.876 267.14C295.606 267.895 292.905 264.916 292.432 263.039C291.796 260.514 292.597 257.782 292.981 255.281C293.008 255.102 293.12 253.441 293.243 253.332C293.574 253.04 296.07 253.122 296.512 253.1C298.686 252.996 300.864 252.991 303.04 252.986C311.572 252.964 319.93 252.124 328.405 251.228C327.174 253.238 325.067 256.538 327.23 258.66C328.833 260.232 331.727 259.443 333.74 259.767C336.585 260.225 341.38 262.928 344.091 260.952C347.911 258.165 343.59 253.378 342.171 250.744C341.867 250.18 340.741 248.193 341.218 247.531C341.632 246.958 341.752 247.34 342.358 247.344ZM405.981 278.313C407.931 278.908 409.896 279.481 411.889 279.923C414.227 280.441 417.851 279.938 418.988 282.514C419.854 284.472 419.424 287.631 418.721 289.582C417.916 291.816 416.027 292.39 413.797 292.561C411.195 292.759 408.558 292.339 405.987 291.983C404.973 291.842 403.893 291.589 402.863 291.587C402.252 291.586 401.018 292.145 400.475 291.688C399.771 291.094 400.235 287.725 400.29 286.917C400.427 284.916 400.806 282.942 400.909 280.939C400.983 279.5 400.441 277.544 402.126 277.237C403.174 277.046 405.069 278.034 405.981 278.313ZM248.465 238.71C249.922 238.963 251.371 239.143 252.852 239.121C253.764 239.107 254.856 238.796 255.699 239.297C257.256 240.223 257.024 242.661 256.971 244.182C256.906 246.028 256.745 247.902 256.548 249.738C256.361 251.494 255.399 254.387 256.757 255.891C257.716 254.841 258.188 251.406 260.038 251.531C262.072 251.669 261.132 254.924 260.951 256.09C259.955 262.533 258.818 268.98 257.927 275.442C257.504 278.514 256.957 281.563 256.674 284.65C256.484 286.722 256.42 288.588 254.108 289.017C251.965 289.415 249.558 288.736 247.392 288.683C245.162 288.63 243.885 288.478 242.602 286.459C245.674 285.786 250.539 286.198 252.27 282.944C254.288 279.148 250.032 275.732 247.938 273.137C246.33 271.144 243.044 264.519 240.06 268.454C238.986 269.871 238.792 272.033 238.249 273.681C237.367 276.358 236.289 278.997 235.231 281.609C225.554 276.606 215.624 272.095 205.07 269.287C207.761 264.732 211.091 260.63 213.105 255.693C215.362 250.161 217.232 244.477 219.539 238.962C223.198 241.1 227.109 235.916 230.751 235.707C236.506 235.377 242.823 237.731 248.465 238.71ZM305.788 276.011C307.794 277.207 310.745 279.535 311.227 281.941C312.059 286.101 307.319 283.32 305.856 282.409C302.792 280.504 299.79 279.895 296.273 281.069C291.761 282.575 287.603 285.117 282.761 283.186C280.351 282.225 275.007 280.17 276.449 276.484C277.443 273.944 280.353 276.123 281.891 277.034C285.917 279.419 289.251 277.908 293.274 276.187C297.297 274.465 301.827 273.648 305.788 276.011ZM448.667 254.663C450.278 256.949 447.004 256.455 445.566 256.678C442.561 257.143 439.465 259.544 440.293 262.941C441.101 266.253 444.265 268.323 444.868 271.8C445.386 274.785 444.887 278.564 442.008 280.203C440.392 281.123 436.858 281.502 435.231 280.445C432.746 278.83 435.832 276.426 437.476 275.627C439.654 274.567 441.413 273.993 440.335 271.208C439.021 267.814 436.469 265.209 436.696 261.326C436.883 258.108 438.579 254.451 441.668 253.114C443.88 252.157 447.159 252.52 448.667 254.663ZM228.766 244.799C225.982 244.679 225.871 248.049 226.012 249.706C226.203 251.972 225.793 254.388 225.745 256.661C225.682 259.672 225.053 269.532 230.369 268.068C233.788 267.126 236.601 263.845 239.349 261.737C241.878 259.796 248.305 257.468 248.722 253.789C249.192 249.633 244.124 248.856 241.22 248.195C237.074 247.253 233.049 244.983 228.766 244.799ZM242.329 135.272C246.744 135.699 251.135 136.356 255.337 137.825C258.18 138.818 262.546 139.531 264.561 141.969C266.303 144.078 265.548 147.084 266.115 149.576C266.881 152.947 269.204 152.486 271.457 150.381C274.154 147.862 274.934 146.037 278.688 148.402C286.46 153.296 292.622 160.523 298.787 167.218C294.02 168.664 284.668 169.014 283.085 174.979C282.219 178.24 284.828 180.613 287.173 182.392C290.2 184.691 293.359 186.816 296.32 189.207C299.083 191.438 305.279 200.319 307.031 192.511C308.117 187.677 306.083 182.681 306.946 177.906C310.694 183.959 314.5 189.998 317.937 196.237C320.862 201.547 322.563 207.228 323.966 213.1C321.779 213.243 319.503 212.131 317.34 212.788C315.258 213.42 314.284 215.393 314.137 217.437C313.889 220.902 315.486 224.429 316.29 227.757C316.842 230.042 317.475 235.229 320.255 235.973C323.423 236.82 325.411 231.94 326.823 229.956C328.168 232.027 328.146 235.055 328.342 237.429C328.477 239.061 329.386 242.111 327.554 243.013C325.839 243.858 322.222 242.8 320.388 242.722C316.985 242.577 313.516 242.301 310.112 242.402C306.896 242.497 302.163 244.219 300.907 240.26C300.052 237.565 299.298 227.878 294.735 233.133C292.708 235.467 291.123 238.128 289.165 240.506C287.19 242.904 285.395 243.062 282.445 242.94C276.606 242.701 270.905 243.824 265.192 244.73C260.179 245.526 260.836 241.264 260.911 237.47C261.025 231.59 259.86 225.44 259.225 219.592C257.715 205.685 254.616 191.945 249.848 178.793C253.836 177.432 260.987 182.921 263.936 178.753C266.36 175.326 263.246 170.606 261.978 167.403C260.397 163.406 259.597 159.231 257.017 155.69C256.204 154.571 255.045 153.073 253.47 153.45C252.118 153.773 251.579 155.5 250.818 156.475C248.403 159.567 245.318 161.887 243.172 165.26C241.859 167.324 240.837 169.529 240.411 171.952C240.293 172.618 240.442 173.982 239.974 174.541C238.523 176.272 233.95 176.247 231.918 177.309C224.98 180.936 222.541 191.492 219.847 198.148C219.088 200.022 218.335 201.902 217.932 203.889C217.662 205.217 217.675 206.905 216.956 208.096C215.386 210.697 210.509 208.375 208.115 207.972C204.103 207.297 200.111 206.653 196.082 206.087C193.625 205.741 190.048 204.849 188.175 207.03C186.234 209.291 187.35 212.852 188.325 215.277C189.916 219.236 191.948 223.018 193.626 226.941C194.965 230.07 195.632 234.102 198.205 236.513C200.434 238.602 204.123 239.201 206.747 237.501C208.244 236.53 212.089 227.144 213.104 227.563C211.272 234.813 208.587 242.206 205.75 249.125C204.879 251.251 203.383 255.584 201.181 256.737C199.357 257.693 195.216 255.887 193.349 255.537C191.579 255.205 188.085 253.765 186.392 254.82C184.34 256.099 184.09 259.511 183.86 261.628C183.689 263.199 183.999 264.37 182.092 264.292C180.748 264.238 179.392 263.581 178.102 263.251C175.108 262.486 172.001 261.98 168.953 261.487C161.904 260.347 154.858 259.21 147.812 258.041C141.755 257.037 135.777 257.042 130.304 254.165C127.529 252.706 124.349 252.261 121.394 251.286C118.465 250.318 115.544 249.691 112.478 249.327C105.775 248.533 99.2529 247.756 92.6288 246.396C89.0037 245.652 85.3854 244.872 81.7795 244.038C78.57 243.296 75.467 242.117 72.273 241.389C69.6156 240.784 67.4331 241.239 66.2947 238.218C65.4783 236.052 65.6681 233.624 65.4586 231.357C64.5002 220.998 68.1221 210.58 68.8632 200.278C69.1034 196.942 69.1773 193.595 69.4274 190.261C69.5418 188.733 69.4726 184.286 71.2522 183.462C71.4139 184.684 71.288 186.739 72.6739 187.345C71.9968 187.049 72.8856 190.658 72.9334 191.02C73.1227 192.461 72.6505 194.003 72.8996 195.416C72.702 195.914 72.7883 196.288 73.1575 196.54C73.4092 196.744 73.5928 197.003 73.7072 197.315C73.7249 198.322 73.43 197.729 73.416 198.077C73.2766 201.543 73.8616 205.137 73.6115 208.688C73.3468 212.442 72.5101 216.124 71.8746 219.826C71.3042 223.149 70.6895 226.479 70.2137 229.817C69.8798 232.159 69.6323 234.849 70.8907 236.981C73.2802 241.029 80.1981 240.589 84.2273 241.251C90.9242 242.352 97.6304 243.345 104.352 244.281C106.932 244.64 109.544 245.459 112.154 245.501C114.943 245.544 116.436 244.416 118.194 242.355C121.736 238.202 124.021 233.486 126.971 228.968C128.629 226.431 130.007 225.762 132.797 224.988C135.388 224.268 137.468 222.375 139.576 220.8C144.005 217.491 149.723 213.894 152.629 209.021C155.688 203.894 151.378 202.192 147.252 200.793C148.256 198.12 150.225 195.974 151.848 193.674C153.692 191.059 155.365 188.344 157.351 185.828C161.398 180.699 165.442 175.597 169.37 170.372C172.728 165.907 176.121 161.678 180.407 158.061C184.711 154.427 189.503 151.45 194.23 148.408C196.699 146.819 201.033 142.759 204.154 143.174C207.181 143.577 208.378 149.224 209.134 151.597C210.002 154.321 210.308 158.118 212.33 160.263C215.302 163.414 218.387 158.45 219.805 156.163C222.401 151.972 225.059 147.82 227.652 143.626C228.833 141.714 230.54 139.895 231.241 137.727C231.25 137.701 231.578 135.837 231.247 136.098L231.224 136.119L231.246 136.094C231.988 135.358 234.727 135.205 235.751 135.116L235.845 135.108C238 134.904 240.181 135.065 242.329 135.272ZM271.271 252.765C273.753 252.75 276.228 253.039 278.699 253.241C280.869 253.419 282.858 253.087 285.024 252.956C287.705 252.794 289.03 253.076 288.413 255.848C287.964 257.865 287.425 260.552 285.357 261.405C282.563 262.557 278.8 262.402 275.824 262.838C273.638 263.158 271.459 263.448 269.283 263.813C267.838 264.055 267.096 264.309 266.419 262.669C265.854 261.294 266.218 259.458 266.411 258.038C266.56 256.949 266.471 255.032 266.985 254.063C267.752 252.616 269.761 252.774 271.271 252.765ZM155.558 225.12C151.912 228.458 149.458 232.726 146.704 236.774C145.023 239.246 141.734 243.186 144.122 246.182C146.157 248.736 150.889 248.152 153.735 248.275C158.209 248.468 161.862 250.492 166.119 251.537C176.841 254.167 167.936 236.117 166.451 232.351C165.409 229.708 164.334 227.077 163.073 224.53C162.505 223.382 161.371 220.033 159.957 219.594C157.908 218.958 156.855 223.932 155.558 225.12ZM247.676 187.17C249.38 190.432 249.656 194.948 250.465 198.511C252.934 209.406 254.378 220.502 255.513 231.606C249.867 229.363 243.906 229.207 237.943 228.658C233.624 228.261 229.657 227.805 225.336 227.99C224.6 228.021 222.482 228.395 221.875 227.768C221.06 226.927 222.047 224.578 222.288 223.693C223.597 218.884 224.173 213.915 225.661 209.136C227.178 204.262 229.023 199.394 230.985 194.682C232.421 191.236 234.392 187.875 237.871 186.185C240.916 184.706 245.785 183.551 247.676 187.17ZM270.932 208.374C268.605 211.887 265.658 214.96 263.386 218.506C261.775 221.021 259.888 225.673 263.758 227.272C265.116 227.833 266.72 227.59 268.143 227.615C270.345 227.653 272.525 227.843 274.729 227.79C276.815 227.74 278.88 227.487 280.96 227.378C282.271 227.31 283.918 227.411 285.073 226.657C288.169 224.634 285.93 220.505 284.933 217.863C283.875 215.056 282.445 212.402 281.065 209.742C280.109 207.897 278.679 204.138 276.504 203.386C273.928 202.495 272.005 206.754 270.932 208.374ZM158.113 168.57C152.999 174.526 148.56 181.021 144.379 187.656C142.338 190.893 140.357 194.169 138.378 197.445C137.084 199.589 136.112 202.331 134.536 204.272C130.938 208.701 129.938 199.038 129.408 196.938C127.452 189.192 125.03 181.509 122.876 173.813L125.084 173.813C133.886 173.808 142.324 173.677 150.893 171.08C153.319 170.345 155.531 168.75 158.113 168.57ZM176.703 170.072C173.919 172.131 156.097 184.222 163.594 188.888C165.145 189.854 167.68 189.416 169.433 189.554C171.68 189.732 173.962 189.95 176.181 190.348C179.054 190.865 181.846 191.765 184.732 192.221C187.027 192.584 190.068 193.008 192.119 191.577C195.501 189.215 193.448 184.578 192.332 181.576C190.744 177.31 189.241 171.6 185.302 169.059C184.386 168.468 183.263 166.357 182.277 166.164C180.733 165.86 177.833 169.237 176.703 170.072ZM78.3791 69.7756C79.7228 70.8053 79.7842 72.9438 80.1326 74.4532C81.3048 79.5303 82.9407 84.4725 83.9116 89.6037C84.8581 94.6084 85.1555 99.5355 84.6912 104.607C84.3812 107.99 84.3453 112.153 82.2923 115.033C79.8352 118.48 74.9698 118.304 71.2901 119.325C67.7498 120.307 64.2396 123.349 68.1013 126.512C69.4737 127.635 71.2756 127.818 72.6323 128.9C74.3057 130.236 75.2667 132.63 75.9776 134.587C76.5632 136.199 76.546 136.506 74.7972 137.076C73.9984 137.336 73.1913 137.501 72.351 137.431C70.4373 137.271 68.7301 136.006 67.1279 135.055C63.0415 132.629 58.3217 129.391 53.4429 129.025C51.8833 128.908 50.1106 129.547 48.5942 129.04C47.1813 128.567 47.6149 128.277 47.3695 126.961C46.3976 121.744 46.0029 116.624 43.3471 111.905C42.0361 109.576 38.5707 104.813 36.2477 108.438C35.2779 109.952 34.9269 110.692 32.775 110.227C31.0241 109.85 29.1005 108.463 29.4479 106.437C29.775 104.526 32.2841 103.225 33.8047 102.388C35.8302 101.273 37.2504 101.402 39.4558 101.138C45.5156 100.412 41.267 91.5355 40.3934 88.2048C39.8442 86.1115 39.202 83.4058 40.6435 81.5157C42.8375 78.6407 47.6171 79.586 50.628 79.9938C54.7918 80.5579 59.3374 80.8584 63.2344 78.9657C67.3572 76.9636 69.1143 72.448 72.9802 70.2527C74.4087 69.4412 76.9116 68.6496 78.3791 69.7756ZM60.2858 106.446C57.421 106.407 58.8136 110.498 59.5978 111.874C61.2505 114.775 64.7903 115.897 67.8985 114.827C70.3571 113.981 73.0166 110.242 69.1658 109.622C67.3192 109.326 65.4913 109.446 63.7414 108.567C62.7445 108.066 61.4559 106.461 60.2858 106.446ZM67.473 84.6908C65.693 85.7731 68.731 92.6856 69.2427 94.0846C70.0758 96.3679 70.8173 97.8419 68.6977 99.6018C67.224 100.826 64.317 101.882 65.705 104.321C66.9894 106.578 71.3966 105.631 73.1886 104.527C75.7934 102.922 75.0259 99.846 74.4512 97.3221C74.0758 95.6684 70.6426 82.7637 67.473 84.6908ZM347.765 39.3043C342.276 41.6527 336.663 43.7741 330.855 45.1892C325.779 46.4261 320.788 47.76 315.556 47.4694C310.716 47.2011 310.139 51.9631 312.903 55.261C314.405 57.0527 316.148 57.0079 318.337 57.0772C320.899 57.1584 323.226 57.8704 325.697 58.5079C329.46 59.4787 333.271 60.3032 336.918 61.6735C338.8 62.3808 340.657 63.2126 342.335 64.3303C343.39 65.0334 345.745 66.3001 344.5 67.2824C342.699 68.7017 337.355 66.7574 335.213 66.6293C330.224 66.3313 325.246 65.8803 320.285 65.2548C317.856 64.948 315.247 64.6449 312.946 63.761C311.441 63.1829 309.774 61.7475 308.069 62.1121C304.473 62.8813 306.255 68.2813 307.888 70.0381C310.313 72.647 313.994 73.7991 317.126 75.2813C319.315 76.3178 321.491 77.4152 323.617 78.5751C324.621 79.123 329.301 81.1756 329.153 82.7339C328.998 84.372 325.303 83.5459 324.39 83.397C318.292 82.4037 312.79 80.0423 307.156 77.6256C304.69 76.5678 302.189 75.5527 299.774 74.3798C298.088 73.56 296.43 72.311 294.567 71.9386C290.174 71.06 290.366 75.9741 288.636 78.6287C283.496 86.5183 273.563 89.8839 265.834 94.4433C262.91 96.1678 260.121 98.1537 257.439 100.231C255.522 101.715 254.756 103.756 252.616 101.8C250.833 100.169 249.973 97.7777 248.83 95.7037C247.499 93.2892 245.722 91.1574 244.358 88.7626C242.342 85.2246 241.739 81.8501 246.165 80.548C250.812 79.1813 254.49 77.1433 258.439 74.2355C268.132 67.0991 276.175 57.986 285.839 50.7949C294.793 44.1324 304.288 37.8803 315.512 36.0912C326.151 34.3949 337.823 34.8126 347.765 39.3043ZM57.3768 90.5506C57.6041 92.5151 58.0872 96.7052 60.8121 96.862C64.1215 97.0521 61.8989 86.9829 60.0242 85.8495C57.0227 84.0349 57.1844 88.886 57.3768 90.5506ZM88.1711 89.7485C92.3022 90.0912 93.4796 94.623 89.3506 96.2277L88.1711 89.7485ZM72.8537 85.7712C73.3841 87.828 73.1954 91.1285 74.8434 92.7071C77.1663 94.9316 78.1777 91.667 78.1606 89.8056C78.1439 87.9644 77.2328 83.3592 74.7726 83.1165C72.6707 82.9092 74.42 85.3498 72.8537 85.7712ZM28.2711 40.0115C29.7812 43.1589 28.1577 46.2652 27.2539 49.3589C29.1078 49.9574 31.606 49.5048 32.7381 51.4673C33.4516 52.7043 33.3273 54.5668 33.1135 55.9063C32.9383 57.0053 32.0387 58.485 32.7875 59.5048C33.7678 60.8397 36.201 60.2225 37.2821 61.7074C38.9254 63.9657 38.0034 69.1241 35.6976 70.8241C32.4568 73.2121 34.3907 67.3517 34.5889 66.2845C35.086 63.611 32.3205 63.9746 30.4318 62.8949C29.4183 62.3157 29.2373 62.2037 29.0049 60.9673C28.7901 59.8282 28.904 58.9246 29.1749 57.697C30.0943 53.5319 28.4869 54.2121 25.1832 53.2944C22.3334 52.5022 22.5617 50.2214 23.2856 47.824C23.8535 45.9449 25.5462 42.8621 23.7126 41.26C22.985 40.624 21.88 41.0261 21.7229 39.6991C21.6168 38.8032 22.8171 37.3345 23.4473 36.8194C25.6195 35.0433 27.3881 38.1709 28.2711 40.0115Z" fill="#242424"/>
</g>
</g>
<defs>
<clipPath id="clip0_3_250">
<rect width="1440" height="4841" fill="white" transform="translate(-704 -3418)"/>
</clipPath>
</defs>
</svg>
