<svg width="40" height="40" viewBox="0 0 40 40" fill="none" xmlns="http://www.w3.org/2000/svg">
<path d="M30.0833 11.7499C29.2055 12.3691 28.2336 12.8427 27.205 13.1524C26.6529 12.5177 25.9192 12.0677 25.1031 11.8635C24.287 11.6593 23.4278 11.7107 22.6419 12.0107C21.8559 12.3107 21.181 12.8448 20.7085 13.5408C20.236 14.2369 19.9887 15.0612 20 15.9024V16.8191C18.389 16.8609 16.7928 16.5036 15.3534 15.7791C13.914 15.0546 12.6761 13.9854 11.75 12.6666C11.75 12.6666 8.08329 20.9166 16.3333 24.5833C14.4454 25.8647 12.1965 26.5073 9.91663 26.4166C18.1666 30.9999 28.25 26.4166 28.25 15.8749C28.2491 15.6196 28.2246 15.3649 28.1766 15.1141C29.1122 14.1915 29.7724 13.0266 30.0833 11.7499V11.7499Z" stroke="#079911" stroke-width="2" stroke-linecap="round" stroke-linejoin="round"/>
<circle cx="20" cy="20" r="19" stroke="#079911" stroke-width="2"/>
</svg>
