<svg width="534" height="400" viewBox="0 0 534 400" fill="none" xmlns="http://www.w3.org/2000/svg">
<g clip-path="url(#clip0_14_340)">
<path fill-rule="evenodd" clip-rule="evenodd" d="M157.944 219.309C160.416 237.847 162.887 256.384 165.359 274.922L167.355 289.891C167.607 291.781 167.369 295.507 168.329 297.198C168.668 297.794 169.559 298.077 170.214 298.429C172.47 299.64 174.725 300.851 176.981 302.062C196.059 312.305 215.137 322.547 234.214 332.79C252.523 342.62 270.833 352.45 289.141 362.28C291.036 363.297 294.101 365.951 296.146 365.252C298.09 364.587 300.077 362.948 301.843 361.914C305.231 359.928 308.619 357.943 312.008 355.957C332.511 343.941 353.013 331.925 373.516 319.909C381.976 314.952 390.435 309.995 398.894 305.037C401.208 303.681 403.523 302.324 405.838 300.968C407.048 300.258 407.206 300.283 407.682 299.079C409.463 294.577 410.288 289.421 411.549 284.75C412.938 279.602 414.327 274.455 415.716 269.308C416.335 267.011 416.045 266.714 415.034 264.497C413.035 260.109 411.036 255.721 409.037 251.333C404.6 241.593 400.164 231.853 395.726 222.114C393.932 218.175 389.61 215.404 386.499 212.507L338.188 167.528C336.961 166.386 335.734 165.244 334.507 164.101C334.305 170.968 332.948 178.349 334.938 184.983C338.204 195.869 341.47 206.755 344.735 217.64C346.314 222.902 347.892 228.164 349.471 233.425C349.764 234.403 351.549 238.28 351.072 239.139C350.808 239.616 348.552 240.098 348.064 240.284C345.965 241.082 343.867 241.881 341.768 242.679C335.921 244.903 330.074 247.128 324.227 249.352C318.969 251.353 313.71 253.353 308.451 255.354C306.668 256.033 304.573 257.289 302.69 257.184C301.005 257.09 299.089 256.257 297.459 255.837C294.593 255.099 291.726 254.36 288.86 253.622C283.23 252.172 277.599 250.722 271.969 249.271C265.635 247.639 260.285 242.847 254.868 239.3C245.557 233.203 236.245 227.107 226.934 221.01C224.802 219.614 224.795 218.818 223.945 216.27C222.036 210.543 220.127 204.815 218.218 199.088C217.199 196.031 215.945 192.96 215.175 189.829C213.906 184.662 213.152 179.314 212.147 174.09C211.844 172.514 211.54 170.937 211.237 169.361C207.337 170.944 203.438 172.526 199.538 174.109C198.973 174.338 196.219 175.022 195.974 175.584C195.819 175.939 196.638 177.551 196.755 177.898C199.988 187.474 203.222 197.05 206.456 206.626C207.473 209.639 208.489 212.651 209.507 215.663C207.076 211.844 204.646 208.024 202.215 204.205C200.306 210.628 198.396 217.052 196.486 223.476C191.972 218.268 187.458 213.059 182.944 207.851C181.382 213.059 179.819 218.268 178.257 223.476C173.396 217.052 168.535 210.628 163.673 204.205C163.096 207.557 162.518 210.909 161.939 214.261C161.765 215.273 161.8 218.176 161.126 218.977C160.572 219.636 158.975 219.309 157.944 219.309Z" fill="#079911"/>
<path fill-rule="evenodd" clip-rule="evenodd" d="M465.723 259.38C465.449 268.106 465.639 279.434 460.863 287.106C460.092 288.344 457.481 292.201 457.19 288.808C456.904 285.477 457.724 282.178 456.912 278.808C456.477 277.005 455.016 273.066 452.519 274.695C451.247 275.525 450.911 277.575 450.413 278.868C449.677 280.783 448.852 282.666 448.076 284.566C445.368 291.197 442.562 299.11 436.541 303.498C437.329 297.78 439.477 291.675 438.033 285.895C437.541 283.925 436.051 280.328 433.485 281.483C430.983 282.607 429.363 287.625 428.182 289.859C424.604 296.634 420.944 303.28 416.915 309.802C414.889 313.082 412.7 316.08 410.049 318.886C408.391 320.641 406.324 323.607 403.711 323.868C403.711 318.867 405.356 314.035 406.859 309.325C408.475 304.26 409.949 299.152 411.535 294.078C412.911 289.677 414.041 285.309 414.957 280.796C415.337 278.929 415.637 276.996 417.228 275.79C418.658 274.707 420.917 274.191 422.512 273.395C426.7 271.303 431.006 269.046 434.897 266.445C436.494 265.377 437.869 263.998 439.541 263.04C441.447 261.949 443.226 261.031 444.989 259.701C452.597 253.963 459.454 246.905 464.075 238.503C464.825 241.878 465.819 245.177 465.929 248.656C466.041 252.224 465.835 255.814 465.723 259.38ZM403.114 299.489C401.897 297.434 400.043 298.276 398.41 299.266C395.876 300.803 393.335 302.329 390.787 303.847C385.603 306.936 380.515 310.186 375.451 313.465C365.141 320.138 354.472 325.6 343.602 331.249C333.097 336.708 323.007 343.204 313.164 349.771C310.799 351.349 308.45 352.964 306.178 354.676C304.162 356.195 302.55 358.328 300.427 359.681C298.217 361.089 296.698 359.947 294.584 358.908C291.94 357.609 289.185 356.521 286.482 355.349C275.576 350.621 264.639 345.713 254.03 340.347C243.486 335.013 233.494 328.867 223.391 322.764C218.579 319.857 213.849 316.766 209.103 313.752C204.052 310.546 198.822 308.143 193.524 305.417C191.179 304.21 189.103 302.572 186.695 301.475C184.164 300.323 181.49 299.496 179.223 297.833C178.207 297.087 177.35 296.196 176.188 295.668C175.235 295.235 174.152 295.162 173.211 294.702C171.295 293.767 170.747 291.868 170.376 289.894C167.99 277.218 166.722 264.192 165.339 251.375C164.562 244.168 163.694 236.989 162.62 229.819C162.136 226.587 163.11 224.083 163.622 220.939C164.218 217.266 164.454 213.517 164.854 209.819C166.742 213.316 168.374 216.986 170.776 220.177C172.546 222.529 175.57 225.864 178.83 225.785C183.897 225.663 183.665 216.973 183.869 213.523C186.177 215.583 186.877 218.939 188.792 221.331C190.541 223.516 192.922 226.226 195.607 227.204C201.263 229.264 200.718 218.767 200.407 215.79C200.251 214.297 199.408 211.934 201.408 212.615C203.251 213.242 205.043 215.841 206.592 217.034C209.268 219.095 212.204 220.808 214.95 222.776C218.357 225.217 222.033 226.982 225.506 229.256C227.679 230.678 230.049 230.998 232.417 232.043C235.887 233.576 238.952 235.861 242.254 237.698C248.794 241.335 256.05 244.597 263.203 246.789C265.518 247.499 268.602 249.499 270.358 247.443C271.439 246.179 272.15 244.247 273.067 242.829C274.228 241.035 275.461 239.287 276.741 237.575C281.292 231.491 286.343 225.747 291.952 220.615C298.477 214.646 305.613 209.274 313.245 204.8C316.524 202.878 330.217 194.262 333.227 200.326C330.753 200.172 328.61 201.076 326.494 202.209C325.978 202.486 323.316 204.387 323.939 202.711C323.166 202.856 322.488 203.864 321.902 204.313C320.89 205.088 319.355 205.983 318.183 206.624C317.025 207.258 315.594 207.413 314.538 208.182C314.153 208.463 313.919 208.918 313.551 209.222L312.497 209.23C312.339 209.814 312.181 210.397 312.024 210.981C311.428 209.071 310.578 211.555 309.582 212.362C308.984 212.847 308.037 213.346 307.332 213.659C306.805 213.893 306.724 213.349 306.213 213.763C305.758 214.13 305.469 214.939 304.98 215.399C304.381 215.963 303.614 216.401 302.945 216.882C301.665 217.804 300.311 218.528 299.014 219.402C297.269 220.578 296.354 222.6 294.661 223.83C293.858 224.412 292.612 224.48 292.177 224.853C291.088 225.79 291.447 227.209 289.416 227.271C289.601 227.567 289.712 227.888 289.75 228.234C289.266 228.151 288.836 227.95 288.459 227.632C288.543 229.658 286.551 230.381 285.357 231.629C284.668 232.348 283.811 233.359 283.325 234.224C283.244 234.368 283.09 235.523 283.057 235.539C282.873 235.627 281.75 234.641 281.856 234.724C281.543 236.596 279.732 238.365 278.939 240.098C278.521 241.011 278.097 242.479 277.273 243.121C277.049 243.296 276.36 243.113 275.791 243.72C275.373 244.165 274.891 244.987 274.722 245.577C274.609 245.972 274.744 246.991 274.582 247.228C274.284 247.66 273.82 247.226 273.354 247.546C272.491 248.136 272.469 249.059 271.207 249.18C272.077 251.294 277.329 251.946 279.238 252.547C284.637 254.246 290.3 255.942 295.347 258.544C296.652 259.217 297.887 259.772 298.118 261.323C298.44 263.48 297.341 266.349 297.131 268.528C296.563 274.413 296.447 280.471 296.565 286.381C296.678 291.979 296.859 297.629 297.12 303.221C297.362 308.404 298.407 313.486 298.971 318.633C299.126 320.046 299.023 326.417 301.452 326.096C303.48 325.828 302.199 321.477 302.161 320.229C302.076 317.468 302.657 314.65 302.633 311.864C302.622 310.525 303.207 309.372 303.263 308.09C303.319 306.824 302.69 305.824 302.878 304.511C303.06 303.252 306.782 296.008 303.207 296.856C303.416 295.821 303.6 294.777 303.876 293.756C304.258 294.1 304.567 294.502 304.799 294.96C305.117 292.735 305.011 290.514 305.209 288.288C305.297 287.279 305.706 286.175 305.566 285.158C305.593 284.737 305.539 284.323 305.406 283.918C305.186 283.685 304.914 283.563 304.59 283.551C304.42 282.994 304.376 282.841 304.678 282.294C304.808 281.924 305.065 281.693 305.45 281.601C306.183 281.514 306.267 281.093 305.701 280.337C305.997 278.846 306.035 277.904 305.822 276.415C305.642 275.165 306.301 272.743 305.63 271.63C304.846 270.328 304.456 271.591 304.311 269.787C304.279 269.405 304.254 268.609 304.408 268.228C304.576 267.814 305.082 267.984 305.147 267.836C305.586 266.834 305.615 264.86 304.061 265.031C304.122 264.315 304.183 263.599 304.243 262.883C305.366 264.175 304.974 263.081 305.61 262.363C306.467 261.395 307.306 261.228 308.531 260.846C311.798 259.827 314.944 258.294 318.136 257.05C324.894 254.416 331.778 252.065 338.339 248.952C352.137 242.405 365.662 235.299 379.544 228.925C378.553 227.084 379.169 226.994 379.894 225.266C380.862 225.938 380.658 225.469 381.347 225.428C381.285 224.852 381.464 224.678 381.885 224.906C382.219 225.009 382.563 225.046 382.915 225.015C383.774 225.163 384.476 225.636 385.257 225.815C385.514 226.004 385.795 226.146 386.103 226.241C386.379 226.178 386.614 226.042 386.809 225.831C388.074 226.066 388.5 227.018 388.555 228.398C388.565 228.638 387.83 228.884 388.041 229.206C388.408 229.769 389.397 229.635 389.962 229.707C389.838 230.292 389.714 230.877 389.591 231.462C392.073 230.317 391.425 233.902 392.178 235.079C392.388 235.408 392.855 235.146 393.098 235.526C393.415 236.023 393.319 236.727 393.59 237.222C394.201 238.341 394.812 238.205 395.421 239.487C398.603 246.179 402.836 252.414 405.89 259.25C407.344 262.503 408.655 265.813 410.174 269.038C411.57 272.006 412.369 274.529 411.373 277.771C409.064 285.29 406.594 292.946 403.567 300.209C403.416 299.969 403.265 299.729 403.114 299.489ZM242.024 355.615C241.807 355.984 241.59 356.352 241.374 356.722C240.892 353.953 242.175 355.237 242.024 355.615ZM231.837 350.431C231.143 350.224 231.443 349.09 231.465 348.605C231.904 349.152 232.335 349.71 232.701 350.311C232.413 350.351 232.125 350.391 231.837 350.431ZM203.919 339.79C204.648 339.381 205.173 339.087 205.999 338.624C205.159 340.261 205.159 340.261 203.919 339.79ZM159.998 195.552C158.884 198.286 162.28 215.169 159.118 215.721C158.664 214.239 158.607 210.159 156.73 209.672C154.4 209.067 154.63 213.267 154.312 214.566C149.529 211.239 147.404 204.813 145.119 199.72C142.207 193.229 139.915 186.477 137.727 179.714C135.855 173.931 134.308 168.046 132.417 162.273C131.229 158.647 129.948 155.012 129.149 151.274C128.976 150.462 128.293 148.403 128.873 147.631C129.716 146.509 132.752 147.795 133.73 148.089C140.075 149.999 146.657 150.821 153.177 151.93C160.42 153.162 167.647 154.435 174.934 155.39C176.755 155.629 178.577 155.855 180.4 156.075C181.582 156.217 183.372 156.075 184.494 156.605C186.767 157.677 187.251 161.781 188.095 163.911C191.245 171.854 194.952 179.547 198.268 187.419C201.255 194.51 203.52 202.054 207.814 208.511C204.612 207.091 200.553 199.585 196.974 203.912C195.436 205.772 195.824 208.223 195.947 210.45C196.125 213.668 196.18 216.911 196.18 220.135C192.678 219.225 190.325 215.25 188.487 212.434C185.975 208.587 184.393 204.963 183.281 200.553C182.8 198.644 181.523 198.597 180.388 197.454C179.659 196.719 179.292 195.73 178.246 196.798C176.931 198.141 177.806 201.859 178.033 203.444C178.572 207.217 180.34 213.023 178.622 216.567C176.302 221.351 170.086 209.314 169.357 207.576C168.987 206.691 162.374 189.719 159.998 195.552ZM155.655 113.567C156.047 113.627 156.438 113.687 156.829 113.747C156.514 114.026 155.857 115.003 155.32 114.745C155.432 114.352 155.543 113.96 155.655 113.567ZM176.4 109.116C176.277 109.251 176.154 109.385 176.031 109.52C175.469 108.818 175.668 107.795 175.668 106.983C176.411 107.431 176.592 108.328 176.4 109.116ZM178.076 116.905V119.2C176.521 118.526 176.49 118.178 178.076 116.905ZM179.965 119.823C178.875 119.524 178.745 119.283 178.898 117.609C179.35 118.547 179.647 119.165 179.965 119.823ZM186.237 136.818C185.78 137.993 183.111 135.193 183.208 134.355C183.302 133.555 183.712 133.317 184.277 133.831C184.464 134.001 184.187 134.616 184.306 134.83C184.737 135.603 185.605 136.235 186.237 136.818ZM186.266 143.897C185.598 145.567 184.405 142.937 186.153 142.865C186.267 143.201 186.305 143.545 186.266 143.897ZM184.969 141.264C184.71 140.919 184.458 140.569 184.214 140.213C185.114 140.395 185.829 141.706 186.778 140.831C186.666 142.165 185.718 142.202 184.969 141.264ZM126.768 119.575C125.321 117.995 134.759 116.886 135.898 116.615C144.16 114.645 151.961 111.793 159.687 108.295C163.372 106.626 167.039 104.937 170.638 103.087C172.192 102.289 174.322 101.612 175.62 100.413C176.547 99.557 176.51 98.9096 177.714 98.3997C178.736 97.9679 178.787 98.3758 179.255 97.5945C179.537 97.1258 179.855 95.408 179.69 94.8997C179.242 93.5127 178.579 94.6372 177.648 93.6815C176.978 92.9924 177.14 91.033 177.323 90.2216C177.561 90.608 177.697 91.0278 177.734 91.4799C178.743 90.982 178.336 89.2721 179.441 88.9919C180.605 88.6971 180.485 89.6039 180.788 90.531C181.668 89.2393 180.963 88.1377 180.487 86.8763C182.907 86.4231 185.507 85.9841 187.906 86.7893C189.641 87.3711 191.126 88.8018 192.958 89.0784C194.752 89.3487 195.097 88.4981 196.419 87.6351C197.492 86.9346 198.414 87.7596 198.967 87.2304C198.626 89.0169 195.698 88.7726 196.058 91.0049C196.22 92.0096 197.452 92.9122 198.012 93.694C198.716 94.6752 199.277 95.7601 199.756 96.8659C201.62 101.167 202.417 106.158 203.199 110.758C205.129 122.111 205.374 133.688 207.189 145.077C208.054 150.502 208.922 155.93 209.371 161.409C209.484 162.778 210.32 165.885 209.636 167.203C209.057 168.315 207.769 168.318 206.639 168.588C204.428 169.113 202.351 169.827 200.23 170.618C198.328 171.327 197.776 171.762 196.555 169.973C195.374 168.242 194.79 166.178 193.945 164.28C192.869 161.862 191.569 159.529 190.322 157.196C192.773 157.196 194.184 155.873 194.119 153.381C194.048 150.622 191.779 149.967 190.843 147.7C189.934 148.881 189.857 148.915 189.209 147.793C188.467 146.51 187.966 144.163 187.513 142.708C187.837 143.054 188.162 143.4 188.486 143.746C189.304 142.62 188.023 140.845 187.594 139.785C186.932 138.147 186.816 136.377 186.188 134.744C185.846 133.853 185.053 133.151 184.859 132.222C184.729 131.599 185.249 131.007 185.126 130.375C184.911 129.275 183.667 128.095 183.28 126.976C182.685 125.255 182.038 123.74 181.3 122.064C180.3 119.795 180.532 117.413 180.35 114.998C180.16 112.494 179.358 110.098 179.075 107.605C178.879 105.883 179.492 103.714 178.189 102.334C178.036 104.627 178.693 104.592 176.539 105.004C174.086 105.474 172.306 107.301 169.987 107.847C169.509 107.959 169.161 105.871 169.347 108.72C168.235 107.898 165.86 108.918 166.746 109.405C166.075 110.124 164.752 109.627 164.531 110.703C162.25 108.485 158.591 116.035 155.874 112.097C155.425 114.766 153.492 116.344 150.898 116.697C149.593 116.874 148.789 117.309 147.631 117.7C147.396 117.779 147.31 118.117 147.031 118.208C146.606 118.347 145.982 117.928 145.676 118.01C145.053 118.175 144.36 118.996 143.489 119.159C142.491 119.346 141.403 119.26 140.404 119.144C139.155 118.999 138.605 118.851 137.382 119.263C136.282 119.633 135.104 120.67 134.084 119.541C132.48 122.315 128.656 121.637 126.768 119.575ZM200.906 86.094C199.692 85.9487 200.535 84.9049 201.097 84.5914C202.624 83.7403 202.216 86.2513 200.906 86.094ZM133.708 96.0502C140.831 85.7742 153.014 78.7138 163.734 72.7732C169.589 69.5284 175.566 66.383 181.714 63.7273C184.77 62.4075 187.863 61.1388 190.984 59.9794C192.651 59.3601 194.338 58.7971 196.026 58.2367C196.492 58.082 197.341 57.607 197.83 57.6534C197.745 57.645 199.044 57.9981 198.789 58.1091C199.625 57.745 200.023 56.7955 201.006 56.4159C202.112 55.9888 203.519 55.8122 204.703 55.7737C205.751 55.7393 206.657 56.1721 207.655 56.206C208.311 56.2278 208.868 55.9164 209.511 55.8705C209.839 55.8476 209.81 56.3393 210.008 56.3679C210.094 56.3804 210.969 56.0518 210.977 56.0575C211.296 56.2622 211.578 57.0612 211.866 57.3732C212.692 58.2679 213.905 58.8914 215.006 59.3622C216.347 59.9351 219.617 60.5112 218.102 62.631C219.178 62.4763 219.679 63.4492 218.331 63.6955C217.601 63.8294 217.289 63.1607 216.747 62.7044C215.494 61.6523 212.454 60.1544 210.65 60.2221C209.635 60.2601 208.85 61.0304 207.914 61.3101C206.993 61.5851 206.537 61.1586 205.728 61.2263C204.784 61.3049 204.175 62.1044 203.275 62.2466C202.431 62.3799 201.962 61.8049 201.208 61.845C200.312 61.8924 199.444 62.6705 198.589 62.932C197.229 63.3476 196.23 63.631 194.902 64.32C192.328 65.656 189.453 66.1633 186.801 67.3133C184.68 68.2325 182.275 68.7164 180.313 69.733C178.13 70.8627 175.938 71.9883 173.801 73.2159C172.257 74.1028 169.119 74.408 167.417 74.1825C167.392 77.3169 165.85 75.1195 164.295 76.4924C164.663 76.8169 165.08 77.0554 165.547 77.208C163.862 77.881 162.304 78.7185 160.672 79.4919C158.985 80.2919 157.185 80.4679 156.077 81.981C155.056 83.3752 155.402 82.656 153.878 83.2049C153.179 83.457 152.572 84.2258 152.068 84.7419C151.202 85.6294 151.011 86.9732 150.516 85.1492C150.372 85.3716 149.804 86.7877 149.694 86.8237C149.075 86.1664 148.986 86.9455 148.639 87.2242C148.822 87.8299 148.561 88.2268 147.858 88.4148C147.502 88.6794 147.142 88.9388 146.778 89.1924C145.457 90.1086 143.776 90.8945 142.845 92.2596C142.16 91.8549 141.905 91.1565 142.323 90.4435C141.012 91.6518 139.448 92.8929 139.093 94.7528C138.93 94.5955 138.74 94.482 138.525 94.4122C137.992 94.7716 138.686 95.8424 139.023 96.0836C140.495 95.5117 138.655 95.719 139.644 95.8112C139.926 95.8372 140.216 96.0482 140.527 96.0518C141.439 96.0638 142.295 96.02 143.2 95.881C145.193 95.5737 147.153 95.0013 149.083 94.4273C151.185 93.8023 153.288 93.1784 155.343 92.4117C157.036 91.7804 158.701 91.0768 160.365 90.3758C161.029 90.0955 161.693 89.8117 162.359 89.5336C163.623 89.0054 164.29 88.1377 164.113 89.6242C165.12 89.457 165.992 88.0341 166.765 87.4534C167.853 86.6372 169.076 86.0284 170.364 85.6117C170.886 85.4429 171.269 85.2284 171.809 85.2268C172.074 85.2263 172.232 85.9721 172.399 85.9315C173.555 85.6513 173.028 85.0107 173.548 84.0877C174.685 82.0705 177.747 80.9549 179.628 79.8091C180.822 79.0815 181.669 78.1028 182.771 77.2971C183.287 76.9205 183.661 76.7539 184.201 76.5945C184.615 76.4721 185.122 77.4221 185.39 76.4674C184.428 76.0742 183.635 75.5893 182.71 75.3023C182.055 75.0987 182.84 74.4023 181.803 74.8169C181.386 74.9836 181.243 75.7898 181.09 76.1273C179.931 75.0924 176.673 76.1648 175.298 76.5981C175.203 76.6278 174.778 76.4039 174.578 76.4174C173.785 76.4705 173.232 77.5388 172.71 77.9992C171.32 79.2226 169.814 79.7341 168.103 80.4325C168.559 77.9455 171.904 76.9268 173.856 75.9742C176.711 74.5815 179.368 72.8039 182.493 72.0549C184.574 71.5554 187.332 71.1539 188.231 73.5737C188.769 75.0242 188.837 78.6278 187.016 79.2971C186.824 78.62 187.44 78.0414 187.625 77.4539C185.813 78.1455 185.515 80.3221 184.139 81.458C183.365 82.0961 183.089 82.3008 182.715 82.9174C182.343 83.5299 182.165 84.1013 181.295 84.7528C179.873 81.7315 180.113 85.87 179.392 86.3893C179.682 86.1804 178.216 86.7903 178.391 86.7258C178.324 86.7508 177.685 85.7164 177.271 85.7383C176.517 85.7778 176.662 86.6075 176.299 87.0252C175.068 88.4388 173.478 89.3659 171.498 89.1435C171.451 90.1492 171.762 91.3508 170.388 91.4424L170.208 89.2127C169.461 89.969 168.477 90.6872 167.868 91.5627C167.176 92.5591 167.25 93.1726 166.102 93.8367C164.902 94.531 162.349 95.8987 160.92 96.0169C161.274 95.5159 161.211 95.0633 160.734 94.6601C160.016 95.4008 158.955 95.4737 158.191 96.1424C160.845 97.2513 156.152 97.194 155.556 97.3195C155.158 97.4039 154.81 97.7669 154.406 97.8487C153.87 97.9575 153.801 97.394 153.34 97.5726C152.665 97.8341 152.939 98.5721 152.232 98.9429C151.725 99.2096 150.865 99.206 150.292 99.4591C148.928 100.063 146.023 101.401 145.101 99.7784C144.634 102.563 139.862 100.868 138.096 100.68C135.677 100.424 131.464 99.2883 133.708 96.0502ZM143.867 67.5617C144.21 67.2695 144.552 67.2909 144.895 67.6263C144.418 65.1065 148.108 63.883 149.718 62.8117C151.853 61.3909 154.367 58.6341 157.161 58.8523C156.685 59.2054 156.209 59.5586 155.733 59.9117C156.413 59.9997 157.092 60.0877 157.77 60.1758C157.388 60.7383 157.004 61.3002 156.62 61.8622C155.993 58.406 152.722 62.7695 151.775 63.4054C150.821 64.0455 149.87 64.5226 149.023 65.3034C148.183 66.0768 147.425 67.4695 146.037 66.7737C145.911 68.7476 144.324 68.2122 143.226 69.3054C143.18 68.6195 143.573 68.1346 143.867 67.5617ZM158.364 57.708C161.742 56.4429 164.682 54.1039 167.865 52.433C170.905 50.8367 174.007 49.4034 177.098 47.9143C178.665 47.1586 181.537 45.2044 183.329 46.2002C185.748 47.545 182.418 47.9789 181.554 48.4445C181.234 46.3737 180.114 48.2497 180.783 49.4018C178.938 48.6049 174.913 51.7226 173.153 52.5825C172.754 52.7773 172.933 52.8898 172.48 53.119C172.368 53.1752 171.213 53.4383 170.882 53.5492C169.225 54.1039 168.133 53.6633 167.419 55.6638C167.269 55.1929 167.12 54.7216 166.97 54.2502C165.933 56.5799 162.779 57.5997 160.763 58.9773C160.243 59.3325 158.759 60.7101 158.099 60.4252C157.181 60.0284 157.55 58.0127 158.364 57.708ZM219.295 64.732C220.721 64.8263 219.346 65.4914 219.738 65.931C219.693 65.8815 220.597 66.6518 220.478 66.4403C220.638 66.7247 221.02 66.7143 221.216 67.2924C221.891 69.2804 218.945 71.3346 217.952 72.4627C216.021 74.657 214.905 77.4357 212.892 79.5596C211.984 80.519 211.079 81.1815 209.819 81.5393C208.938 81.7898 208.005 81.5216 207.194 82.3695C206.542 83.0523 206.69 83.4403 205.968 83.8034C204.698 84.4435 204.138 83.882 202.901 85.2653C201.837 82.3726 204.894 82.3773 206.49 80.7607C208.692 78.5289 211.105 76.2773 213.17 73.8898C215.004 71.7685 215.739 69.9086 216.61 67.3315C216.885 66.519 217.184 64.7768 217.94 64.2669C219.119 63.4732 218.412 64.6731 219.295 64.732ZM226.307 139.878C230.048 135.695 234.687 131.938 239.716 129.418C241.514 128.517 244.073 127.335 245.936 128.722C247.763 130.081 247.369 132.793 246.633 134.638C245.927 134.361 246.593 131.768 246.227 131.128C245.428 129.73 243.704 130.472 242.531 130.941C241.157 131.49 239.931 132.096 238.843 133.092C238.402 133.496 237.556 133.858 237.274 134.136C236.849 133.959 236.598 134.088 236.523 134.521C236.611 134.787 236.6 135.048 236.491 135.305C236.429 135.387 235.877 135.052 235.798 135.119C235.44 135.426 235.104 135.787 234.752 136.072C234.044 136.644 233.442 136.915 232.79 137.713C231.532 139.255 229.867 140.159 228.603 141.628C228.318 141.96 227.976 142.812 227.912 142.886C227.273 143.632 226.325 144.222 225.604 145.012C224.358 146.376 223.027 147.291 221.589 148.461C220.97 148.964 220.248 149.506 219.836 150.206C219.648 150.526 219.542 152.276 219.536 152.283C218.125 153.829 218.4 150.722 218.506 150.332C219.651 146.14 223.524 142.992 226.307 139.878ZM218.609 168.225C218.785 168.884 218.929 169.428 219.107 170.096C217.989 169.179 217.989 169.179 218.609 168.225ZM217.401 170.381C216.99 170.796 216.577 171.207 216.161 171.616C215.246 170.649 217.569 170.216 217.401 170.381ZM216.82 153.735C216.383 155.504 214.781 157.65 213.68 159.047C213.802 158.892 212.741 159.202 212.62 159.273C212.228 159.5 213.167 160.972 211.808 160.314C211.326 160.587 212.275 161.698 211.62 162.196C209.726 157.88 214.897 154.142 216.899 150.939C217.878 151.838 217.066 152.742 216.82 153.735ZM204.52 177.065C205.901 177.42 206.619 177.197 207.551 175.84C208.112 175.026 208.316 173.583 209.598 174.802L209.824 173.235C211.654 173.985 211.5 176.698 212.3 178.201C212.689 176.5 213.61 171.75 216.431 172.512C219.599 173.367 214.327 178.814 213.838 180.149C212.761 178.478 213.185 180.032 212.363 180.267C211.659 180.47 210.557 179.951 209.701 179.998C207.096 180.14 204.807 181.312 202.428 182.304C201.825 180.679 201.223 179.055 200.62 177.43C202.022 177.538 204.918 173.809 205.33 176.519C204.291 176.339 203.998 176.385 203.492 177.33C203.815 177.166 204.158 177.078 204.52 177.065ZM210.368 198.268C210.364 198.255 213.063 198.422 213.303 198.334C215.15 197.66 214.467 195.565 214.845 194.084C215.606 194.784 215.203 196.062 215.438 196.967C215.713 198.032 216.511 198.939 216.585 200.078C216.753 202.65 214.642 202.079 213.042 202.912C211.675 203.623 211.524 204.518 210.369 202.601C210.056 202.082 209.385 200.73 209.453 200.067C209.521 199.41 210.562 198.863 210.368 198.268ZM212.543 209.4L211.797 208.564C214.02 209.244 212.709 208.221 213.22 206.822C214.927 207.958 216.319 209.126 217.67 206.851L220.003 216.262C218.436 216.631 216.414 214.21 215.339 213.378C214.718 212.897 211.273 211.046 213.342 210.506C213.075 210.137 212.809 209.768 212.543 209.4ZM227.774 179.847C226.479 181.078 225.174 181.768 223.764 182.736C222.527 183.586 222.953 184.562 221.88 185.51C221.168 186.14 219.499 186.781 218.619 187.262C217.052 188.118 215.649 188.281 214.037 187.323C214.475 190.855 212.056 191.131 209.045 191.831C207.61 192.165 206.76 192.675 205.725 191.36C205.016 190.46 204.738 188.83 205.62 188.006C207.02 186.698 210.752 187.15 212.549 186.327C213.912 185.703 215.301 182.187 216.984 183.466C216.115 182.084 217.126 181.711 217.881 180.725C218.707 179.644 219.215 178.381 220.07 177.309C221.695 175.272 224.19 173.222 226.498 171.993C228.529 170.913 229.595 171.678 229.899 173.948C230.052 175.089 230.047 176.789 229.407 177.801C229.204 178.124 228.531 178.128 228.328 178.431C227.973 178.961 228.299 179.348 227.774 179.847ZM251.604 152.454C253.224 153.709 253.066 156.344 253.322 158.139C253.681 160.668 253.42 163.116 253.382 165.693C253.341 168.392 252.017 170.151 251.393 172.681C250.701 175.496 249.806 176.986 248.252 179.348C249.938 179.613 247.429 184.647 247.016 185.298C246.567 186.005 242.947 189.265 244.499 189.265C243.642 190.394 242.71 191.553 241.857 192.651C241.521 193.083 240.932 193.253 240.667 193.558C240.128 194.178 240.095 194.731 239.71 195.455C239.124 196.554 238.931 196.261 238.161 197.058C237.629 197.608 237.28 198.335 236.757 198.862C235.074 200.562 234.86 199.169 233.918 197.861C233.774 198.211 233.518 198.431 233.15 198.52C232.855 197.039 234.884 195.542 235.737 194.642C237.135 193.167 238.412 191.542 239.647 189.929C242.293 186.473 244.67 182.801 246.547 178.868C248.542 174.682 250.137 170.152 250.965 165.585C251.596 162.104 252.196 156.134 247.545 155.248C244.162 154.604 240.433 156.66 237.644 158.324C235.945 159.337 234.236 160.345 232.617 161.485C230.86 162.722 229.341 164.472 227.434 165.464C228.477 164.921 225.035 166.554 225.562 166.095C225.315 166.31 225.528 166.965 225.365 167.261C225.153 167.646 224.414 168.026 224.083 168.275C223.208 168.933 221.81 169.605 221.412 170.69C215.862 166.731 226.899 159.702 229.728 157.912C235.34 154.361 245.105 147.424 251.604 152.454ZM266.575 113.948C266.522 111.097 268.843 107.204 270.412 104.879C271.179 103.741 272.404 103.787 272.854 102.445C273.113 101.672 272.773 100.861 272.85 100.085C272.954 99.0357 273.41 98.194 273.935 97.2919C278.681 89.1372 284.448 81.9195 290.59 74.8049C293.618 71.2976 296.49 67.6554 299.756 64.3607C301.12 62.9846 304.788 58.0377 306.886 58.5325C307.997 58.7945 308.643 60.4898 309.144 61.3549C309.974 62.7856 310.886 64.1258 311.893 65.4414C314.553 68.9148 317.622 71.9638 321.245 74.4258C323.507 75.9643 325.793 77.4596 328.006 79.0716C329.827 80.3981 332.581 81.9148 333.881 83.7773C335.182 85.6403 333.272 87.2179 332.228 88.7648C330.605 91.1705 329.112 93.6633 327.482 96.0664C326.835 95.6008 327.002 94.6549 326.559 94.0586C326.165 93.5299 325.608 93.3148 325.064 92.9883C324.022 92.3638 322.999 91.6002 322.058 92.6466C320.411 94.4778 322.676 98.8065 325.117 98.3315C325.405 100.139 320.529 103.115 319.307 104.11C315.557 107.161 311.689 109.814 306.736 110.09C304.731 110.201 302.645 110.049 300.74 109.378C299.828 109.057 298.819 108.616 298.119 107.915C297.282 107.077 297.068 105.829 296.256 104.999C295.551 104.278 294.583 104.167 293.879 103.445C293.174 102.721 292.826 101.578 292.54 100.641C291.98 98.8106 291.875 96.8799 291.337 95.045C291.014 93.9414 290.748 92.4659 289.693 93.5263C288.162 95.0669 288.931 99.9112 289.323 101.757C289.884 104.39 291.199 106.513 292.577 108.779C294.07 111.237 294.622 113.516 294.89 116.36C295.391 121.684 296.918 126.792 299.295 131.581C300.296 133.598 301.494 135.495 302.575 137.465C303.079 138.384 304.21 141.521 305.582 141.504C307.775 141.477 304.652 135.083 304.218 134.009C301.816 128.064 299.522 121.815 299.007 115.377C302.451 116.264 306.204 117.106 309.769 116.544C307.468 121.691 309.872 126.815 309.578 132.113C309.431 134.77 309.325 137.221 309.379 139.87C309.428 142.193 308.379 144.515 307.472 146.615C305.671 150.787 303.404 155.933 300.059 159.128C297.263 161.799 293.522 162.008 289.868 161.393C281.557 159.993 276.096 153.604 272.608 146.348C270.367 141.686 268.654 136.71 267.59 131.648C266.359 125.789 266.684 119.89 266.575 113.948ZM277.368 74.4627C269.612 68.8508 280.883 62.4778 286.62 63.3455C287.966 63.5487 290.442 64.1049 290.316 65.8612C290.213 67.2966 287.818 68.8966 286.899 69.7825C284.278 72.3107 281.61 77.531 277.368 74.4627ZM333.792 199.159C333.526 198.921 331.355 199.506 332.215 198.222C332.93 197.154 334.911 198.492 335.631 198.766C335.038 199.176 334.522 199.811 333.792 199.159ZM301.496 267.034C300.829 267.116 300.132 265.318 302.536 266.661C302.189 266.785 301.842 266.91 301.496 267.034ZM301.427 296.336C301.51 297.142 301.756 297.673 301.184 298.259C300.7 297.663 300.638 296.822 301.427 296.336ZM302.403 308.443C302.332 308.882 302.261 309.321 302.191 309.759C301.636 309.478 301.082 309.197 300.527 308.916C301.152 308.759 301.778 308.601 302.403 308.443ZM303.082 298.234C303.909 298.543 303.524 297.554 304.125 297.415C304.34 298.445 304.075 299.327 303.483 300.176C303.427 299.975 303.124 298.249 303.082 298.234ZM324.219 225.174C323.059 225.026 322.883 226.252 322.018 226.728C321.46 227.035 319.76 226.804 319.443 227.392C319.862 227.513 320.281 227.635 320.7 227.755C319.741 228.272 318.782 228.789 317.823 229.306C320.129 229.306 322.532 228.204 324.823 228.528C325.791 228.665 326.501 228.992 327.108 229.779C327.477 230.258 327.801 231.027 327.861 231.612C327.925 232.246 327.431 232.683 327.518 232.985C328.551 233.013 328.429 234.706 328.197 235.397C327.694 236.893 325.698 239.236 323.909 238.287C324.657 239.349 324.467 239.955 323.36 240.572C323.461 240.221 323.535 239.606 322.969 239.667C322.824 240.256 322.879 241.189 322.399 241.633C321.861 242.129 321.38 241.549 320.866 241.872C320.256 242.255 320.439 242.857 319.96 243.273C319.325 243.822 319.235 243.431 318.476 243.538C317.328 243.701 318.061 242.987 317.141 243.917C316.823 244.238 316.876 245.073 316.361 245.543C315.37 246.444 312.727 247.384 311.778 246.228C309.496 249.844 302.657 250.712 299.474 247.857C294.397 243.304 303.863 234.046 306.989 231.111C310.126 228.166 313.61 225.623 317.136 223.167C319.139 221.773 321.194 220.506 323.293 219.264C324.588 218.497 326.214 217.096 327.805 217.23C329.232 217.351 330.452 218.459 331.954 218.678C333.041 218.836 335.152 219.098 333.781 220.572C333.14 221.26 330.622 222.374 329.765 222.541C329.261 222.64 328.73 222.451 328.231 222.553C327.387 222.727 326.806 223.44 325.887 223.349C326.178 224.713 325.647 225.355 324.219 225.174ZM339.245 174.534C339.245 175.601 337.298 175.335 336.891 174.972C336.221 174.376 336.198 172.592 335.949 171.781C337.081 172.066 339.244 173.109 339.245 174.534ZM323.553 139.326C327.645 135.963 331.947 132.88 336.495 130.164C338.124 129.192 340.423 127.23 342.446 127.475C343.294 127.578 345.049 128.553 344.41 129.627C344.29 129.828 343.346 129.909 343.054 130.055C342.724 130.22 342.464 130.675 342.157 130.9C340.032 132.459 337.479 133.417 335.348 135.013C333.595 136.324 331.962 137.791 330.076 138.916C328.266 139.995 326.376 140.677 324.658 141.872C324.692 141.848 322.424 142.664 322.868 142.812C320.877 142.146 322.98 139.798 323.553 139.326ZM350.833 138.074C353.264 137.105 355.642 135.929 358.187 135.278C359.457 134.953 360.761 134.709 362.075 134.855C362.299 134.464 362.596 134.378 362.968 134.596C363.258 135.042 363.64 135.384 364.115 135.623C364.84 136.18 367.51 136.909 366.976 138.14C366.624 138.954 363.947 139.022 363.213 139.204C360.999 139.756 358.934 140.997 356.653 141.301C356.439 141.33 355.74 141.071 355.732 141.072C354.842 141.266 354.102 142.19 353.337 142.633C351.691 143.585 349.327 143.745 348.145 145.389C351.972 147.984 355.292 145.411 358.657 143.452C360.673 142.279 362.836 141.433 365.039 140.68C366.19 140.288 367.351 139.879 368.518 139.535C369.001 139.359 369.497 139.232 370.006 139.154C370.48 139.06 370.819 139.233 371.024 139.672C372.435 139.625 372.555 138.74 373.404 140.391C374.601 142.718 372.77 142.6 371.049 142.886C368.663 143.281 366.236 144.173 363.884 144.764C363.342 144.901 358.586 146.003 358.58 146.042C358.365 147.543 372.014 146.153 373.186 145.928C375.253 145.53 377.471 144.401 379.612 144.673C381.255 144.882 385 147.293 382.378 148.896C381.862 146.425 380.09 148.465 379.165 149.299C377.932 150.409 376.167 150.302 374.477 150.737C372.165 151.331 366.248 153.559 364.606 150.718C365.126 153.208 355.693 151.943 354.397 151.861C353.132 151.78 351.501 152.049 350.279 151.688C349.482 151.453 349.039 150.935 348.289 150.818C348.105 151.016 347.885 151.151 347.628 151.223C347.248 151.03 346.905 150.786 346.599 150.489C344.073 149.328 340.164 148.687 341.568 144.988C342.892 141.5 347.623 139.354 350.833 138.074ZM374.51 140.229C374.573 140.012 374.636 139.795 374.699 139.577C374.706 140.243 376.295 140.528 376.112 141.391C375.705 143.302 373.872 140.43 373.714 140.117C373.98 140.155 374.244 140.192 374.51 140.229ZM384.209 143.404C384.393 144.187 386.505 145.854 385.982 146.238C385.149 145.106 382.847 145.62 384.209 143.404ZM348.575 214.831C349.349 213.298 351.687 215.91 351.44 213.291C352.711 213.406 351.917 214.373 353.441 213.948C354.012 213.789 354.398 213.156 355.093 213.01C355.279 212.971 356.08 213.035 356.357 213.026C357.273 212.998 360.864 212.896 358.392 211.694C359.776 210.78 359.946 211.244 361.194 212.082C360.874 210.35 362.711 211.333 363.566 211.549C362.956 210.561 364.47 209.51 364.961 208.842C364.785 209.871 364.878 211.023 366.366 210.365C366.737 210.201 366.654 209.474 366.948 209.355C367.487 209.138 367.788 209.534 367.981 209.511C368.171 209.49 368.572 209.597 368.971 209.446C369.49 209.251 369.24 208.554 369.898 208.45C370.327 208.383 370.64 209.013 371.163 209.018C371.432 209.021 371.88 208.748 372.085 208.763C372.12 208.765 372.376 208.149 372.69 208.134C373.15 208.111 373.337 209.342 373.504 209.581C374.308 210.722 375.378 211.465 376.611 212.074C374.38 214.119 369.879 213.903 367.073 214.592C365.553 214.966 364.257 215.505 362.866 216.2C362.531 216.418 362.242 216.686 362 217.003C361.803 216.873 361.606 216.742 361.409 216.611C360.647 216.658 359.926 216.281 359.068 216.426C356.419 216.873 354.344 218.858 351.652 219.3C350.442 219.499 349.448 219.776 348.66 218.727C347.968 217.808 348.082 215.81 348.575 214.831ZM344.942 202.606C345.543 203.114 344.82 204.767 345.983 204.587C346.808 204.46 346.643 203.18 347.291 202.909C348.142 202.553 348.656 203.397 349.456 203.319C350.947 203.172 350.862 201.87 349.602 201.298C350.912 200.952 351.331 202.501 352.491 202.487C354.015 202.469 353.651 200.672 354.948 200.374C355.509 200.244 355.322 201.069 355.686 201.172C356.415 201.376 356.923 201.025 357.567 200.715C358.144 200.439 358.555 199.904 359.186 199.723C359.473 199.64 360.202 199.792 360.413 199.638C360.837 199.329 361.217 198.124 361.635 197.964C361.55 197.997 362.919 198.683 363.116 198.748C362.995 199.256 362.717 199.317 362.279 198.929C362.279 200.078 365.471 200.436 364.816 199.016C366.542 199.731 365.257 200.099 365.085 201.096C365.016 201.497 364.782 201.486 364.852 201.91C364.884 202.105 365.788 201.937 365.777 202.203C365.701 203.917 360.238 204.444 359.203 204.596C357.06 204.909 355.032 205.435 352.967 206.084C351.429 206.566 348.778 207.949 347.141 207.863C344.788 207.74 344.481 204.669 344.942 202.606ZM339.684 185.115C339.11 183.209 340.951 179.27 343.349 179.762C343.938 179.883 344.084 180.372 344.541 180.588C345.179 180.891 346.218 180.732 346.772 181.045C348.013 181.748 347.387 183.538 348.631 184.185C346.667 184.661 340.595 188.146 339.684 185.115ZM341.956 192.524C342.802 192.069 344.173 192.011 344.75 191.136C345.037 191.335 345.58 192.543 346.095 192.358C346.336 192.272 346.585 191.617 346.567 191.618C347.026 191.605 347.117 190.984 347.819 191.053C348.463 191.118 349.184 191.892 349.757 192.18C349.659 190.262 350.15 190.078 351.706 189.051C352.047 188.826 352.332 187.981 352.647 187.64C352.345 189.653 353.104 189.664 354.712 189.967C356.728 190.346 357.983 191.428 358.791 193.376C357.074 193.041 354.858 193.444 354.181 195.29C352.81 192.786 347.828 196.242 346.216 196.95C345.019 197.475 343.628 198.181 342.625 196.957C341.918 196.094 342.323 195.057 342.338 194.291C342.342 194.05 342.591 194.036 342.568 193.678C342.539 193.221 341.943 193.038 341.956 192.524ZM360.294 231.91C359.841 232.081 357.506 232.178 357.491 231.404C357.478 230.721 361.612 231.41 360.294 231.91ZM356.502 229.408C354.735 230.497 352.759 226.659 352.109 225.554C353.962 225.791 354.867 224.241 355.959 223.063C356.997 225.338 358.574 224.136 360.233 223.376C362.189 222.479 364.333 222.473 366.337 221.753C366.963 221.529 367.539 221.195 368.15 220.938C368.641 220.754 369.131 220.566 369.619 220.373C369.966 220.06 370.089 219.675 369.988 219.219C369.824 218.836 369.936 218.593 370.324 218.493C370.786 218.631 371.256 218.711 371.738 218.733C372.51 218.579 373.62 217.851 372.688 217.065C373.687 216.158 374.687 217.06 375.649 217.458C375.42 216.806 375.193 216.154 374.964 215.503C375.441 215.705 376.858 217.685 377.002 217.674C377.918 217.605 377.823 216.376 378.349 215.88C378.652 216.255 378.739 219.047 379.933 218.106C380.443 217.704 379.344 216.335 379.074 216.023C380.439 216.331 381.631 217.961 382.001 219.227C381.352 219.321 380.753 219.19 380.202 218.835C379.85 220.598 383.113 219.884 383.641 220.804C384.675 222.607 377.947 223.859 377.07 224.026C375.316 224.361 373.246 224.485 371.638 225.263C370.098 226.007 369.733 226.22 367.933 226.36C365.878 226.519 363.874 227.196 361.886 227.723C360.161 228.18 358.031 228.465 356.502 229.408ZM394.054 164.881C395.676 164.297 401.141 161.267 402.532 162.615C402.385 162.472 403.535 164.848 403.523 164.699C403.622 165.935 403.592 166.432 402.07 167.024C400.981 167.448 400.032 166.547 399.052 166.905C397.975 167.298 398.728 167.994 398.174 168.48C397.567 169.013 396.396 169.243 395.64 169.476C393.79 170.048 391.926 170.525 390.085 171.141C386.338 172.393 382.371 173.559 378.521 174.445C375.644 175.107 370.761 176.752 368.11 174.809C367.851 175.914 367.218 175.763 366.34 175.924C365.651 176.05 364.405 176.391 363.793 176.409C362.774 176.438 359.94 176.171 360.33 174.741C360.223 175.135 362.534 173.787 362.134 173.703C363.116 173.91 362.798 173.416 363.602 173.141C364.652 172.782 365.75 172.801 366.823 172.421C369.526 171.463 371.794 170.219 374.648 169.618C381.166 168.247 387.765 167.144 394.054 164.881ZM132.753 312.585C132.225 312.599 131.814 311.099 133.421 312.17C133.199 312.309 132.976 312.447 132.753 312.585ZM120.061 310.643C119.342 310.827 119.056 310.426 119.202 309.441C120.204 309.046 120.49 309.446 120.061 310.643ZM110.262 308.634C110.078 307.755 110.729 307.558 111.319 307.163C111.26 308.327 111.26 308.327 110.262 308.634ZM85.6064 301.407C84.6132 301.189 83.2898 300.218 83.0622 301.849C82.896 301.471 82.0481 299.695 82.4122 299.284C82.6023 299.069 83.3221 300.064 83.2455 299.965C84.1148 298.207 85.6132 300.329 86.4507 300.956C86.1694 301.107 85.8877 301.257 85.6064 301.407ZM343.844 107.087C344.187 106.362 344.591 106.131 345.056 106.397C344.326 108.092 341.853 109.012 343.844 107.087ZM361.026 91.1679C361.639 92.3164 360.717 92.8018 360.06 93.7565C360.444 92.7268 360.711 92.0133 361.026 91.1679ZM435.703 203.274C437.912 203.274 442.618 202.108 443.951 204.633C444.832 202.917 445.835 206.135 446.6 206.651C446.686 206.71 447.237 206.288 447.493 206.443C447.879 206.677 448.213 207.314 448.434 207.693C449.101 208.835 449.388 210.192 449.758 211.448C445.899 211.448 441.942 210.55 438.087 210.223C435.556 210.009 433.075 210.002 430.54 210.139C430.037 210.166 429.037 210 428.606 210.094C428.168 210.191 427.375 211.082 426.893 210.939C427.642 212.346 437.241 215.751 437.973 214.193C437.105 213.668 435.178 213.265 435.18 211.997C435.181 210.575 436.988 210.578 437.945 210.619C440.039 210.711 443.545 211.408 444.403 213.585C444.771 214.518 444.884 216.868 444.48 217.769C444.219 218.351 443.777 219.051 443.077 219.169C442.79 219.217 442.377 218.836 442.333 218.845C440.897 219.15 438.238 220.303 436.671 218.677C435.541 220.139 430.1 218.542 428.433 217.99C425.52 217.026 421.508 215.701 419.738 212.983C417.581 209.669 421.967 206.868 424.485 205.522C427.927 203.681 431.86 203.276 435.703 203.274ZM450.406 210.936C451.084 211.127 451.761 211.318 452.438 211.51C452.257 212.697 449.585 211.758 450.406 210.936ZM470.88 254.101C471.088 249.343 469.713 245.153 468.918 240.551C468.722 239.411 468.923 237.416 468.056 236.478C467.228 235.581 465.381 236.311 465.307 234.725C464.492 235.68 464.575 235.879 463.57 234.781C463.753 235.252 463.78 235.731 463.65 236.218C463.026 235.861 460.767 234.675 460.957 236.297C459.099 235.886 459.637 234.724 458.577 233.837C458.427 233.711 457.822 234.159 457.586 233.968C457.16 233.623 456.949 233.309 456.59 232.864C456.133 233.416 455.511 233.815 454.953 234.252C454.628 233.545 453.997 233.026 453.237 232.854C453.947 234.34 455.702 236.264 453.295 237.109C451.858 237.613 449.504 236.995 447.982 237.113C442.342 237.55 436.164 236.321 430.71 234.977C425.107 233.597 419.442 231.648 414.403 228.8C413.329 228.193 412.653 227.474 411.728 226.721C410.829 225.989 410.175 225.873 409.094 225.405C407.149 224.562 405.37 223.211 403.89 221.704C400.708 218.465 397.752 214.229 398.638 209.487C399.522 204.761 402.77 201.067 406.247 197.954C410.353 194.278 414.989 191.209 419.909 188.735C422.109 187.629 427.736 183.474 429.909 185.905C431.298 187.458 430.517 189.44 428.619 189.785C428.151 189.871 427.662 189.556 427.188 189.772C426.506 190.082 426.746 190.449 426.464 190.708C425.975 191.157 425.455 191.858 424.725 192.248C422.174 193.608 419.708 194.685 417.27 196.341C416.147 197.104 415.065 197.433 414.074 198.099C413.089 198.761 412.865 199.856 411.54 199.18C412.012 201.108 409.178 203.171 408.068 204.352C406.348 206.18 404.285 208.513 405.088 211.218C406.659 216.513 413.758 220.534 418.302 222.862C423.972 225.766 430.224 228.078 436.537 229.035C439.676 229.51 442.919 229.804 446.081 230.105C448.543 230.34 452.322 229.48 454.093 231.698C454.148 229.112 462.223 229.34 463.941 229.01C460.495 217.231 453.729 206.759 446.496 196.974C442.946 192.171 439.46 187.231 435.413 182.828C430.983 178.008 425.922 173.7 421.113 169.265C411.68 160.565 401.013 152.801 390.157 145.962C379.327 139.138 368.111 132.423 356.246 127.558C342.694 122.001 328.427 118.347 314.144 115.234C316.082 112.765 319.233 111.561 321.714 109.755C322.583 109.123 323.757 107.605 324.885 107.398C326.107 107.173 327.069 108.487 327.939 109.147C330.435 111.041 332.162 110.237 335.021 110.123C336.732 110.054 340.783 111.007 341.505 108.693C342.464 109.97 341.073 110.994 340.361 111.93C340.879 112.653 341.297 111.903 341.809 111.79C341.967 111.66 342.124 111.528 342.282 111.398C342.536 111.03 342.765 111.028 342.969 111.39C343.274 111.85 343.581 111.748 343.891 111.085C343.976 111.032 344.06 110.978 344.145 110.925C344.515 110.728 344.872 110.417 345.215 110.172C347.814 108.315 350.129 106.733 352.998 105.365C355.406 104.217 354.111 102.021 355.699 100.47C356.059 100.119 356.663 100.295 357.048 99.9976C357.424 99.7054 357.48 99.3742 357.755 99.0612C358.415 98.3086 357.629 97.4351 359.313 98.3565L358.705 94.9393C362.006 98.1414 361.993 88.9268 362.444 87.5633C362.385 87.7435 362.74 86.3482 362.74 86.3601C362.837 83.595 363.214 81.5909 359.976 81.4304C361.202 80.6591 361.577 82.1653 362.143 80.606C362.426 79.8247 361.541 78.482 362.952 78.9856C363.249 77.3252 362.955 75.9815 362.586 74.3679C362.206 72.7164 362.429 71.6143 362.447 69.9627C362.466 68.0893 361.589 66.2065 361.308 64.3617C361.088 62.9169 361.315 60.6383 359.447 61.169C359.185 60.758 360.107 59.494 360.069 58.869C360.011 57.8981 358.957 56.9117 358.659 55.9794C358.22 56.4325 357.601 56.5836 357.004 56.3789C357.565 55.1122 357.038 54.6867 356.501 53.5945C356.193 52.969 356.379 52.2784 355.72 51.8299C355.343 51.5726 354.699 52.006 354.403 51.7044C353.769 51.0586 354.003 50.2018 353.567 49.3508C353.019 48.2836 351.769 47.4685 350.907 46.6674C346.063 42.1648 340.802 38.7237 334.358 36.9643C327.857 35.1893 320.279 34.5534 313.8 36.6008C311.211 37.419 308.912 37.3351 306.581 38.8633C305.825 39.3591 305.744 39.2263 305.36 40.0528C305.272 40.2455 306.076 40.7586 305.584 41.0737C305.048 41.4159 304.457 40.72 304.184 40.1424C300.812 42.583 297.653 45.8367 295.732 49.5674C293.824 53.2747 293.649 57.6299 292.92 61.6586C289.56 57.819 285.014 55.9784 280.072 57.8242C275.764 59.4325 272.426 62.9679 271.583 67.5481C271.069 70.3403 271.63 73.1679 272.899 75.6872C273.447 76.7758 274.111 77.981 275.119 78.7138C275.917 79.2929 277.282 79.2117 277.658 80.2565C278.234 81.857 274.91 85.3138 274.047 86.7148C272.486 89.2502 271.035 91.8685 269.931 94.6377C265.972 89.0455 262.182 82.9377 257.681 77.7815C253.432 72.9148 248.368 68.5502 243.401 64.4367C233.091 55.8992 222.372 47.8784 210.839 41.0768C200.101 34.7435 187.13 31.2273 174.616 32.4705C162.388 33.6857 153.027 41.419 145.149 50.3383C130.002 67.4877 120.725 91.931 119.819 114.76C119.547 121.617 120.069 128.386 121.763 135.037C122.569 138.204 122.452 141.32 122.921 144.527C123.45 148.146 124.365 151.752 125.25 155.297C128.621 168.8 132.916 182.293 137.735 195.35C140.241 202.139 143.273 208.777 147.374 214.764C149.268 217.529 151.723 219.693 153.761 222.319C155.739 224.866 156.261 227.992 156.696 231.117C157.739 238.61 158.43 246.135 159.057 253.672C159.324 256.866 159.635 260.033 160.057 263.204C160.426 265.97 159.499 265.834 157.172 266.773C157.644 264.288 146.528 265.979 145.479 266.149C144.337 266.333 143.127 266.336 142.228 266.483C141.222 266.646 140.238 266.883 139.079 266.85C137.377 266.801 134.189 266.366 133.539 268.539C133.091 266.019 130.136 268.775 132.323 268.307C130.078 268.558 127.788 268.14 125.517 268.352C122.914 268.593 120.288 268.824 117.703 269.215C115.904 269.488 114.187 270.181 112.384 270.382C110.077 270.64 107.67 270.616 105.341 270.821C96.7497 271.579 87.845 273.453 79.4939 275.599C77.6023 276.085 75.4288 276.43 73.6215 277.21C73.1377 277.418 72.7023 277.885 72.2387 278.064C71.4616 278.364 71.5679 278.157 70.8778 278.294C66.7429 279.121 62.4773 280.471 58.3429 281.53C56.0497 282.118 52.3194 282.649 50.4486 284.249C49.6101 284.966 48.8773 286.237 50.221 287.052C51.2944 287.702 52.8267 286.664 53.6955 286.102C52.9215 288.119 51.4616 289.125 52.2502 291.419C52.8726 293.233 54.2778 295.468 56.4398 294.298C56.7293 294.972 56.8465 296.311 57.6991 296.559C58.4653 296.781 59.02 295.81 59.7705 296.039C60.0392 296.121 59.9372 296.628 60.1778 296.761C60.5924 296.989 61.0127 297.086 61.4877 297.247C61.896 297.386 62.5533 297.67 62.9793 297.7C63.2497 297.719 63.8866 297.257 63.8846 297.257C64.5054 297.351 64.8392 298.539 65.2861 298.883C65.8663 299.328 66.3455 299.43 67.0721 299.591C68.5825 299.927 70.5293 300.502 71.5262 298.955C71.2981 300.06 72.7997 299.951 73.4622 300.091C73.3887 299.51 73.0674 298.977 72.5715 298.658C74.0528 298.755 73.4523 300.228 74.5471 300.617C75.3273 300.893 75.2387 300.19 75.8356 300.112C76.6221 300.01 77.2189 300.58 78.4471 300.054C78.7132 301.237 78.8106 302.429 80.2632 302.606C81.1158 302.71 83.1038 301.17 82.9913 302.451C84.896 301.893 85.6189 302.271 86.6142 303.949C86.7825 302.918 87.5965 303.217 88.3434 303.154C89.5273 303.053 89.5575 303.148 90.4752 302.478C90.559 302.417 91.2809 300.763 91.6017 301.791C91.746 302.251 90.7924 303.335 90.4392 303.61C90.8778 303.832 92.3148 304.609 92.8674 304.466C93.3455 304.342 93.3471 303.525 93.9215 303.483C93.7809 303.953 93.6408 304.423 93.4997 304.893C94.6174 305.055 95.5512 304.308 96.434 303.76C97.2757 305.888 99.6814 304.689 100.99 306.29C101.682 307.138 101.714 307.781 103.033 308.003C104.382 308.229 105.561 307.637 106.708 308.75C106.344 308.06 105.439 307.487 106.339 306.744C106.951 307.614 107.267 308.661 107.974 309.469C108.071 309.058 108.168 308.647 108.266 308.236C110.107 310.205 112.425 310.222 114.783 311.314V309.873C116.472 312.45 116.562 310.819 118.579 309.766C118.442 310.524 118.304 311.282 118.167 312.039C119.619 311.93 120.975 313.65 122.167 312.189C122.887 313.396 123.759 312.802 124.939 313.185C125.61 313.403 126.109 314.064 126.762 314.303C127.74 314.661 128.032 314.644 128.954 314.956C129.773 315.234 130.239 315.773 131.264 315.946C131.93 316.059 132.535 316.05 133.172 316.02C133.418 316.008 133.337 315.453 133.885 315.582C134.731 315.783 135.361 316.844 135.97 317.389C136.887 315.085 139.454 318.171 140.694 318.582C140.813 317.991 140.792 317.279 141.219 316.794C141.722 317.894 141.913 318.818 142.955 319.527C143.557 319.936 144.44 320.228 145.135 320.378C145.574 320.472 146.372 320.359 146.648 320.494C147.119 320.725 147.292 321.341 147.768 321.399C148.048 321.433 148.462 320.697 148.672 320.754C149.63 321.016 150.162 322.18 151.13 322.81C154.01 324.683 157.634 324.865 160.842 325.276C161.647 325.378 161.764 325.159 162.418 325.631C162.767 325.884 162.609 326.651 163.038 326.866C164.655 327.677 164.656 325.948 164.995 324.873C165.53 325.579 165.622 326.511 166.354 327.072C166.753 327.061 167.153 327.069 167.552 327.099C167.777 327.356 167.925 327.652 167.994 327.988C168.963 328.642 170.06 328.415 171.061 328.906C171.389 329.067 171.97 330.04 172.374 330.32C173.098 330.821 174.216 331.089 175.043 331.306C176.776 331.763 179.262 331.156 180.293 332.966C181.662 331.499 181.132 333.251 182.062 333.619C182.611 333.837 183.437 332.973 184.045 333.059C185.142 333.213 185.537 334.4 185.888 335.263C186.555 335.114 186.097 333.225 186.078 332.811C186.908 332.713 187.092 334.898 187.236 335.378C188.545 334.747 186.395 332.784 187.804 332.154C187.675 333.827 189.007 335.204 186.627 335.443C186.956 336.451 194.633 337.569 195.166 336.68C195.285 338.324 196.389 336.789 196.796 336.226C196.842 337.185 196.515 338.546 197.591 338.992C198.323 339.295 199.972 338.512 200.259 337.795C200.586 338.89 201.135 338.854 201.817 339.55C202.286 340.027 202.595 340.855 203.087 341.255C203.991 341.991 205.674 341.879 206.728 341.714C208.791 341.392 208.547 340.997 209.282 343.141C209.448 342.327 209.969 340.626 210.877 341.891C211.455 342.694 210.225 344.466 209.869 345.172C210.664 344.735 211.453 344.217 212.357 344.029C212.407 344.308 212.454 344.899 212.32 345.157C212.348 345.105 213.312 345.752 213.67 345.931C213.584 345.888 213.953 344.277 213.942 344.33C215.215 345.115 214.332 346.617 215.459 347.391C215.75 347.592 216.434 347.358 216.786 347.48C217.399 347.692 217.929 348.267 218.474 348.603C218.039 348.02 218.101 347.04 218.131 346.367C218.408 346.52 218.606 347.093 218.886 347.138C218.991 347.155 220.088 347.301 220.08 347.296C221.222 348.094 220.987 348.195 220.007 349.156C220.357 349.706 221.82 348.75 222.216 348.591C222.299 348.806 222.32 349.588 222.476 349.727C222.57 349.959 222.665 350.19 222.76 350.421C223.052 350.203 223.365 350.13 223.7 350.203C223.911 350.276 225.562 350.948 225.674 350.718C225.313 350.601 224.985 350.422 224.692 350.181C225.645 349.325 226.272 348.869 227.149 350.106C227.26 350.262 226.88 350.821 226.992 351.024C227.412 351.78 228.273 352.382 228.858 352.998C229.1 352.148 228.537 350.018 229.881 350.096C230.956 350.157 231.773 352.76 231.401 353.569C231.828 353.102 234.378 352.638 234.86 352.784C236.22 353.197 235.839 354.455 237.513 352.611C238.655 353.399 237.649 353.698 237.854 354.658C238.156 354.721 238.441 354.647 238.712 354.435C238.51 358.516 241.522 355.398 243.477 356.021C244.245 356.266 244.441 357.137 245.265 357.392C245.701 357.526 246.186 357.208 246.61 357.286C246.95 357.237 247.287 357.177 247.623 357.106C248.048 356.893 248.247 357.131 248.221 357.821C248.904 358.175 248.646 358.313 249.445 358.382C249.96 358.427 250.433 357.891 251.018 357.983C252.027 358.141 251.893 358.915 252.538 359.32C253.118 359.685 253.773 359.673 254.487 359.602C254.851 359.566 255.874 359.097 255.997 359.096C256.76 359.085 256.346 358.923 257.263 359.578C257.976 360.09 258.276 360.421 259.152 360.656C260.156 360.926 261.939 361.515 262.615 360.789C263.528 362.158 264.243 361.153 265.448 361.243C266.065 361.29 266.163 361.53 266.712 361.626C267.601 361.781 268.711 361.647 269.657 361.951C271.149 362.43 271.317 362.671 272.841 362.735C273.116 362.628 273.391 362.52 273.665 362.413C273.748 362.872 273.964 363.246 274.314 363.536C275.167 363.715 275.727 363.285 276.43 362.813C276.954 364.445 278.654 364.588 280.108 364.802C282.454 365.149 284.698 365.338 286.961 366.109C288.872 366.76 290.786 367.491 292.624 368.325C294.242 369.059 295.768 370.156 297.599 369.641C301.745 368.474 305.764 364.217 309.234 361.773C313.343 358.878 317.775 356.492 322.068 353.89C339.162 343.528 357.221 334.763 374.075 324.016C383.277 318.149 391.815 311.178 401.697 306.431C400.29 312.244 397.895 318.145 398.328 324.231C398.502 326.684 399.224 329.581 401.126 331.293C403.478 333.41 406.097 332.062 408.346 330.55C413.165 327.31 416.379 322.581 419.986 318.142C424.252 312.89 427.561 307.247 430.693 301.261C431.444 302.315 430.873 304.08 430.884 305.248C430.899 306.739 431.301 308.175 431.992 309.506C433.776 312.94 437.172 313.773 440.24 311.42C446.145 306.891 449.573 298.826 452.737 292.331C454.541 295.689 457.103 299.915 461.437 297.517C465.013 295.538 467.114 291.117 468.207 287.372C471.401 276.441 470.389 265.306 470.88 254.101Z" fill="#242424"/>
<path fill-rule="evenodd" clip-rule="evenodd" d="M465.457 188.44C465.049 187.45 464.87 187.612 465.62 186.651C466.204 187.227 465.736 187.702 465.457 188.44ZM483.53 248.395C482.383 245.135 483.091 241.594 482.395 238.25C482.075 236.715 481.57 235.227 481.388 233.665C481.308 232.972 480.69 229.851 481.111 229.36C479.817 228.577 479.813 227.997 479.514 226.461C479.975 225.972 479.917 225.555 479.34 225.209C478.963 224.752 478.585 224.296 478.208 223.839C479.858 224.646 478.882 222.581 478.713 221.391C478.58 220.45 478.49 219.469 478.177 218.568C477.791 217.459 476.933 216.899 478.718 216.899C478.131 216.231 477.252 215.541 476.959 214.723C476.538 213.545 477.233 211.989 476.374 210.949C475.896 210.369 473.428 210.141 473.861 208.888C474.082 208.25 475.082 208.726 475.391 208.279C476.607 206.521 473.016 205.792 472.84 205.044C472.612 204.074 473.909 203.858 473.989 202.951C474.066 202.063 472.687 200.605 472.322 199.811C471.825 199.932 471.281 200.718 470.712 200.343C470.604 200.272 470.766 197.199 470.637 196.791C470.51 196.39 470.25 195.327 470.157 195.13C469.789 194.348 468.735 193.968 468.568 193.044C468.468 192.493 470.627 191.659 468.151 191.633C469.04 190.065 467.411 189.112 466.818 187.773C466.055 186.05 465.606 184.19 464.822 182.459C464.061 180.776 463.209 179.179 462.111 177.691C461.118 176.344 460.688 175.048 459.894 173.625C459.735 173.5 459.576 173.375 459.417 173.25C458.755 173.346 458.542 173.044 458.78 172.345C458.273 171.594 457.896 170.793 457.449 170.009C456.93 169.098 456.23 168.356 455.693 167.47C454.981 166.295 454.771 164.971 453.966 163.792C452.977 162.343 451.864 161.065 450.947 159.561C449.798 157.677 448.526 156.507 447.08 155.048C446.392 154.353 446.309 152.618 445.466 151.631C444.548 150.557 443.641 150.265 443.005 148.855C442.176 147.02 440.961 146.144 439.778 144.558C438.802 143.25 438.326 141.746 437.251 140.481C436.326 139.394 435.277 138.4 434.29 137.37C433.044 136.068 432.124 134.486 430.827 133.249C431.014 133.427 429.699 132.385 429.765 132.418C429.474 132.27 428.534 132.15 428.671 132.231C426.714 131.081 424.261 126.87 421.316 129.101C419.766 130.274 420.51 132.426 421.592 133.595C422.056 134.097 424.47 136.572 424.991 135.528C425.555 136.326 427.288 140.184 428.731 139.078C428.584 140.397 429.347 139.959 429.851 140.85C430.183 141.438 430.022 141.727 430.263 142.645C430.928 145.167 433.466 147.632 434.818 149.832C438.182 155.307 441.893 160.5 445.26 165.982C448.469 171.207 452.062 176.164 455.141 181.459C458.643 187.479 463.005 193.163 465.643 199.653C465.732 199.872 466.465 200.217 466.647 200.545C466.964 201.114 466.896 202.098 467.1 202.743C467.808 204.978 468.955 207.179 470.262 209.031C471.409 210.655 471.493 212.863 472.282 214.769C473.395 217.454 474.57 220.112 475.651 222.812C477.334 227.013 478.474 231.04 479.637 235.427C480.391 238.27 480.99 241.111 481.231 244.046C481.451 246.746 481.506 249.558 482.504 252.113C483.186 251.061 483.988 249.698 483.53 248.395Z" fill="#242424"/>
<path fill-rule="evenodd" clip-rule="evenodd" d="M98.5621 306.24C97.3527 305.995 96.2147 305.669 95.9584 304.281C95.7829 304.935 95.6079 305.59 95.4324 306.245C96.9048 306.578 98.3777 306.912 99.8501 307.245C99.5063 306.64 99.2553 306.38 98.5621 306.24Z" fill="#242424"/>
<path fill-rule="evenodd" clip-rule="evenodd" d="M101.807 78.3536C101.899 77.9619 102.017 77.5781 102.164 77.2036C102.263 77.5687 102.751 78.3583 102.467 78.7026C102.105 79.1395 101.74 78.8921 101.807 78.3536ZM107.736 67.0734C108.133 67.2484 108.991 67.2822 109.484 67.4302C108.206 68.5296 107.981 68.2062 106.328 68.0786C106.255 66.9661 106.707 66.6208 107.736 67.0734ZM96.657 94.614C96.8283 94.6187 97.0002 94.6229 97.1726 94.627C97.183 94.1427 97.1705 93.6588 97.1341 93.1755C98.8768 93.5562 97.8903 90.5109 97.3429 89.8796C99.0429 89.9364 99.8711 84.5541 100.41 83.5171C100.888 82.5963 101.429 82.2401 101.779 81.1171C102.085 80.1343 102.415 79.2499 102.856 78.3203C103.87 76.1828 105.2 74.2416 104.954 71.7505C105.813 73.6197 106.568 71.7536 107.113 70.8598C107.991 69.4197 110.132 67.5822 110.36 65.8718C110.561 64.3661 109.442 64.2864 110.102 62.8901C110.77 61.4765 111.319 61.6182 112.489 61.1661C113.267 60.8651 113.422 61.2307 113.971 60.2484C114.326 59.6124 114.201 59.1385 114.656 58.6171C114.844 58.7807 115.059 58.8484 115.298 58.8203C115.668 58.3322 115.911 57.7885 116.026 57.189C116.327 56.3796 116.473 55.6364 116.927 54.8656C117.358 54.1354 118.123 52.1817 118.528 51.8296C118.958 51.4557 121.398 51.6458 121.388 51.6593C122.396 50.3916 120.546 49.1286 123.107 49.3958C122.601 48.4541 124.378 47.2854 124.893 46.7614C126.181 45.4536 126.284 44.8484 126.556 43.2036C126.694 42.3651 125.793 42.4619 127.001 42.2708C127.5 42.1921 127.979 42.8307 128.34 42.7369C129.931 42.3244 128.266 42.4031 128.705 41.7546C128.844 41.5489 129.552 40.7187 129.545 40.7276C129.511 40.7692 129.704 40.0052 129.865 39.8088C130.169 39.7828 130.468 39.7296 130.763 39.6494C130.912 39.3473 131.044 39.038 131.159 38.7213C132.311 37.7609 134.034 37.3312 134.83 36.276C135.345 35.5937 135.191 34.9255 135.856 34.2453C136.49 33.5973 137.329 34.0666 137.454 32.6031C137.614 30.7411 135.614 29.9124 134.796 31.7916C132.577 29.0588 123.303 39.0854 122.232 40.3953C117.578 46.0817 113.004 51.9088 109.187 58.1968C105.468 64.3239 102.415 70.7708 100.029 77.5286C98.8789 80.7869 98.1783 84.0307 97.4757 87.401C97.2398 88.5296 95.4768 93.5593 96.2106 94.6848C96.3591 94.6614 96.508 94.6374 96.657 94.614Z" fill="#242424"/>
<path fill-rule="evenodd" clip-rule="evenodd" d="M462.962 234.062C463.746 233.539 463.746 233.539 463.883 232.551C462.832 232.743 462.832 232.743 462.962 234.062Z" fill="#242424"/>
<path fill-rule="evenodd" clip-rule="evenodd" d="M76.588 300.533C76.5977 300.532 76.6049 300.534 76.6105 300.54C76.5941 300.519 76.5348 300.457 76.588 300.533Z" fill="#242424"/>
<path fill-rule="evenodd" clip-rule="evenodd" d="M76.0624 301.063C76.3046 301.587 76.6936 301.717 77.2301 301.453C77.4415 301.755 75.3957 299.568 76.0624 301.063Z" fill="#242424"/>
<path fill-rule="evenodd" clip-rule="evenodd" d="M111.44 62.1595C110.213 64.5663 111.75 62.8158 111.672 63.5976C111.723 63.084 111.936 62.3523 111.44 62.1595Z" fill="#242424"/>
<path fill-rule="evenodd" clip-rule="evenodd" d="M311.019 99.4102C311.551 103.726 317.455 101.685 318.783 99.0743C319.751 97.1737 322.193 89.6638 319.565 88.0774C317.617 86.9013 317.201 91.9701 316.721 93.1024C315.916 94.9987 315.288 93.655 313.499 94.1414C311.524 94.6784 310.8 97.6206 311.019 99.4102Z" fill="#242424"/>
<path fill-rule="evenodd" clip-rule="evenodd" d="M304.568 91.5111C306.679 91.9798 308.748 91.7382 310.247 90.0715C311.077 89.1486 312.181 87.3179 310.687 86.4246C309.332 85.6158 307.796 87.5101 306.369 87.1184C304.429 86.5856 305.428 84.5054 304.763 83.1314C302.317 84.5397 300.952 90.708 304.568 91.5111Z" fill="#242424"/>
<path fill-rule="evenodd" clip-rule="evenodd" d="M306.757 102.408C304.722 102.404 304.705 104.906 305.767 105.978C306.784 107.005 309.353 108.043 310.731 107.245C313.449 105.67 308.403 102.571 306.757 102.408Z" fill="#242424"/>
<path fill-rule="evenodd" clip-rule="evenodd" d="M188.387 201.907C188.822 202.118 190.102 203.203 190.642 202.713C189.88 201.946 189.118 201.179 188.357 200.411C187.936 200.873 187.647 201.547 188.387 201.907Z" fill="#242424"/>
<path fill-rule="evenodd" clip-rule="evenodd" d="M178.773 92.1353C178.557 92.2968 178.341 92.4577 178.124 92.6186C178.854 93.2265 178.836 93.4072 179.571 92.8317C179.353 92.5442 179.087 92.3124 178.773 92.1353Z" fill="#242424"/>
<path fill-rule="evenodd" clip-rule="evenodd" d="M316.653 235.32C316.245 234.586 315.472 235.94 314.95 236.16C314.1 236.518 313.402 234.622 313.646 236.895C311.725 236.015 310.559 238.033 309.32 239.084C307.569 240.57 305.428 241.375 304.26 243.485C309.756 244.771 315.796 240.032 319.894 236.92C320.563 236.411 323.905 233.847 321.64 233.599C320.713 233.498 317.341 236.555 316.653 235.32Z" fill="#242424"/>
<path fill-rule="evenodd" clip-rule="evenodd" d="M315.023 230.871C316.1 230.023 313.778 229.946 313.411 229.857C313.442 230.531 313.473 231.205 313.505 231.879C314.025 231.564 314.531 231.228 315.023 230.871Z" fill="#242424"/>
<path fill-rule="evenodd" clip-rule="evenodd" d="M310.979 233.7C311.3 233.499 312.198 232.871 311.587 232.403C311.036 232.754 310.642 233.327 310.555 233.981C310.696 233.887 310.837 233.793 310.979 233.7Z" fill="#242424"/>
<path fill-rule="evenodd" clip-rule="evenodd" d="M221.962 179.008C221.274 179.277 220.966 179.704 221.038 180.288C222.095 180.072 221.894 179.074 221.962 179.008Z" fill="#242424"/>
<path fill-rule="evenodd" clip-rule="evenodd" d="M113.845 204.192C114.147 203.487 114.447 202.782 114.749 202.078C115.123 203.307 115.227 203.918 113.845 204.192ZM114.246 207.448C113.592 207.564 113.85 205.525 113.85 205.169C114.98 205.805 114.044 206.567 114.246 207.448ZM113.226 201.564C113.784 201.237 114.342 200.91 114.899 200.582C114.123 202.012 114.427 201.119 114.748 202.074C114.162 202.241 113.593 202.046 113.226 201.564ZM109.922 212.741C107.831 220.279 101.192 226.223 94.1799 229.303C90.1504 231.072 86.1888 231.514 81.8373 231.317C80.159 231.241 78.1841 230.699 76.569 230.8C75.3254 230.878 75.3814 230.931 74.3514 231.977C73.8957 231.143 74.2258 230.558 73.3117 230.072C72.1711 229.467 71.6976 230.172 71.1319 231.011C70.3914 230.248 70.0883 229.85 69.1289 229.397C69.1591 229.412 68.2105 229.376 68.2494 229.387C68.0779 229.335 67.0462 228.676 66.7232 228.556C65.3976 228.061 63.865 227.858 62.6419 227.149C61.5719 226.53 60.6907 224.792 59.4665 226.127C59.4655 223.896 56.4406 222.97 55.0228 221.801C52.8074 219.974 51.0461 217.27 49.9416 214.653C48.7638 211.863 48.3707 209.189 47.8195 206.314C47.4345 204.305 44.9128 201.401 46.4271 199.373C46.7879 200.224 46.6185 201.094 47.2177 201.865C47.757 200.832 48.0536 199.676 48.2973 198.546C48.4171 197.992 49.1106 196.367 49.0319 195.885C48.8717 194.897 47.6421 194.844 48.3238 193.633C49.7378 195.163 50.8789 192.477 49.8106 191.407C49.2832 191.998 49.0896 192.67 48.8463 193.402C47.4561 190.612 51.3039 191.511 50.462 188.993C51.8663 188.724 52.6737 188.373 53.2076 186.993C53.8013 185.459 53.3645 185.124 54.7127 184.11C55.1765 183.762 56.488 183.261 56.728 182.687C57.1924 181.579 56.0108 181.251 57.0457 180.212C57.3951 180.822 58.7574 182.028 59.5032 180.88C59.6526 180.651 59.0254 180.489 59.4816 179.962C60.1574 179.181 60.9134 178.416 62.0562 178.58C61.1513 176.331 66.9335 176.153 68.4144 175.623C69.8985 175.091 71.1577 174.743 72.7314 174.619C74.3034 174.496 74.3816 174.038 75.7126 173.098C75.8253 174.443 76.151 174.148 77.1136 174.385C77.345 173.991 77.5823 173.946 77.825 174.252C78.0666 174.48 78.3621 174.588 78.7105 174.575C79.239 174.602 79.8387 174.533 80.3925 174.545C81.6927 174.57 83.0339 174.462 84.3094 174.49C84.6383 174.435 84.9457 174.321 85.2337 174.148C85.354 174.373 85.4748 174.599 85.5945 174.825C86.2702 174.909 86.3225 175.75 87.1536 174.83C87.3995 176 88.1059 175.391 88.8523 175.708C89.5329 175.998 89.6413 176.462 90.2696 176.785C90.6827 177.118 91.1254 177.162 91.5989 176.918C92.0492 177.249 92.5065 177.572 92.9703 177.884C93.8251 178.364 94.8325 178.658 95.7331 179.036C96.3322 179.282 96.9276 179.538 97.5181 179.802C97.5359 180.511 97.8557 180.761 98.477 180.553C99.0384 181.02 99.1964 181.001 99.7411 181.796C100.975 183.598 102.07 184.997 103.628 186.607C110.402 193.608 112.483 203.504 109.922 212.741ZM112.001 182.974C108.942 178.904 104.614 174.243 100.724 171.672C98.752 170.369 95.9844 168.029 93.5732 167.34C93.0016 167.176 92.41 167.166 91.8481 166.994C91.4139 166.862 91.1777 166.419 90.6827 166.339C90.3364 166.283 90.2981 167.054 89.9304 166.983C89.1613 166.834 88.6738 166.075 88.1307 165.601C86.9643 167.599 86.3311 164.239 84.6184 166.498C82.5799 163.321 77.791 164.016 74.5358 164.176C73.5705 164.223 73.117 164.564 72.2611 164.817C71.4646 165.053 71.3859 164.992 70.516 164.986C68.3497 164.969 66.4266 165.24 64.4242 166.185C61.0601 167.773 57.9722 170.248 54.7769 172.162C51.2057 174.301 47.9867 177.024 45.2547 180.153C35.3782 191.466 32.7373 207.978 40.6125 221.093C53.1213 241.923 85.3874 244.149 103.671 230.016C117.796 219.096 123.172 197.84 112.001 182.974Z" fill="black"/>
</g>
<defs>
<clipPath id="clip0_14_340">
<rect width="533.333" height="400" fill="white"/>
</clipPath>
</defs>
</svg>
