<svg width="534" height="452" viewBox="0 0 534 452" fill="none" xmlns="http://www.w3.org/2000/svg">
<circle cx="280" cy="205" r="195" fill="#F2FFF3"/>
<g clip-path="url(#clip0_40_2)">
<path fill-rule="evenodd" clip-rule="evenodd" d="M157.944 271.309C160.416 289.847 162.887 308.384 165.359 326.922L167.355 341.891C167.607 343.781 167.369 347.507 168.329 349.198C168.668 349.794 169.559 350.077 170.214 350.429C172.47 351.64 174.725 352.851 176.981 354.062C196.059 364.305 215.137 374.547 234.214 384.79C252.523 394.62 270.833 404.45 289.141 414.28C291.036 415.297 294.101 417.951 296.146 417.252C298.09 416.587 300.077 414.948 301.843 413.914C305.231 411.928 308.619 409.943 312.008 407.957C332.511 395.941 353.013 383.925 373.516 371.909C381.976 366.952 390.435 361.995 398.894 357.037C401.208 355.681 403.523 354.324 405.838 352.968C407.048 352.258 407.206 352.283 407.682 351.079C409.463 346.577 410.288 341.421 411.549 336.75C412.938 331.602 414.327 326.455 415.716 321.308C416.335 319.011 416.045 318.714 415.034 316.497C413.035 312.109 411.036 307.721 409.037 303.333C404.6 293.593 400.164 283.854 395.726 274.114C393.932 270.175 389.61 267.404 386.499 264.507L338.188 219.528C336.961 218.386 335.734 217.244 334.507 216.101C334.305 222.968 332.948 230.349 334.938 236.983C338.204 247.869 341.47 258.755 344.735 269.64C346.314 274.902 347.892 280.164 349.471 285.425C349.764 286.403 351.549 290.28 351.072 291.139C350.808 291.616 348.552 292.098 348.064 292.284C345.965 293.082 343.867 293.881 341.768 294.679C335.921 296.903 330.074 299.128 324.227 301.352C318.969 303.353 313.71 305.353 308.451 307.354C306.668 308.033 304.573 309.289 302.69 309.184C301.005 309.09 299.089 308.257 297.459 307.837C294.593 307.099 291.726 306.36 288.86 305.622C283.23 304.172 277.599 302.722 271.969 301.271C265.635 299.639 260.285 294.847 254.868 291.3C245.557 285.203 236.245 279.107 226.934 273.01C224.802 271.614 224.795 270.818 223.945 268.27C222.036 262.543 220.127 256.815 218.218 251.088C217.199 248.031 215.945 244.96 215.175 241.829C213.906 236.662 213.152 231.314 212.147 226.09C211.844 224.514 211.54 222.937 211.237 221.361C207.337 222.944 203.438 224.526 199.538 226.109C198.973 226.338 196.219 227.022 195.974 227.584C195.819 227.939 196.638 229.551 196.755 229.898C199.988 239.474 203.222 249.05 206.456 258.626C207.473 261.639 208.489 264.651 209.507 267.663C207.076 263.844 204.646 260.024 202.215 256.205C200.306 262.628 198.396 269.052 196.486 275.476C191.972 270.268 187.458 265.059 182.944 259.851C181.382 265.059 179.819 270.268 178.257 275.476C173.396 269.052 168.535 262.628 163.673 256.205C163.096 259.557 162.518 262.909 161.939 266.261C161.765 267.273 161.8 270.176 161.126 270.977C160.572 271.636 158.975 271.309 157.944 271.309Z" fill="#079911"/>
<path fill-rule="evenodd" clip-rule="evenodd" d="M465.723 311.38C465.449 320.106 465.639 331.434 460.863 339.106C460.092 340.344 457.481 344.201 457.19 340.808C456.904 337.477 457.724 334.178 456.912 330.808C456.477 329.005 455.016 325.066 452.519 326.695C451.247 327.525 450.911 329.575 450.413 330.868C449.677 332.783 448.852 334.666 448.076 336.566C445.368 343.197 442.562 351.11 436.541 355.498C437.329 349.78 439.477 343.675 438.033 337.895C437.541 335.925 436.051 332.328 433.485 333.483C430.983 334.607 429.363 339.625 428.182 341.859C424.604 348.634 420.944 355.28 416.915 361.802C414.889 365.082 412.7 368.08 410.049 370.886C408.391 372.641 406.324 375.607 403.711 375.868C403.711 370.867 405.356 366.035 406.859 361.325C408.475 356.26 409.949 351.152 411.535 346.078C412.911 341.677 414.041 337.309 414.957 332.796C415.337 330.929 415.637 328.996 417.228 327.79C418.658 326.707 420.917 326.191 422.512 325.395C426.7 323.303 431.006 321.046 434.897 318.445C436.494 317.377 437.869 315.998 439.541 315.04C441.447 313.949 443.226 313.031 444.989 311.701C452.596 305.963 459.454 298.905 464.075 290.503C464.825 293.878 465.819 297.177 465.929 300.656C466.041 304.224 465.835 307.814 465.723 311.38ZM403.114 351.489C401.897 349.434 400.043 350.276 398.41 351.266C395.876 352.803 393.335 354.329 390.787 355.847C385.603 358.936 380.515 362.186 375.451 365.465C365.141 372.138 354.472 377.6 343.602 383.249C333.097 388.708 323.007 395.204 313.164 401.771C310.799 403.349 308.45 404.964 306.178 406.676C304.162 408.195 302.55 410.328 300.427 411.681C298.217 413.089 296.698 411.947 294.584 410.908C291.94 409.609 289.185 408.521 286.482 407.349C275.576 402.621 264.639 397.713 254.03 392.347C243.486 387.013 233.494 380.867 223.391 374.764C218.579 371.857 213.849 368.766 209.103 365.752C204.052 362.546 198.822 360.143 193.524 357.417C191.179 356.21 189.103 354.572 186.695 353.475C184.164 352.323 181.49 351.496 179.223 349.833C178.207 349.087 177.35 348.196 176.188 347.668C175.235 347.235 174.152 347.162 173.211 346.702C171.295 345.767 170.747 343.868 170.376 341.894C167.99 329.218 166.722 316.192 165.339 303.375C164.562 296.168 163.694 288.989 162.62 281.819C162.136 278.587 163.11 276.083 163.622 272.939C164.218 269.266 164.454 265.517 164.854 261.82C166.742 265.316 168.374 268.986 170.776 272.177C172.546 274.529 175.57 277.864 178.83 277.785C183.897 277.663 183.665 268.973 183.869 265.523C186.177 267.583 186.877 270.939 188.792 273.331C190.541 275.516 192.922 278.226 195.607 279.204C201.263 281.264 200.718 270.767 200.407 267.79C200.251 266.297 199.408 263.934 201.408 264.615C203.251 265.242 205.043 267.841 206.592 269.034C209.268 271.095 212.204 272.808 214.95 274.776C218.357 277.217 222.033 278.982 225.506 281.256C227.679 282.678 230.049 282.998 232.417 284.043C235.887 285.576 238.952 287.861 242.254 289.698C248.794 293.335 256.05 296.597 263.203 298.789C265.518 299.499 268.602 301.499 270.358 299.443C271.439 298.179 272.15 296.247 273.067 294.829C274.228 293.035 275.461 291.287 276.741 289.575C281.292 283.491 286.343 277.747 291.952 272.615C298.477 266.646 305.613 261.274 313.245 256.8C316.524 254.878 330.217 246.262 333.227 252.326C330.753 252.172 328.61 253.076 326.494 254.209C325.978 254.486 323.316 256.387 323.939 254.711C323.166 254.856 322.488 255.864 321.902 256.313C320.89 257.088 319.355 257.983 318.184 258.624C317.025 259.258 315.594 259.413 314.538 260.182C314.153 260.463 313.919 260.918 313.551 261.222L312.497 261.23C312.339 261.814 312.181 262.397 312.024 262.981C311.428 261.071 310.578 263.555 309.582 264.362C308.984 264.847 308.037 265.346 307.332 265.659C306.805 265.893 306.724 265.349 306.213 265.763C305.758 266.13 305.469 266.939 304.98 267.399C304.381 267.963 303.614 268.401 302.945 268.882C301.665 269.804 300.311 270.528 299.014 271.402C297.269 272.578 296.354 274.6 294.661 275.83C293.858 276.412 292.612 276.48 292.177 276.853C291.088 277.79 291.447 279.209 289.416 279.271C289.601 279.567 289.712 279.888 289.75 280.234C289.266 280.151 288.836 279.95 288.459 279.632C288.543 281.658 286.551 282.381 285.357 283.629C284.668 284.348 283.811 285.359 283.325 286.224C283.244 286.368 283.09 287.523 283.057 287.539C282.873 287.627 281.75 286.641 281.856 286.724C281.543 288.596 279.732 290.365 278.939 292.098C278.521 293.011 278.097 294.479 277.273 295.121C277.049 295.296 276.36 295.113 275.791 295.72C275.373 296.165 274.891 296.987 274.722 297.577C274.609 297.972 274.744 298.991 274.582 299.228C274.284 299.66 273.82 299.226 273.354 299.546C272.491 300.136 272.469 301.059 271.207 301.18C272.077 303.294 277.329 303.946 279.238 304.547C284.637 306.246 290.3 307.942 295.347 310.544C296.652 311.217 297.887 311.772 298.118 313.323C298.44 315.48 297.341 318.349 297.131 320.528C296.563 326.413 296.447 332.471 296.565 338.381C296.678 343.979 296.859 349.629 297.12 355.221C297.362 360.404 298.407 365.486 298.971 370.633C299.126 372.046 299.023 378.417 301.452 378.096C303.48 377.828 302.199 373.477 302.161 372.229C302.076 369.468 302.657 366.65 302.633 363.864C302.622 362.525 303.207 361.372 303.263 360.09C303.319 358.824 302.69 357.824 302.878 356.511C303.06 355.252 306.782 348.008 303.207 348.856C303.416 347.821 303.6 346.777 303.876 345.756C304.258 346.1 304.567 346.502 304.799 346.96C305.117 344.735 305.011 342.514 305.209 340.288C305.297 339.279 305.706 338.175 305.566 337.158C305.593 336.737 305.539 336.323 305.406 335.918C305.186 335.685 304.914 335.563 304.59 335.551C304.42 334.994 304.376 334.841 304.678 334.294C304.808 333.924 305.065 333.693 305.45 333.601C306.184 333.514 306.267 333.093 305.701 332.337C305.997 330.846 306.035 329.904 305.822 328.415C305.642 327.165 306.301 324.743 305.63 323.63C304.846 322.328 304.456 323.591 304.311 321.787C304.279 321.405 304.254 320.609 304.408 320.228C304.576 319.814 305.082 319.984 305.147 319.836C305.586 318.834 305.615 316.86 304.061 317.031C304.122 316.315 304.183 315.599 304.243 314.883C305.366 316.175 304.974 315.081 305.61 314.363C306.467 313.395 307.306 313.228 308.531 312.846C311.798 311.827 314.944 310.294 318.136 309.05C324.894 306.416 331.778 304.065 338.339 300.952C352.137 294.405 365.662 287.299 379.544 280.925C378.553 279.084 379.169 278.994 379.894 277.266C380.862 277.938 380.658 277.469 381.347 277.428C381.285 276.852 381.464 276.678 381.885 276.906C382.219 277.009 382.563 277.046 382.915 277.015C383.774 277.163 384.476 277.636 385.257 277.815C385.514 278.004 385.796 278.146 386.103 278.241C386.379 278.178 386.614 278.042 386.809 277.831C388.074 278.066 388.5 279.018 388.555 280.398C388.565 280.638 387.83 280.884 388.041 281.206C388.408 281.769 389.397 281.635 389.962 281.707C389.838 282.292 389.714 282.877 389.591 283.462C392.073 282.317 391.425 285.902 392.178 287.079C392.388 287.408 392.855 287.146 393.098 287.526C393.415 288.023 393.319 288.727 393.59 289.222C394.201 290.341 394.812 290.205 395.421 291.487C398.603 298.179 402.836 304.414 405.89 311.25C407.344 314.503 408.655 317.813 410.174 321.038C411.57 324.006 412.369 326.529 411.373 329.771C409.064 337.29 406.594 344.946 403.567 352.209C403.416 351.969 403.265 351.729 403.114 351.489ZM242.024 407.615C241.807 407.984 241.59 408.352 241.374 408.722C240.892 405.953 242.175 407.237 242.024 407.615ZM231.837 402.431C231.143 402.224 231.443 401.09 231.465 400.605C231.904 401.152 232.335 401.71 232.701 402.311C232.413 402.351 232.125 402.391 231.837 402.431ZM203.919 391.79C204.648 391.381 205.173 391.087 205.999 390.624C205.159 392.261 205.159 392.261 203.919 391.79ZM159.998 247.552C158.884 250.286 162.28 267.169 159.118 267.721C158.664 266.239 158.607 262.159 156.73 261.672C154.4 261.067 154.63 265.267 154.312 266.566C149.529 263.239 147.404 256.813 145.119 251.72C142.207 245.229 139.915 238.477 137.727 231.714C135.855 225.931 134.308 220.046 132.417 214.273C131.229 210.647 129.948 207.012 129.149 203.274C128.976 202.462 128.293 200.403 128.873 199.631C129.716 198.509 132.752 199.795 133.73 200.089C140.075 201.999 146.657 202.821 153.177 203.93C160.42 205.162 167.647 206.435 174.934 207.39C176.755 207.629 178.577 207.855 180.4 208.075C181.582 208.217 183.372 208.075 184.494 208.605C186.767 209.677 187.251 213.781 188.095 215.911C191.245 223.854 194.952 231.547 198.268 239.419C201.255 246.51 203.52 254.054 207.814 260.511C204.612 259.091 200.553 251.585 196.974 255.912C195.436 257.772 195.824 260.223 195.947 262.45C196.125 265.668 196.18 268.911 196.18 272.135C192.678 271.225 190.325 267.25 188.487 264.434C185.975 260.587 184.393 256.963 183.281 252.553C182.8 250.644 181.523 250.597 180.388 249.454C179.659 248.719 179.292 247.73 178.246 248.798C176.931 250.141 177.806 253.859 178.033 255.444C178.572 259.217 180.34 265.023 178.622 268.567C176.302 273.351 170.086 261.314 169.357 259.576C168.987 258.691 162.374 241.719 159.998 247.552ZM155.655 165.567C156.047 165.627 156.438 165.687 156.829 165.747C156.514 166.026 155.857 167.003 155.32 166.745C155.432 166.352 155.543 165.96 155.655 165.567ZM176.4 161.116C176.277 161.251 176.154 161.385 176.031 161.52C175.469 160.818 175.668 159.795 175.668 158.983C176.411 159.431 176.592 160.328 176.4 161.116ZM178.076 168.905V171.2C176.521 170.526 176.49 170.178 178.076 168.905ZM179.965 171.823C178.875 171.524 178.745 171.283 178.898 169.609C179.35 170.547 179.647 171.165 179.965 171.823ZM186.237 188.818C185.78 189.993 183.111 187.193 183.208 186.355C183.302 185.555 183.712 185.317 184.277 185.831C184.464 186.001 184.187 186.616 184.306 186.83C184.737 187.603 185.605 188.235 186.237 188.818ZM186.266 195.897C185.598 197.567 184.405 194.937 186.153 194.865C186.267 195.201 186.305 195.545 186.266 195.897ZM184.969 193.264C184.71 192.919 184.458 192.569 184.214 192.213C185.114 192.395 185.829 193.706 186.778 192.831C186.666 194.165 185.718 194.202 184.969 193.264ZM126.768 171.575C125.321 169.995 134.759 168.886 135.898 168.615C144.16 166.645 151.961 163.793 159.687 160.295C163.372 158.626 167.039 156.937 170.638 155.087C172.192 154.289 174.322 153.612 175.62 152.413C176.547 151.557 176.51 150.91 177.714 150.4C178.736 149.968 178.787 150.376 179.255 149.594C179.537 149.126 179.855 147.408 179.69 146.9C179.242 145.513 178.579 146.637 177.648 145.681C176.978 144.992 177.14 143.033 177.323 142.222C177.561 142.608 177.697 143.028 177.734 143.48C178.743 142.982 178.336 141.272 179.441 140.992C180.605 140.697 180.485 141.604 180.788 142.531C181.668 141.239 180.963 140.138 180.487 138.876C182.907 138.423 185.507 137.984 187.906 138.789C189.641 139.371 191.126 140.802 192.958 141.078C194.752 141.349 195.097 140.498 196.419 139.635C197.492 138.935 198.414 139.76 198.967 139.23C198.626 141.017 195.698 140.773 196.058 143.005C196.22 144.01 197.452 144.912 198.012 145.694C198.716 146.675 199.277 147.76 199.756 148.866C201.62 153.167 202.417 158.158 203.199 162.758C205.129 174.111 205.374 185.688 207.189 197.077C208.054 202.502 208.922 207.93 209.371 213.409C209.484 214.778 210.32 217.885 209.636 219.203C209.057 220.315 207.769 220.318 206.639 220.588C204.428 221.113 202.351 221.827 200.23 222.618C198.328 223.327 197.776 223.762 196.555 221.973C195.374 220.242 194.79 218.178 193.945 216.28C192.869 213.862 191.569 211.529 190.322 209.196C192.773 209.196 194.184 207.873 194.119 205.381C194.048 202.622 191.779 201.967 190.843 199.7C189.934 200.881 189.857 200.915 189.209 199.793C188.467 198.51 187.966 196.163 187.513 194.708C187.837 195.054 188.162 195.4 188.486 195.746C189.304 194.62 188.023 192.845 187.594 191.785C186.932 190.147 186.816 188.377 186.188 186.744C185.846 185.853 185.053 185.151 184.859 184.222C184.729 183.599 185.249 183.007 185.126 182.375C184.911 181.275 183.667 180.095 183.28 178.976C182.685 177.255 182.038 175.74 181.3 174.064C180.3 171.795 180.532 169.413 180.35 166.998C180.16 164.494 179.358 162.098 179.075 159.605C178.879 157.883 179.492 155.714 178.189 154.334C178.036 156.627 178.693 156.592 176.539 157.004C174.086 157.474 172.306 159.301 169.987 159.847C169.509 159.959 169.161 157.871 169.347 160.719C168.235 159.898 165.86 160.918 166.746 161.405C166.075 162.124 164.752 161.627 164.531 162.703C162.25 160.485 158.591 168.035 155.874 164.097C155.425 166.766 153.492 168.344 150.898 168.697C149.593 168.874 148.789 169.309 147.631 169.7C147.396 169.779 147.31 170.117 147.031 170.208C146.606 170.347 145.982 169.928 145.676 170.01C145.053 170.175 144.36 170.996 143.489 171.159C142.491 171.346 141.403 171.26 140.404 171.144C139.155 170.999 138.605 170.851 137.382 171.263C136.282 171.633 135.104 172.67 134.084 171.541C132.48 174.315 128.656 173.637 126.768 171.575ZM200.906 138.094C199.692 137.949 200.535 136.905 201.097 136.591C202.624 135.74 202.216 138.251 200.906 138.094ZM133.708 148.05C140.831 137.774 153.014 130.714 163.734 124.773C169.589 121.528 175.566 118.383 181.714 115.727C184.77 114.408 187.863 113.139 190.984 111.979C192.651 111.36 194.338 110.797 196.026 110.237C196.492 110.082 197.341 109.607 197.83 109.653C197.745 109.645 199.044 109.998 198.789 110.109C199.625 109.745 200.023 108.796 201.006 108.416C202.112 107.989 203.519 107.812 204.703 107.774C205.751 107.739 206.657 108.172 207.655 108.206C208.311 108.228 208.868 107.916 209.511 107.871C209.839 107.848 209.81 108.339 210.008 108.368C210.094 108.38 210.969 108.052 210.977 108.058C211.296 108.262 211.578 109.061 211.866 109.373C212.692 110.268 213.905 110.891 215.006 111.362C216.347 111.935 219.617 112.511 218.102 114.631C219.178 114.476 219.679 115.449 218.331 115.696C217.601 115.829 217.289 115.161 216.747 114.704C215.494 113.652 212.454 112.154 210.65 112.222C209.635 112.26 208.85 113.03 207.914 113.31C206.993 113.585 206.537 113.159 205.728 113.226C204.784 113.305 204.175 114.104 203.275 114.247C202.431 114.38 201.962 113.805 201.208 113.845C200.312 113.892 199.444 114.671 198.589 114.932C197.229 115.348 196.23 115.631 194.902 116.32C192.328 117.656 189.453 118.163 186.801 119.313C184.68 120.233 182.275 120.716 180.313 121.733C178.13 122.863 175.938 123.988 173.801 125.216C172.257 126.103 169.119 126.408 167.417 126.183C167.392 129.317 165.85 127.12 164.295 128.492C164.663 128.817 165.08 129.055 165.547 129.208C163.862 129.881 162.304 130.718 160.672 131.492C158.985 132.292 157.185 132.468 156.077 133.981C155.056 135.375 155.402 134.656 153.878 135.205C153.179 135.457 152.572 136.226 152.068 136.742C151.202 137.629 151.011 138.973 150.516 137.149C150.372 137.372 149.804 138.788 149.694 138.824C149.075 138.166 148.986 138.946 148.639 139.224C148.822 139.83 148.561 140.227 147.858 140.415C147.502 140.679 147.142 140.939 146.778 141.192C145.457 142.109 143.776 142.895 142.845 144.26C142.16 143.855 141.905 143.156 142.323 142.443C141.012 143.652 139.448 144.893 139.093 146.753C138.93 146.596 138.74 146.482 138.525 146.412C137.992 146.772 138.686 147.842 139.023 148.084C140.495 147.512 138.655 147.719 139.644 147.811C139.926 147.837 140.216 148.048 140.527 148.052C141.439 148.064 142.295 148.02 143.2 147.881C145.193 147.574 147.153 147.001 149.083 146.427C151.185 145.802 153.288 145.178 155.343 144.412C157.036 143.78 158.701 143.077 160.365 142.376C161.029 142.096 161.693 141.812 162.359 141.534C163.623 141.005 164.29 140.138 164.113 141.624C165.12 141.457 165.992 140.034 166.765 139.453C167.853 138.637 169.076 138.028 170.364 137.612C170.886 137.443 171.269 137.228 171.809 137.227C172.074 137.226 172.232 137.972 172.399 137.931C173.555 137.651 173.028 137.011 173.548 136.088C174.685 134.071 177.747 132.955 179.628 131.809C180.822 131.081 181.669 130.103 182.771 129.297C183.287 128.921 183.661 128.754 184.201 128.595C184.615 128.472 185.122 129.422 185.39 128.467C184.428 128.074 183.635 127.589 182.71 127.302C182.055 127.099 182.84 126.402 181.803 126.817C181.386 126.984 181.243 127.79 181.09 128.127C179.931 127.092 176.673 128.165 175.298 128.598C175.203 128.628 174.778 128.404 174.578 128.417C173.785 128.471 173.232 129.539 172.71 129.999C171.32 131.223 169.814 131.734 168.103 132.433C168.559 129.946 171.904 128.927 173.856 127.974C176.711 126.581 179.368 124.804 182.493 124.055C184.574 123.555 187.332 123.154 188.231 125.574C188.769 127.024 188.837 130.628 187.016 131.297C186.824 130.62 187.44 130.041 187.625 129.454C185.813 130.146 185.515 132.322 184.139 133.458C183.365 134.096 183.089 134.301 182.715 134.917C182.343 135.53 182.165 136.101 181.295 136.753C179.873 133.731 180.113 137.87 179.392 138.389C179.682 138.18 178.216 138.79 178.391 138.726C178.324 138.751 177.685 137.716 177.271 137.738C176.517 137.778 176.662 138.608 176.299 139.025C175.068 140.439 173.478 141.366 171.498 141.143C171.451 142.149 171.762 143.351 170.388 143.442L170.208 141.213C169.461 141.969 168.477 142.687 167.868 143.563C167.176 144.559 167.25 145.173 166.102 145.837C164.902 146.531 162.349 147.899 160.92 148.017C161.274 147.516 161.211 147.063 160.734 146.66C160.016 147.401 158.955 147.474 158.191 148.142C160.845 149.251 156.152 149.194 155.556 149.32C155.158 149.404 154.81 149.767 154.406 149.849C153.87 149.958 153.801 149.394 153.34 149.573C152.665 149.834 152.939 150.572 152.232 150.943C151.725 151.21 150.865 151.206 150.292 151.459C148.928 152.063 146.023 153.401 145.101 151.778C144.634 154.563 139.862 152.868 138.096 152.68C135.677 152.424 131.464 151.288 133.708 148.05ZM143.867 119.562C144.21 119.27 144.552 119.291 144.895 119.626C144.418 117.106 148.108 115.883 149.718 114.812C151.853 113.391 154.367 110.634 157.161 110.852C156.685 111.205 156.209 111.559 155.733 111.912C156.413 112 157.092 112.088 157.77 112.176C157.388 112.738 157.004 113.3 156.62 113.862C155.993 110.406 152.722 114.77 151.775 115.405C150.821 116.046 149.87 116.523 149.023 117.303C148.183 118.077 147.425 119.47 146.037 118.774C145.911 120.748 144.324 120.212 143.226 121.305C143.18 120.62 143.573 120.135 143.867 119.562ZM158.364 109.708C161.742 108.443 164.682 106.104 167.865 104.433C170.905 102.837 174.007 101.403 177.098 99.9143C178.665 99.1586 181.537 97.2044 183.329 98.2002C185.748 99.545 182.418 99.9789 181.554 100.445C181.234 98.3737 180.114 100.25 180.783 101.402C178.938 100.605 174.913 103.723 173.153 104.583C172.754 104.777 172.933 104.89 172.48 105.119C172.368 105.175 171.213 105.438 170.882 105.549C169.225 106.104 168.133 105.663 167.419 107.664C167.269 107.193 167.12 106.722 166.97 106.25C165.933 108.58 162.779 109.6 160.763 110.977C160.243 111.333 158.759 112.71 158.099 112.425C157.181 112.028 157.55 110.013 158.364 109.708ZM219.295 116.732C220.721 116.826 219.346 117.491 219.738 117.931C219.693 117.881 220.597 118.652 220.478 118.44C220.638 118.725 221.02 118.714 221.216 119.292C221.891 121.28 218.945 123.335 217.952 124.463C216.021 126.657 214.905 129.436 212.892 131.56C211.984 132.519 211.079 133.181 209.819 133.539C208.938 133.79 208.005 133.522 207.194 134.37C206.542 135.052 206.69 135.44 205.968 135.803C204.698 136.443 204.138 135.882 202.901 137.265C201.837 134.373 204.894 134.377 206.49 132.761C208.692 130.529 211.105 128.277 213.17 125.89C215.004 123.768 215.739 121.909 216.61 119.331C216.885 118.519 217.184 116.777 217.94 116.267C219.119 115.473 218.412 116.673 219.295 116.732ZM226.307 191.878C230.048 187.695 234.687 183.938 239.716 181.418C241.514 180.517 244.073 179.335 245.936 180.722C247.763 182.081 247.369 184.793 246.633 186.638C245.927 186.361 246.593 183.768 246.227 183.128C245.428 181.73 243.704 182.472 242.531 182.941C241.157 183.49 239.931 184.096 238.843 185.092C238.402 185.496 237.556 185.858 237.274 186.136C236.849 185.959 236.598 186.088 236.523 186.521C236.611 186.787 236.6 187.048 236.491 187.305C236.429 187.387 235.877 187.052 235.798 187.119C235.44 187.426 235.104 187.787 234.752 188.072C234.044 188.644 233.442 188.915 232.79 189.713C231.532 191.255 229.867 192.159 228.603 193.628C228.318 193.96 227.976 194.812 227.912 194.886C227.273 195.632 226.325 196.222 225.604 197.012C224.358 198.376 223.027 199.291 221.589 200.461C220.97 200.964 220.248 201.506 219.836 202.206C219.648 202.526 219.542 204.276 219.536 204.283C218.125 205.829 218.4 202.722 218.506 202.332C219.651 198.14 223.524 194.992 226.307 191.878ZM218.609 220.225C218.785 220.884 218.929 221.428 219.107 222.096C217.989 221.179 217.989 221.179 218.609 220.225ZM217.401 222.381C216.99 222.796 216.577 223.207 216.161 223.616C215.246 222.649 217.569 222.216 217.401 222.381ZM216.82 205.735C216.383 207.504 214.781 209.65 213.68 211.047C213.802 210.892 212.741 211.202 212.62 211.273C212.228 211.5 213.167 212.972 211.808 212.314C211.326 212.587 212.275 213.698 211.62 214.196C209.726 209.88 214.897 206.142 216.899 202.939C217.878 203.838 217.066 204.742 216.82 205.735ZM204.52 229.065C205.901 229.42 206.619 229.197 207.551 227.84C208.112 227.026 208.316 225.583 209.598 226.802L209.824 225.235C211.654 225.985 211.5 228.698 212.3 230.201C212.689 228.5 213.61 223.75 216.431 224.512C219.599 225.367 214.327 230.814 213.838 232.149C212.761 230.478 213.185 232.032 212.363 232.267C211.659 232.47 210.557 231.951 209.701 231.998C207.096 232.14 204.807 233.312 202.428 234.304C201.825 232.679 201.223 231.055 200.62 229.43C202.022 229.538 204.918 225.809 205.33 228.52C204.291 228.339 203.998 228.385 203.492 229.33C203.815 229.166 204.158 229.078 204.52 229.065ZM210.368 250.268C210.364 250.255 213.063 250.422 213.303 250.334C215.15 249.66 214.467 247.565 214.845 246.084C215.606 246.784 215.203 248.062 215.438 248.967C215.713 250.032 216.511 250.939 216.585 252.078C216.753 254.65 214.642 254.079 213.042 254.912C211.675 255.623 211.524 256.518 210.369 254.601C210.056 254.082 209.385 252.73 209.453 252.067C209.521 251.41 210.562 250.863 210.368 250.268ZM212.543 261.4L211.797 260.564C214.02 261.244 212.709 260.221 213.22 258.822C214.927 259.958 216.319 261.126 217.67 258.851L220.003 268.262C218.436 268.631 216.414 266.21 215.339 265.378C214.718 264.897 211.273 263.046 213.342 262.506C213.075 262.137 212.809 261.768 212.543 261.4ZM227.774 231.847C226.479 233.078 225.174 233.768 223.764 234.736C222.527 235.586 222.953 236.562 221.88 237.51C221.168 238.14 219.499 238.781 218.619 239.262C217.052 240.118 215.649 240.281 214.037 239.323C214.475 242.855 212.056 243.131 209.045 243.831C207.61 244.165 206.76 244.675 205.725 243.36C205.016 242.46 204.738 240.83 205.62 240.006C207.02 238.698 210.752 239.15 212.549 238.327C213.912 237.703 215.301 234.187 216.984 235.466C216.115 234.084 217.126 233.711 217.881 232.725C218.707 231.644 219.215 230.381 220.07 229.309C221.695 227.272 224.19 225.222 226.498 223.993C228.529 222.913 229.595 223.678 229.899 225.948C230.052 227.089 230.047 228.789 229.407 229.801C229.204 230.124 228.531 230.128 228.328 230.431C227.973 230.961 228.299 231.348 227.774 231.847ZM251.604 204.454C253.224 205.709 253.066 208.344 253.322 210.139C253.681 212.668 253.42 215.116 253.382 217.693C253.341 220.392 252.017 222.151 251.393 224.681C250.701 227.496 249.806 228.986 248.252 231.348C249.938 231.613 247.429 236.647 247.016 237.298C246.567 238.005 242.947 241.265 244.499 241.265C243.642 242.394 242.71 243.553 241.857 244.651C241.521 245.083 240.932 245.253 240.667 245.558C240.128 246.178 240.095 246.731 239.71 247.455C239.124 248.554 238.931 248.261 238.161 249.058C237.629 249.608 237.28 250.335 236.757 250.862C235.074 252.562 234.86 251.169 233.918 249.861C233.774 250.211 233.518 250.431 233.15 250.52C232.855 249.039 234.884 247.542 235.737 246.642C237.135 245.167 238.412 243.542 239.647 241.929C242.293 238.473 244.67 234.801 246.547 230.868C248.542 226.682 250.137 222.152 250.965 217.585C251.596 214.104 252.196 208.134 247.545 207.248C244.162 206.604 240.433 208.66 237.644 210.324C235.945 211.337 234.236 212.345 232.617 213.485C230.86 214.722 229.341 216.472 227.434 217.464C228.477 216.921 225.035 218.554 225.562 218.095C225.315 218.31 225.528 218.965 225.365 219.261C225.153 219.646 224.414 220.026 224.083 220.275C223.208 220.933 221.81 221.605 221.412 222.69C215.862 218.731 226.899 211.702 229.728 209.912C235.34 206.361 245.105 199.424 251.604 204.454ZM266.575 165.948C266.522 163.097 268.843 159.204 270.412 156.879C271.179 155.741 272.404 155.787 272.854 154.445C273.113 153.672 272.773 152.861 272.85 152.085C272.954 151.036 273.41 150.194 273.935 149.292C278.681 141.137 284.448 133.92 290.59 126.805C293.618 123.298 296.49 119.655 299.756 116.361C301.12 114.985 304.788 110.038 306.886 110.533C307.997 110.795 308.643 112.49 309.144 113.355C309.974 114.786 310.886 116.126 311.893 117.441C314.553 120.915 317.622 123.964 321.245 126.426C323.507 127.964 325.793 129.46 328.006 131.072C329.827 132.398 332.581 133.915 333.881 135.777C335.182 137.64 333.272 139.218 332.228 140.765C330.605 143.171 329.112 145.663 327.482 148.066C326.835 147.601 327.002 146.655 326.559 146.059C326.165 145.53 325.608 145.315 325.064 144.988C324.022 144.364 322.999 143.6 322.058 144.647C320.411 146.478 322.676 150.806 325.117 150.331C325.405 152.139 320.529 155.115 319.307 156.11C315.557 159.161 311.689 161.814 306.736 162.09C304.731 162.201 302.645 162.049 300.74 161.378C299.828 161.057 298.819 160.616 298.119 159.915C297.282 159.077 297.068 157.829 296.256 156.999C295.551 156.278 294.583 156.167 293.879 155.445C293.174 154.721 292.826 153.578 292.54 152.641C291.98 150.811 291.875 148.88 291.337 147.045C291.014 145.941 290.748 144.466 289.693 145.526C288.162 147.067 288.931 151.911 289.323 153.757C289.884 156.39 291.199 158.513 292.577 160.779C294.07 163.237 294.622 165.516 294.89 168.36C295.391 173.684 296.918 178.792 299.295 183.581C300.296 185.598 301.494 187.495 302.575 189.465C303.079 190.384 304.21 193.521 305.582 193.504C307.775 193.477 304.652 187.083 304.218 186.009C301.816 180.064 299.522 173.815 299.007 167.377C302.451 168.264 306.204 169.106 309.769 168.544C307.468 173.691 309.872 178.815 309.578 184.113C309.431 186.77 309.325 189.221 309.379 191.87C309.428 194.193 308.379 196.515 307.472 198.615C305.671 202.787 303.404 207.933 300.059 211.128C297.263 213.799 293.522 214.008 289.868 213.393C281.557 211.993 276.096 205.604 272.608 198.348C270.367 193.686 268.654 188.71 267.59 183.648C266.359 177.789 266.684 171.89 266.575 165.948ZM277.368 126.463C269.612 120.851 280.883 114.478 286.62 115.346C287.966 115.549 290.442 116.105 290.316 117.861C290.213 119.297 287.818 120.897 286.899 121.783C284.278 124.311 281.61 129.531 277.368 126.463ZM333.792 251.159C333.526 250.921 331.355 251.506 332.215 250.222C332.93 249.154 334.911 250.492 335.631 250.766C335.038 251.176 334.522 251.811 333.792 251.159ZM301.496 319.034C300.829 319.116 300.132 317.318 302.536 318.661C302.189 318.785 301.842 318.91 301.496 319.034ZM301.427 348.336C301.51 349.142 301.756 349.673 301.184 350.259C300.7 349.663 300.638 348.822 301.427 348.336ZM302.403 360.443C302.332 360.882 302.261 361.321 302.191 361.759C301.636 361.478 301.082 361.197 300.527 360.916C301.152 360.759 301.778 360.601 302.403 360.443ZM303.082 350.234C303.909 350.543 303.524 349.554 304.125 349.415C304.34 350.445 304.075 351.327 303.484 352.176C303.427 351.975 303.124 350.249 303.082 350.234ZM324.219 277.174C323.059 277.026 322.883 278.252 322.018 278.728C321.46 279.035 319.76 278.804 319.443 279.392C319.862 279.513 320.281 279.635 320.7 279.755C319.741 280.272 318.782 280.789 317.823 281.306C320.129 281.306 322.532 280.204 324.823 280.528C325.791 280.665 326.501 280.992 327.108 281.779C327.477 282.258 327.801 283.027 327.861 283.612C327.925 284.246 327.431 284.683 327.518 284.985C328.551 285.013 328.429 286.706 328.197 287.397C327.694 288.893 325.698 291.236 323.909 290.287C324.657 291.349 324.467 291.955 323.36 292.572C323.461 292.221 323.535 291.606 322.969 291.667C322.824 292.256 322.879 293.189 322.399 293.633C321.861 294.129 321.38 293.549 320.866 293.872C320.256 294.255 320.439 294.857 319.96 295.273C319.325 295.822 319.235 295.431 318.476 295.538C317.328 295.701 318.061 294.987 317.141 295.917C316.823 296.238 316.876 297.073 316.361 297.543C315.37 298.444 312.727 299.384 311.778 298.228C309.496 301.844 302.657 302.712 299.474 299.857C294.397 295.304 303.863 286.046 306.989 283.111C310.126 280.166 313.61 277.623 317.136 275.167C319.139 273.773 321.194 272.506 323.293 271.264C324.588 270.497 326.214 269.096 327.805 269.23C329.232 269.351 330.452 270.459 331.954 270.678C333.041 270.836 335.152 271.098 333.781 272.572C333.14 273.26 330.622 274.374 329.765 274.541C329.261 274.64 328.73 274.451 328.231 274.553C327.387 274.727 326.806 275.44 325.887 275.349C326.178 276.713 325.647 277.355 324.219 277.174ZM339.245 226.534C339.245 227.601 337.298 227.335 336.891 226.972C336.221 226.376 336.198 224.592 335.949 223.781C337.081 224.066 339.244 225.109 339.245 226.534ZM323.553 191.326C327.645 187.963 331.947 184.88 336.495 182.164C338.124 181.192 340.423 179.23 342.446 179.475C343.294 179.578 345.049 180.553 344.41 181.627C344.29 181.828 343.346 181.909 343.054 182.055C342.724 182.22 342.464 182.675 342.157 182.9C340.032 184.459 337.479 185.417 335.348 187.013C333.595 188.324 331.962 189.791 330.076 190.916C328.266 191.994 326.376 192.677 324.658 193.872C324.692 193.848 322.424 194.664 322.868 194.812C320.877 194.146 322.98 191.798 323.553 191.326ZM350.833 190.074C353.264 189.105 355.642 187.929 358.187 187.278C359.457 186.953 360.761 186.709 362.075 186.855C362.299 186.464 362.596 186.378 362.968 186.596C363.258 187.042 363.64 187.384 364.115 187.623C364.84 188.18 367.51 188.909 366.976 190.14C366.624 190.954 363.947 191.022 363.213 191.204C360.999 191.756 358.934 192.997 356.653 193.301C356.439 193.33 355.74 193.071 355.732 193.072C354.842 193.266 354.102 194.19 353.337 194.633C351.691 195.585 349.327 195.745 348.145 197.389C351.972 199.984 355.292 197.411 358.657 195.452C360.673 194.279 362.836 193.433 365.039 192.68C366.19 192.288 367.351 191.879 368.518 191.535C369.001 191.359 369.497 191.232 370.006 191.154C370.48 191.06 370.819 191.233 371.024 191.672C372.435 191.625 372.555 190.74 373.404 192.391C374.601 194.718 372.77 194.6 371.049 194.886C368.663 195.281 366.236 196.173 363.884 196.764C363.342 196.901 358.586 198.003 358.58 198.042C358.365 199.543 372.014 198.153 373.186 197.928C375.253 197.53 377.471 196.401 379.612 196.673C381.255 196.882 385 199.293 382.378 200.896C381.862 198.425 380.09 200.465 379.165 201.299C377.932 202.409 376.167 202.302 374.477 202.737C372.165 203.331 366.248 205.559 364.606 202.718C365.126 205.208 355.693 203.943 354.397 203.861C353.132 203.78 351.501 204.049 350.279 203.688C349.482 203.453 349.039 202.935 348.289 202.818C348.105 203.016 347.885 203.151 347.628 203.223C347.248 203.03 346.905 202.786 346.599 202.489C344.073 201.328 340.164 200.687 341.568 196.988C342.892 193.5 347.623 191.354 350.833 190.074ZM374.51 192.229C374.573 192.012 374.636 191.795 374.699 191.577C374.706 192.243 376.295 192.528 376.112 193.391C375.705 195.302 373.872 192.43 373.714 192.117C373.98 192.155 374.244 192.192 374.51 192.229ZM384.209 195.404C384.393 196.187 386.505 197.854 385.982 198.238C385.149 197.106 382.847 197.62 384.209 195.404ZM348.575 266.831C349.349 265.298 351.687 267.91 351.44 265.291C352.711 265.406 351.917 266.373 353.441 265.948C354.012 265.789 354.398 265.156 355.093 265.01C355.279 264.971 356.08 265.035 356.357 265.026C357.273 264.998 360.864 264.896 358.392 263.695C359.776 262.78 359.946 263.244 361.194 264.082C360.874 262.35 362.711 263.333 363.566 263.549C362.956 262.561 364.47 261.51 364.961 260.842C364.785 261.871 364.878 263.023 366.366 262.365C366.737 262.201 366.654 261.474 366.948 261.355C367.487 261.138 367.788 261.534 367.981 261.511C368.171 261.49 368.572 261.597 368.971 261.446C369.49 261.251 369.24 260.554 369.898 260.45C370.327 260.383 370.64 261.013 371.163 261.018C371.432 261.021 371.88 260.748 372.085 260.763C372.12 260.765 372.376 260.149 372.69 260.134C373.15 260.111 373.337 261.342 373.504 261.581C374.309 262.722 375.378 263.465 376.611 264.074C374.38 266.119 369.879 265.903 367.073 266.592C365.553 266.966 364.257 267.505 362.866 268.2C362.531 268.418 362.242 268.686 362 269.003C361.803 268.873 361.606 268.742 361.409 268.611C360.647 268.658 359.926 268.281 359.068 268.426C356.419 268.873 354.344 270.858 351.652 271.3C350.442 271.499 349.448 271.776 348.66 270.727C347.968 269.808 348.082 267.81 348.575 266.831ZM344.942 254.606C345.543 255.114 344.82 256.767 345.983 256.587C346.808 256.46 346.643 255.18 347.291 254.909C348.142 254.553 348.656 255.397 349.456 255.319C350.947 255.172 350.862 253.87 349.602 253.298C350.912 252.952 351.331 254.501 352.491 254.487C354.015 254.469 353.651 252.672 354.948 252.374C355.509 252.244 355.322 253.069 355.686 253.172C356.415 253.376 356.923 253.025 357.567 252.715C358.144 252.439 358.555 251.904 359.186 251.723C359.473 251.64 360.202 251.792 360.413 251.638C360.837 251.329 361.217 250.124 361.635 249.964C361.55 249.997 362.919 250.683 363.116 250.748C362.995 251.256 362.717 251.317 362.279 250.929C362.279 252.078 365.471 252.436 364.816 251.016C366.542 251.731 365.257 252.099 365.085 253.096C365.016 253.497 364.782 253.486 364.852 253.91C364.884 254.105 365.788 253.937 365.777 254.203C365.701 255.917 360.238 256.445 359.203 256.596C357.06 256.909 355.032 257.435 352.967 258.084C351.429 258.566 348.778 259.949 347.141 259.863C344.788 259.74 344.481 256.669 344.942 254.606ZM339.684 237.115C339.11 235.209 340.951 231.27 343.349 231.762C343.938 231.883 344.083 232.372 344.541 232.588C345.179 232.891 346.218 232.732 346.772 233.045C348.013 233.748 347.387 235.538 348.631 236.185C346.667 236.661 340.595 240.146 339.684 237.115ZM341.956 244.524C342.802 244.069 344.173 244.011 344.75 243.136C345.037 243.335 345.58 244.543 346.095 244.358C346.336 244.272 346.585 243.617 346.567 243.618C347.026 243.605 347.117 242.984 347.819 243.053C348.463 243.118 349.184 243.892 349.757 244.18C349.659 242.262 350.15 242.078 351.706 241.051C352.047 240.826 352.332 239.981 352.647 239.64C352.345 241.653 353.104 241.664 354.712 241.967C356.728 242.346 357.983 243.428 358.791 245.376C357.074 245.041 354.858 245.444 354.181 247.29C352.81 244.786 347.828 248.242 346.216 248.95C345.019 249.475 343.628 250.181 342.625 248.957C341.918 248.094 342.323 247.057 342.338 246.291C342.342 246.05 342.591 246.036 342.568 245.678C342.539 245.221 341.943 245.038 341.956 244.524ZM360.294 283.91C359.841 284.081 357.506 284.178 357.491 283.404C357.478 282.721 361.612 283.41 360.294 283.91ZM356.502 281.408C354.735 282.497 352.759 278.659 352.109 277.554C353.962 277.791 354.867 276.241 355.958 275.063C356.997 277.338 358.574 276.136 360.233 275.376C362.189 274.479 364.333 274.473 366.337 273.753C366.963 273.529 367.539 273.195 368.15 272.938C368.641 272.754 369.131 272.566 369.619 272.373C369.966 272.06 370.089 271.675 369.988 271.219C369.824 270.836 369.936 270.593 370.324 270.493C370.786 270.631 371.256 270.711 371.738 270.733C372.51 270.579 373.62 269.851 372.688 269.065C373.687 268.158 374.687 269.06 375.649 269.458C375.42 268.806 375.193 268.154 374.964 267.503C375.441 267.705 376.858 269.685 377.002 269.674C377.918 269.605 377.823 268.376 378.349 267.88C378.652 268.255 378.739 271.047 379.933 270.106C380.443 269.704 379.344 268.335 379.074 268.023C380.439 268.331 381.631 269.961 382.001 271.227C381.352 271.321 380.753 271.19 380.202 270.835C379.85 272.598 383.113 271.884 383.641 272.804C384.675 274.607 377.947 275.859 377.07 276.026C375.316 276.361 373.246 276.485 371.638 277.263C370.098 278.007 369.733 278.22 367.933 278.36C365.878 278.519 363.874 279.196 361.886 279.723C360.161 280.18 358.031 280.465 356.502 281.408ZM394.054 216.881C395.676 216.297 401.141 213.267 402.532 214.615C402.385 214.472 403.535 216.848 403.523 216.699C403.622 217.935 403.592 218.432 402.07 219.024C400.981 219.448 400.032 218.547 399.052 218.905C397.975 219.298 398.728 219.994 398.174 220.48C397.567 221.013 396.396 221.243 395.64 221.476C393.79 222.048 391.926 222.525 390.085 223.141C386.338 224.393 382.371 225.559 378.521 226.445C375.644 227.107 370.761 228.752 368.11 226.809C367.851 227.914 367.218 227.763 366.34 227.924C365.651 228.05 364.405 228.391 363.793 228.409C362.774 228.438 359.94 228.171 360.33 226.741C360.223 227.135 362.534 225.787 362.134 225.703C363.116 225.91 362.798 225.416 363.602 225.141C364.652 224.782 365.75 224.801 366.823 224.421C369.526 223.463 371.794 222.219 374.648 221.618C381.166 220.247 387.765 219.144 394.054 216.881ZM132.753 364.585C132.225 364.599 131.814 363.099 133.421 364.17C133.199 364.309 132.976 364.447 132.753 364.585ZM120.061 362.643C119.342 362.827 119.056 362.426 119.202 361.441C120.204 361.046 120.49 361.446 120.061 362.643ZM110.262 360.634C110.078 359.755 110.729 359.557 111.319 359.163C111.26 360.327 111.26 360.327 110.262 360.634ZM85.6064 353.408C84.6132 353.189 83.2898 352.218 83.0622 353.849C82.896 353.471 82.0481 351.695 82.4122 351.284C82.6023 351.069 83.3221 352.064 83.2455 351.965C84.1148 350.207 85.6132 352.329 86.4507 352.956C86.1694 353.107 85.8877 353.258 85.6064 353.408ZM343.844 159.087C344.187 158.362 344.591 158.131 345.056 158.397C344.326 160.092 341.853 161.012 343.844 159.087ZM361.026 143.168C361.639 144.316 360.717 144.802 360.06 145.756C360.444 144.727 360.711 144.013 361.026 143.168ZM435.703 255.274C437.912 255.274 442.618 254.108 443.951 256.633C444.832 254.917 445.835 258.135 446.6 258.651C446.686 258.71 447.237 258.288 447.493 258.443C447.879 258.677 448.213 259.314 448.434 259.693C449.101 260.835 449.388 262.192 449.758 263.448C445.899 263.448 441.942 262.55 438.087 262.223C435.556 262.009 433.075 262.002 430.54 262.139C430.037 262.166 429.037 262 428.606 262.094C428.168 262.191 427.375 263.082 426.893 262.939C427.642 264.346 437.241 267.751 437.973 266.193C437.105 265.668 435.178 265.265 435.18 263.997C435.181 262.575 436.988 262.578 437.945 262.619C440.039 262.711 443.545 263.408 444.403 265.585C444.771 266.518 444.884 268.868 444.48 269.769C444.219 270.351 443.777 271.051 443.077 271.169C442.79 271.217 442.377 270.836 442.333 270.845C440.897 271.15 438.238 272.303 436.671 270.677C435.541 272.139 430.1 270.542 428.434 269.99C425.52 269.026 421.508 267.701 419.738 264.983C417.581 261.669 421.967 258.868 424.485 257.522C427.927 255.681 431.86 255.276 435.703 255.274ZM450.406 262.936C451.084 263.127 451.761 263.318 452.438 263.51C452.257 264.697 449.585 263.758 450.406 262.936ZM470.88 306.101C471.088 301.343 469.713 297.153 468.918 292.551C468.722 291.411 468.923 289.416 468.056 288.478C467.228 287.581 465.381 288.311 465.307 286.725C464.492 287.68 464.575 287.879 463.57 286.781C463.753 287.252 463.78 287.731 463.65 288.218C463.026 287.861 460.767 286.675 460.957 288.297C459.099 287.886 459.637 286.724 458.577 285.837C458.427 285.711 457.822 286.159 457.586 285.968C457.16 285.623 456.949 285.309 456.59 284.864C456.133 285.416 455.511 285.815 454.953 286.252C454.628 285.545 453.996 285.026 453.237 284.854C453.947 286.34 455.702 288.264 453.295 289.109C451.858 289.613 449.504 288.995 447.982 289.113C442.342 289.55 436.164 288.321 430.71 286.977C425.107 285.597 419.442 283.648 414.403 280.8C413.329 280.193 412.653 279.474 411.728 278.721C410.829 277.989 410.175 277.873 409.094 277.405C407.149 276.562 405.37 275.211 403.89 273.704C400.708 270.465 397.752 266.229 398.638 261.487C399.522 256.761 402.77 253.067 406.247 249.954C410.353 246.278 414.989 243.209 419.909 240.735C422.108 239.629 427.736 235.474 429.909 237.905C431.298 239.458 430.517 241.44 428.619 241.785C428.151 241.871 427.662 241.556 427.188 241.772C426.506 242.082 426.746 242.449 426.464 242.708C425.975 243.157 425.455 243.858 424.725 244.248C422.174 245.608 419.708 246.685 417.27 248.341C416.147 249.104 415.065 249.433 414.074 250.099C413.089 250.761 412.865 251.856 411.54 251.18C412.012 253.108 409.178 255.171 408.068 256.352C406.348 258.18 404.285 260.513 405.088 263.218C406.659 268.513 413.758 272.534 418.302 274.862C423.971 277.766 430.224 280.078 436.537 281.035C439.676 281.51 442.919 281.804 446.081 282.105C448.543 282.34 452.322 281.48 454.093 283.698C454.148 281.112 462.223 281.34 463.941 281.01C460.495 269.231 453.729 258.759 446.496 248.974C442.946 244.171 439.46 239.231 435.413 234.828C430.983 230.008 425.922 225.7 421.113 221.265C411.68 212.565 401.013 204.801 390.157 197.962C379.327 191.138 368.111 184.423 356.246 179.558C342.694 174.001 328.427 170.347 314.144 167.234C316.082 164.765 319.233 163.561 321.714 161.755C322.583 161.123 323.757 159.605 324.885 159.398C326.107 159.173 327.069 160.487 327.939 161.147C330.435 163.041 332.162 162.237 335.021 162.123C336.732 162.054 340.783 163.007 341.505 160.693C342.464 161.97 341.073 162.994 340.361 163.93C340.879 164.653 341.297 163.903 341.809 163.79C341.967 163.66 342.124 163.528 342.282 163.398C342.536 163.03 342.765 163.028 342.969 163.39C343.274 163.85 343.581 163.748 343.891 163.085C343.976 163.032 344.06 162.978 344.145 162.925C344.515 162.728 344.872 162.417 345.215 162.172C347.814 160.315 350.129 158.733 352.998 157.365C355.406 156.217 354.111 154.021 355.699 152.47C356.059 152.119 356.663 152.295 357.048 151.998C357.424 151.705 357.48 151.374 357.755 151.061C358.415 150.309 357.629 149.435 359.313 150.356L358.705 146.939C362.006 150.141 361.993 140.927 362.444 139.563C362.385 139.743 362.74 138.348 362.74 138.36C362.837 135.595 363.214 133.591 359.976 133.43C361.202 132.659 361.577 134.165 362.143 132.606C362.426 131.825 361.541 130.482 362.952 130.986C363.249 129.325 362.955 127.981 362.586 126.368C362.206 124.716 362.429 123.614 362.447 121.963C362.466 120.089 361.589 118.206 361.308 116.362C361.088 114.917 361.315 112.638 359.447 113.169C359.185 112.758 360.107 111.494 360.069 110.869C360.011 109.898 358.957 108.912 358.659 107.979C358.22 108.433 357.601 108.584 357.004 108.379C357.565 107.112 357.038 106.687 356.501 105.595C356.193 104.969 356.379 104.278 355.72 103.83C355.343 103.573 354.699 104.006 354.403 103.704C353.769 103.059 354.003 102.202 353.567 101.351C353.019 100.284 351.769 99.4685 350.907 98.6674C346.063 94.1648 340.802 90.7237 334.358 88.9643C327.857 87.1893 320.279 86.5534 313.8 88.6008C311.211 89.419 308.912 89.3351 306.581 90.8633C305.825 91.3591 305.744 91.2263 305.36 92.0528C305.272 92.2455 306.076 92.7586 305.583 93.0737C305.048 93.4159 304.457 92.72 304.184 92.1424C300.812 94.583 297.653 97.8367 295.732 101.567C293.824 105.275 293.649 109.63 292.92 113.659C289.56 109.819 285.014 107.978 280.072 109.824C275.764 111.433 272.426 114.968 271.583 119.548C271.069 122.34 271.63 125.168 272.899 127.687C273.447 128.776 274.111 129.981 275.119 130.714C275.917 131.293 277.282 131.212 277.658 132.256C278.234 133.857 274.91 137.314 274.047 138.715C272.486 141.25 271.035 143.868 269.931 146.638C265.972 141.046 262.182 134.938 257.681 129.781C253.432 124.915 248.368 120.55 243.401 116.437C233.091 107.899 222.372 99.8784 210.839 93.0768C200.101 86.7435 187.13 83.2273 174.616 84.4705C162.388 85.6857 153.027 93.419 145.149 102.338C130.002 119.488 120.725 143.931 119.819 166.76C119.547 173.617 120.069 180.386 121.763 187.037C122.569 190.204 122.452 193.32 122.921 196.527C123.45 200.146 124.365 203.752 125.25 207.297C128.621 220.8 132.916 234.293 137.735 247.35C140.241 254.139 143.273 260.777 147.374 266.764C149.268 269.529 151.723 271.693 153.761 274.319C155.739 276.866 156.261 279.992 156.696 283.117C157.739 290.61 158.43 298.135 159.057 305.672C159.324 308.866 159.635 312.033 160.057 315.204C160.426 317.97 159.499 317.834 157.172 318.773C157.644 316.288 146.528 317.979 145.479 318.149C144.337 318.333 143.127 318.336 142.228 318.483C141.222 318.646 140.238 318.883 139.079 318.85C137.377 318.801 134.189 318.366 133.539 320.539C133.091 318.02 130.136 320.775 132.323 320.307C130.078 320.558 127.788 320.14 125.517 320.352C122.914 320.593 120.288 320.824 117.703 321.215C115.904 321.488 114.187 322.181 112.384 322.382C110.077 322.64 107.67 322.616 105.341 322.821C96.7497 323.579 87.845 325.453 79.4939 327.599C77.6023 328.085 75.4288 328.43 73.6215 329.21C73.1377 329.418 72.7023 329.885 72.2387 330.064C71.4616 330.364 71.5679 330.157 70.8778 330.294C66.7429 331.121 62.4773 332.471 58.3429 333.53C56.0497 334.118 52.3194 334.649 50.4486 336.249C49.6101 336.966 48.8773 338.237 50.221 339.052C51.2944 339.702 52.8267 338.664 53.6955 338.102C52.9215 340.119 51.4616 341.125 52.2502 343.419C52.8726 345.233 54.2778 347.468 56.4398 346.298C56.7293 346.972 56.8465 348.311 57.6991 348.559C58.4653 348.781 59.02 347.81 59.7705 348.039C60.0392 348.121 59.9372 348.628 60.1778 348.761C60.5924 348.989 61.0127 349.086 61.4877 349.247C61.896 349.386 62.5533 349.67 62.9793 349.7C63.2497 349.719 63.8866 349.257 63.8846 349.257C64.5054 349.351 64.8392 350.539 65.2861 350.883C65.8663 351.328 66.3455 351.43 67.0721 351.591C68.5825 351.927 70.5293 352.502 71.5262 350.955C71.2981 352.06 72.7997 351.951 73.4622 352.091C73.3887 351.51 73.0674 350.977 72.5715 350.658C74.0528 350.755 73.4523 352.228 74.5471 352.617C75.3273 352.893 75.2387 352.19 75.8356 352.112C76.6221 352.01 77.2189 352.58 78.4471 352.054C78.7132 353.237 78.8106 354.429 80.2632 354.606C81.1158 354.71 83.1038 353.17 82.9913 354.451C84.896 353.893 85.6189 354.271 86.6142 355.949C86.7825 354.918 87.5965 355.217 88.3434 355.154C89.5273 355.053 89.5575 355.148 90.4752 354.478C90.559 354.417 91.2809 352.763 91.6017 353.791C91.746 354.251 90.7924 355.335 90.4392 355.61C90.8778 355.832 92.3148 356.609 92.8674 356.466C93.3455 356.342 93.3471 355.525 93.9215 355.483C93.7809 355.953 93.6408 356.423 93.4997 356.893C94.6174 357.055 95.5512 356.308 96.434 355.76C97.2757 357.888 99.6814 356.689 100.99 358.29C101.682 359.138 101.714 359.781 103.033 360.003C104.382 360.229 105.561 359.637 106.708 360.75C106.344 360.06 105.439 359.487 106.339 358.744C106.951 359.614 107.267 360.661 107.974 361.469C108.071 361.058 108.168 360.647 108.266 360.236C110.107 362.205 112.425 362.222 114.783 363.314V361.873C116.472 364.45 116.562 362.819 118.579 361.766C118.442 362.524 118.304 363.282 118.167 364.039C119.619 363.93 120.975 365.65 122.167 364.189C122.887 365.396 123.759 364.802 124.939 365.185C125.61 365.403 126.109 366.064 126.762 366.303C127.74 366.661 128.032 366.645 128.954 366.956C129.773 367.234 130.239 367.773 131.264 367.946C131.93 368.059 132.535 368.05 133.172 368.02C133.418 368.008 133.337 367.453 133.885 367.582C134.731 367.783 135.361 368.844 135.97 369.389C136.887 367.085 139.454 370.171 140.694 370.582C140.813 369.991 140.792 369.279 141.219 368.794C141.722 369.894 141.913 370.818 142.955 371.527C143.557 371.936 144.44 372.228 145.135 372.378C145.574 372.472 146.372 372.359 146.648 372.495C147.119 372.725 147.292 373.341 147.768 373.399C148.048 373.433 148.462 372.697 148.672 372.754C149.63 373.016 150.162 374.18 151.13 374.81C154.01 376.683 157.634 376.865 160.842 377.276C161.647 377.378 161.764 377.159 162.418 377.631C162.767 377.884 162.609 378.651 163.038 378.866C164.655 379.677 164.656 377.948 164.995 376.873C165.53 377.579 165.622 378.511 166.354 379.072C166.753 379.061 167.153 379.069 167.552 379.099C167.777 379.356 167.925 379.652 167.994 379.988C168.963 380.642 170.06 380.415 171.061 380.906C171.389 381.067 171.97 382.04 172.374 382.32C173.098 382.821 174.216 383.089 175.043 383.306C176.776 383.763 179.262 383.156 180.293 384.966C181.662 383.499 181.132 385.251 182.062 385.62C182.611 385.837 183.437 384.973 184.045 385.059C185.142 385.213 185.537 386.4 185.888 387.263C186.555 387.114 186.097 385.225 186.078 384.811C186.908 384.713 187.092 386.898 187.236 387.378C188.545 386.747 186.395 384.784 187.804 384.154C187.675 385.827 189.007 387.204 186.627 387.443C186.956 388.451 194.633 389.569 195.166 388.68C195.285 390.324 196.389 388.789 196.796 388.226C196.842 389.185 196.515 390.546 197.591 390.992C198.323 391.294 199.972 390.512 200.259 389.795C200.586 390.89 201.135 390.854 201.817 391.55C202.286 392.027 202.595 392.855 203.087 393.255C203.991 393.991 205.674 393.879 206.728 393.714C208.791 393.392 208.547 392.997 209.282 395.141C209.448 394.327 209.969 392.626 210.877 393.891C211.455 394.694 210.225 396.466 209.869 397.172C210.664 396.735 211.453 396.217 212.357 396.029C212.407 396.308 212.454 396.899 212.32 397.157C212.348 397.105 213.312 397.752 213.67 397.931C213.584 397.888 213.953 396.277 213.942 396.33C215.215 397.115 214.332 398.617 215.459 399.391C215.75 399.592 216.434 399.358 216.786 399.48C217.399 399.692 217.929 400.267 218.474 400.603C218.039 400.02 218.101 399.04 218.131 398.367C218.408 398.52 218.606 399.093 218.886 399.138C218.991 399.155 220.088 399.301 220.08 399.296C221.222 400.094 220.987 400.195 220.007 401.156C220.357 401.706 221.82 400.75 222.216 400.591C222.299 400.806 222.32 401.588 222.476 401.727C222.57 401.959 222.665 402.19 222.76 402.421C223.052 402.203 223.365 402.13 223.7 402.203C223.911 402.276 225.562 402.948 225.674 402.718C225.313 402.601 224.985 402.422 224.692 402.181C225.645 401.325 226.272 400.87 227.149 402.106C227.26 402.262 226.88 402.821 226.992 403.024C227.412 403.78 228.273 404.382 228.858 404.998C229.1 404.148 228.537 402.018 229.881 402.096C230.956 402.157 231.773 404.76 231.401 405.569C231.828 405.102 234.378 404.638 234.86 404.784C236.22 405.197 235.839 406.455 237.513 404.611C238.655 405.399 237.649 405.698 237.854 406.658C238.156 406.721 238.441 406.647 238.712 406.435C238.51 410.516 241.522 407.398 243.477 408.021C244.245 408.266 244.441 409.137 245.265 409.392C245.701 409.526 246.186 409.208 246.61 409.286C246.95 409.237 247.287 409.177 247.623 409.106C248.048 408.893 248.247 409.131 248.221 409.821C248.904 410.175 248.646 410.313 249.445 410.382C249.96 410.427 250.433 409.891 251.018 409.983C252.027 410.141 251.893 410.915 252.538 411.32C253.118 411.685 253.773 411.673 254.487 411.602C254.851 411.566 255.874 411.097 255.997 411.096C256.76 411.085 256.346 410.923 257.263 411.578C257.976 412.09 258.276 412.421 259.152 412.656C260.156 412.926 261.939 413.515 262.615 412.789C263.528 414.158 264.243 413.153 265.448 413.243C266.065 413.29 266.163 413.53 266.712 413.626C267.601 413.781 268.711 413.647 269.657 413.951C271.149 414.43 271.317 414.671 272.841 414.735C273.116 414.628 273.391 414.52 273.665 414.413C273.748 414.872 273.964 415.246 274.314 415.536C275.167 415.715 275.727 415.285 276.43 414.813C276.954 416.445 278.654 416.588 280.108 416.802C282.454 417.149 284.698 417.338 286.961 418.109C288.872 418.76 290.786 419.491 292.624 420.325C294.242 421.059 295.768 422.156 297.599 421.641C301.745 420.474 305.764 416.217 309.233 413.773C313.343 410.878 317.775 408.492 322.068 405.89C339.162 395.528 357.221 386.763 374.075 376.016C383.277 370.149 391.815 363.178 401.697 358.431C400.29 364.244 397.895 370.145 398.328 376.231C398.502 378.684 399.224 381.581 401.126 383.293C403.478 385.41 406.097 384.062 408.346 382.55C413.165 379.31 416.379 374.581 419.986 370.142C424.252 364.89 427.561 359.247 430.693 353.261C431.444 354.315 430.873 356.08 430.884 357.248C430.899 358.739 431.301 360.175 431.992 361.506C433.776 364.94 437.172 365.773 440.24 363.42C446.145 358.891 449.573 350.826 452.737 344.331C454.541 347.689 457.103 351.915 461.437 349.517C465.013 347.538 467.114 343.117 468.207 339.372C471.401 328.441 470.389 317.306 470.88 306.101Z" fill="#242424"/>
<path fill-rule="evenodd" clip-rule="evenodd" d="M465.457 240.44C465.049 239.45 464.87 239.612 465.62 238.651C466.204 239.227 465.736 239.702 465.457 240.44ZM483.53 300.395C482.383 297.135 483.091 293.594 482.395 290.25C482.075 288.715 481.57 287.227 481.388 285.665C481.308 284.972 480.69 281.851 481.111 281.36C479.817 280.577 479.813 279.997 479.514 278.461C479.975 277.972 479.917 277.555 479.34 277.209C478.963 276.752 478.585 276.296 478.208 275.839C479.858 276.646 478.882 274.581 478.713 273.391C478.58 272.45 478.49 271.469 478.177 270.568C477.791 269.459 476.933 268.899 478.718 268.899C478.131 268.231 477.252 267.541 476.959 266.723C476.538 265.545 477.233 263.989 476.374 262.949C475.896 262.369 473.428 262.141 473.861 260.888C474.082 260.25 475.082 260.726 475.391 260.279C476.607 258.521 473.016 257.792 472.84 257.044C472.612 256.074 473.909 255.858 473.989 254.951C474.066 254.063 472.687 252.605 472.322 251.811C471.825 251.932 471.281 252.718 470.712 252.343C470.604 252.272 470.766 249.199 470.637 248.791C470.51 248.39 470.25 247.327 470.157 247.13C469.789 246.348 468.735 245.968 468.568 245.044C468.468 244.493 470.627 243.659 468.151 243.633C469.04 242.065 467.411 241.112 466.818 239.773C466.055 238.05 465.606 236.19 464.822 234.459C464.061 232.776 463.209 231.179 462.111 229.691C461.118 228.344 460.688 227.048 459.894 225.625C459.735 225.5 459.576 225.375 459.417 225.25C458.755 225.346 458.542 225.044 458.78 224.345C458.273 223.594 457.896 222.793 457.449 222.009C456.93 221.098 456.23 220.356 455.693 219.47C454.981 218.295 454.771 216.971 453.966 215.792C452.977 214.343 451.864 213.065 450.947 211.561C449.798 209.677 448.526 208.507 447.08 207.048C446.392 206.353 446.309 204.618 445.466 203.631C444.548 202.557 443.641 202.265 443.005 200.855C442.176 199.02 440.961 198.144 439.778 196.558C438.802 195.25 438.326 193.746 437.251 192.481C436.326 191.394 435.277 190.4 434.29 189.37C433.044 188.068 432.124 186.486 430.827 185.249C431.014 185.427 429.699 184.385 429.765 184.418C429.474 184.27 428.534 184.15 428.671 184.231C426.714 183.081 424.261 178.87 421.316 181.101C419.766 182.274 420.51 184.426 421.592 185.595C422.056 186.097 424.47 188.572 424.991 187.528C425.555 188.326 427.288 192.184 428.731 191.078C428.584 192.397 429.347 191.959 429.851 192.85C430.183 193.438 430.022 193.727 430.263 194.645C430.928 197.167 433.466 199.632 434.818 201.832C438.182 207.307 441.893 212.5 445.26 217.982C448.469 223.207 452.062 228.164 455.141 233.459C458.643 239.479 463.005 245.163 465.643 251.653C465.732 251.872 466.465 252.217 466.647 252.545C466.964 253.114 466.896 254.098 467.1 254.743C467.808 256.978 468.955 259.179 470.262 261.031C471.409 262.655 471.493 264.863 472.282 266.769C473.395 269.454 474.57 272.112 475.651 274.812C477.334 279.013 478.474 283.04 479.637 287.427C480.391 290.27 480.99 293.111 481.231 296.046C481.451 298.746 481.506 301.558 482.505 304.113C483.186 303.061 483.988 301.698 483.53 300.395Z" fill="#242424"/>
<path fill-rule="evenodd" clip-rule="evenodd" d="M98.5621 358.24C97.3527 357.995 96.2147 357.669 95.9584 356.281C95.7829 356.935 95.6079 357.59 95.4324 358.245C96.9048 358.578 98.3777 358.912 99.8501 359.245C99.5063 358.64 99.2553 358.38 98.5621 358.24Z" fill="#242424"/>
<path fill-rule="evenodd" clip-rule="evenodd" d="M101.807 130.354C101.899 129.962 102.017 129.578 102.164 129.204C102.263 129.569 102.751 130.358 102.467 130.703C102.105 131.14 101.74 130.892 101.807 130.354ZM107.736 119.073C108.133 119.248 108.991 119.282 109.484 119.43C108.206 120.53 107.981 120.206 106.328 120.079C106.255 118.966 106.707 118.621 107.736 119.073ZM96.657 146.614C96.8283 146.619 97.0002 146.623 97.1726 146.627C97.183 146.143 97.1705 145.659 97.1341 145.175C98.8768 145.556 97.8903 142.511 97.3429 141.88C99.0429 141.936 99.8711 136.554 100.41 135.517C100.888 134.596 101.429 134.24 101.779 133.117C102.085 132.134 102.415 131.25 102.856 130.32C103.87 128.183 105.2 126.242 104.954 123.75C105.813 125.62 106.568 123.754 107.113 122.86C107.991 121.42 110.132 119.582 110.36 117.872C110.561 116.366 109.442 116.286 110.102 114.89C110.77 113.477 111.319 113.618 112.489 113.166C113.267 112.865 113.422 113.231 113.971 112.248C114.326 111.612 114.201 111.138 114.656 110.617C114.844 110.781 115.059 110.848 115.298 110.82C115.668 110.332 115.911 109.788 116.026 109.189C116.327 108.38 116.473 107.636 116.927 106.866C117.358 106.135 118.123 104.182 118.528 103.83C118.958 103.456 121.398 103.646 121.388 103.659C122.396 102.392 120.546 101.129 123.107 101.396C122.601 100.454 124.378 99.2854 124.893 98.7614C126.181 97.4536 126.284 96.8484 126.556 95.2036C126.694 94.3651 125.793 94.4619 127.001 94.2708C127.5 94.1921 127.979 94.8307 128.34 94.7369C129.931 94.3244 128.266 94.4031 128.705 93.7546C128.844 93.5489 129.552 92.7187 129.545 92.7276C129.511 92.7692 129.704 92.0052 129.865 91.8088C130.169 91.7828 130.468 91.7296 130.763 91.6494C130.912 91.3473 131.044 91.038 131.159 90.7213C132.311 89.7609 134.034 89.3312 134.83 88.276C135.345 87.5937 135.191 86.9255 135.856 86.2453C136.49 85.5973 137.329 86.0666 137.454 84.6031C137.614 82.7411 135.614 81.9124 134.796 83.7916C132.577 81.0588 123.303 91.0854 122.232 92.3953C117.578 98.0817 113.004 103.909 109.187 110.197C105.468 116.324 102.415 122.771 100.029 129.529C98.8789 132.787 98.1783 136.031 97.4757 139.401C97.2398 140.53 95.4768 145.559 96.2106 146.685C96.3591 146.661 96.508 146.637 96.657 146.614Z" fill="#242424"/>
<path fill-rule="evenodd" clip-rule="evenodd" d="M462.962 286.062C463.746 285.539 463.746 285.539 463.883 284.551C462.832 284.743 462.832 284.743 462.962 286.062Z" fill="#242424"/>
<path fill-rule="evenodd" clip-rule="evenodd" d="M76.588 352.533C76.5977 352.532 76.6049 352.534 76.6105 352.54C76.5941 352.519 76.5348 352.457 76.588 352.533Z" fill="#242424"/>
<path fill-rule="evenodd" clip-rule="evenodd" d="M76.0624 353.063C76.3046 353.587 76.6936 353.717 77.2301 353.453C77.4415 353.755 75.3957 351.568 76.0624 353.063Z" fill="#242424"/>
<path fill-rule="evenodd" clip-rule="evenodd" d="M111.44 114.16C110.213 116.566 111.75 114.816 111.672 115.598C111.723 115.084 111.936 114.352 111.44 114.16Z" fill="#242424"/>
<path fill-rule="evenodd" clip-rule="evenodd" d="M311.019 151.41C311.551 155.726 317.455 153.685 318.783 151.074C319.751 149.174 322.193 141.664 319.565 140.077C317.617 138.901 317.201 143.97 316.721 145.102C315.916 146.999 315.288 145.655 313.499 146.141C311.524 146.678 310.8 149.621 311.019 151.41Z" fill="#242424"/>
<path fill-rule="evenodd" clip-rule="evenodd" d="M304.568 143.511C306.679 143.98 308.748 143.738 310.247 142.072C311.077 141.149 312.181 139.318 310.687 138.425C309.332 137.616 307.796 139.51 306.369 139.118C304.429 138.586 305.428 136.505 304.763 135.131C302.317 136.54 300.952 142.708 304.568 143.511Z" fill="#242424"/>
<path fill-rule="evenodd" clip-rule="evenodd" d="M306.757 154.408C304.722 154.404 304.705 156.906 305.767 157.978C306.784 159.005 309.353 160.043 310.731 159.245C313.449 157.67 308.403 154.571 306.757 154.408Z" fill="#242424"/>
<path fill-rule="evenodd" clip-rule="evenodd" d="M188.387 253.907C188.822 254.118 190.102 255.203 190.642 254.713C189.88 253.946 189.118 253.179 188.357 252.411C187.936 252.873 187.647 253.547 188.387 253.907Z" fill="#242424"/>
<path fill-rule="evenodd" clip-rule="evenodd" d="M178.773 144.135C178.557 144.297 178.341 144.458 178.124 144.619C178.854 145.226 178.836 145.407 179.571 144.832C179.353 144.544 179.087 144.312 178.773 144.135Z" fill="#242424"/>
<path fill-rule="evenodd" clip-rule="evenodd" d="M316.653 287.32C316.245 286.586 315.472 287.94 314.95 288.16C314.1 288.518 313.402 286.622 313.646 288.895C311.725 288.015 310.559 290.033 309.32 291.084C307.569 292.57 305.428 293.375 304.26 295.485C309.756 296.771 315.796 292.032 319.894 288.92C320.563 288.411 323.905 285.847 321.64 285.599C320.713 285.498 317.341 288.555 316.653 287.32Z" fill="#242424"/>
<path fill-rule="evenodd" clip-rule="evenodd" d="M315.023 282.871C316.1 282.023 313.778 281.946 313.411 281.857C313.442 282.531 313.473 283.205 313.505 283.879C314.025 283.564 314.531 283.228 315.023 282.871Z" fill="#242424"/>
<path fill-rule="evenodd" clip-rule="evenodd" d="M310.979 285.7C311.3 285.499 312.198 284.871 311.587 284.403C311.036 284.754 310.642 285.327 310.555 285.981C310.696 285.887 310.837 285.793 310.979 285.7Z" fill="#242424"/>
<path fill-rule="evenodd" clip-rule="evenodd" d="M221.962 231.008C221.274 231.277 220.966 231.704 221.038 232.288C222.095 232.072 221.894 231.074 221.962 231.008Z" fill="#242424"/>
<path fill-rule="evenodd" clip-rule="evenodd" d="M113.845 256.192C114.147 255.487 114.447 254.782 114.749 254.078C115.123 255.307 115.227 255.918 113.845 256.192ZM114.246 259.448C113.592 259.564 113.85 257.525 113.85 257.169C114.98 257.805 114.044 258.567 114.246 259.448ZM113.226 253.564C113.784 253.237 114.342 252.91 114.899 252.582C114.123 254.012 114.427 253.119 114.748 254.074C114.162 254.241 113.593 254.046 113.226 253.564ZM109.922 264.741C107.831 272.279 101.192 278.223 94.1799 281.303C90.1504 283.072 86.1888 283.514 81.8373 283.317C80.159 283.241 78.1841 282.699 76.569 282.8C75.3254 282.878 75.3815 282.931 74.3514 283.977C73.8957 283.143 74.2258 282.558 73.3117 282.072C72.1711 281.467 71.6976 282.172 71.1319 283.011C70.3914 282.248 70.0883 281.85 69.1289 281.397C69.1591 281.412 68.2105 281.376 68.2494 281.387C68.0779 281.335 67.0462 280.676 66.7232 280.556C65.3976 280.061 63.865 279.858 62.6419 279.149C61.5719 278.53 60.6907 276.792 59.4665 278.127C59.4655 275.896 56.4406 274.97 55.0228 273.801C52.8074 271.974 51.0461 269.27 49.9416 266.653C48.7638 263.863 48.3707 261.189 47.8195 258.314C47.4345 256.305 44.9128 253.401 46.4271 251.373C46.7879 252.224 46.6185 253.094 47.2177 253.865C47.757 252.832 48.0536 251.676 48.2973 250.546C48.4171 249.992 49.1106 248.367 49.0319 247.885C48.8717 246.897 47.6421 246.844 48.3238 245.633C49.7378 247.163 50.8789 244.477 49.8106 243.407C49.2832 243.998 49.0896 244.67 48.8463 245.402C47.4561 242.612 51.3039 243.511 50.462 240.993C51.8663 240.724 52.6737 240.373 53.2076 238.993C53.8013 237.459 53.3645 237.124 54.7127 236.11C55.1765 235.762 56.488 235.261 56.728 234.687C57.1924 233.579 56.0108 233.251 57.0457 232.212C57.3951 232.822 58.7574 234.028 59.5032 232.88C59.6526 232.651 59.0254 232.489 59.4816 231.962C60.1574 231.181 60.9134 230.416 62.0562 230.58C61.1513 228.331 66.9335 228.153 68.4144 227.623C69.8985 227.091 71.1577 226.743 72.7314 226.619C74.3034 226.496 74.3816 226.038 75.7126 225.098C75.8253 226.443 76.151 226.148 77.1136 226.385C77.345 225.991 77.5823 225.946 77.825 226.252C78.0666 226.48 78.3621 226.588 78.7105 226.575C79.239 226.602 79.8387 226.533 80.3925 226.545C81.6927 226.57 83.0339 226.462 84.3094 226.49C84.6383 226.435 84.9457 226.321 85.2337 226.148C85.354 226.373 85.4748 226.599 85.5945 226.825C86.2702 226.909 86.3225 227.75 87.1536 226.83C87.3995 228 88.1059 227.391 88.8523 227.708C89.5329 227.998 89.6413 228.462 90.2696 228.785C90.6827 229.118 91.1254 229.162 91.5989 228.918C92.0492 229.249 92.5065 229.572 92.9703 229.884C93.8251 230.364 94.8325 230.658 95.7331 231.036C96.3322 231.282 96.9276 231.538 97.5181 231.802C97.5359 232.511 97.8557 232.761 98.477 232.553C99.0384 233.02 99.1964 233.001 99.7411 233.796C100.975 235.598 102.07 236.997 103.628 238.607C110.402 245.608 112.483 255.504 109.922 264.741ZM112.001 234.974C108.942 230.904 104.614 226.243 100.724 223.672C98.752 222.369 95.9844 220.029 93.5732 219.34C93.0016 219.176 92.41 219.166 91.8481 218.994C91.4139 218.862 91.1777 218.419 90.6827 218.339C90.3364 218.283 90.2981 219.054 89.9304 218.983C89.1613 218.834 88.6738 218.075 88.1307 217.601C86.9643 219.599 86.3311 216.239 84.6184 218.498C82.5799 215.321 77.791 216.016 74.5358 216.176C73.5705 216.223 73.117 216.564 72.2611 216.817C71.4646 217.053 71.3859 216.992 70.516 216.986C68.3497 216.969 66.4266 217.24 64.4242 218.185C61.0601 219.773 57.9722 222.248 54.7769 224.162C51.2057 226.301 47.9867 229.024 45.2547 232.153C35.3782 243.466 32.7373 259.978 40.6125 273.093C53.1213 293.923 85.3874 296.149 103.671 282.016C117.796 271.096 123.172 249.84 112.001 234.974Z" fill="black"/>
</g>
<path fill-rule="evenodd" clip-rule="evenodd" d="M444.273 44.5886C454.592 51.9103 466.429 56.9121 477.212 63.506C479.912 65.1564 488.321 68.5832 488.24 71.6446C488.192 73.4346 485.665 75.6791 484.558 76.9196C482.663 79.0447 480.879 81.1921 479.13 83.4402C471.122 93.7349 463.581 104.127 454.902 113.904C453.596 115.375 449.659 122.398 448.389 118.91C447.813 117.328 448.287 115.551 446.786 114.077C446.013 113.317 443.028 112.899 443.897 111.27C444.477 111.53 445.057 111.791 445.638 112.051C445.187 110.749 445.22 109.323 444.545 108.093C444.125 107.328 443.305 106.967 443.021 106.106C442.627 104.916 443.294 103.534 443.183 102.308C443.072 101.085 442.438 99.9297 442.059 98.7762C439.814 91.9385 439.008 85.0454 437.858 77.9905C436.721 71.0096 434.949 64.2474 434.253 57.1889C433.518 49.7334 432.618 42.2931 431.416 34.8973C433.561 35.1979 435.209 37.5258 436.726 38.8419C439.111 40.9101 441.7 42.7634 444.273 44.5886ZM436.183 116.768C435.69 116.382 435.305 115.907 435.027 115.345C440.085 112.842 437.033 117.112 436.183 116.768ZM433.107 111.43C430.903 112.037 429.319 112.16 427.619 111.254C427.457 111.169 427.643 110.506 427.352 110.37C427.098 110.252 426.71 110.398 426.493 110.288C425.753 109.912 424.457 110.736 424.331 109.296C427.144 108.436 429.911 106.849 432.882 106.581C437.01 106.21 436.819 110.408 433.107 111.43ZM423.448 103.131C420.44 103.834 417.962 105.475 414.766 105.046C411.765 104.645 409.158 103.091 406.792 101.3C412.712 99.6262 418.921 99.3242 424.836 97.7046C426.762 97.1775 429.293 95.7874 431.368 96.3476C433.674 96.9704 433.82 99.1278 434.511 101.091C430.82 101.754 427.102 102.278 423.448 103.131ZM404.634 94.8007C401.744 95.4904 398.79 96.9984 396.374 94.3958C395.983 93.9758 395.642 94.3951 395.688 93.1013C395.737 91.7371 396.976 90.8583 398.043 90.3779C400.55 89.2488 404.064 89.9788 406.726 89.8126C410.973 89.5487 415.296 88.667 419.497 87.9881C422.406 87.5185 425.411 86.4758 428.383 86.6814C430.679 86.8404 433.448 88.7943 430.103 90.2197C427.056 91.5185 422.489 91.3193 419.188 91.8816C414.31 92.713 409.449 93.6515 404.634 94.8007ZM401.811 81.2202C401.998 81.4108 402.185 81.6013 402.373 81.7919C402.342 81.7847 403.481 80.8635 403.782 80.8369C405.247 80.7096 406.721 80.8103 408.189 80.7276C411.57 80.537 414.977 79.9487 418.298 79.3008C421.003 78.7729 423.758 77.8632 426.542 78.0911C428.953 78.2882 429.206 78.7815 429.364 81.1051C423.211 81.1051 416.873 80.9757 410.826 82.2766C406.889 83.1231 402.55 85.6444 400.578 81.0994C400.989 81.1396 401.4 81.1799 401.811 81.2202ZM405.658 71.3829C407.183 72.5436 411.343 70.6134 413.172 70.4206C415.157 70.2106 417.026 69.9927 418.95 69.4987C420.656 69.06 426.302 66.8695 427.611 68.9644C429.617 72.1739 421.492 72.7629 420.204 72.9219C414.802 73.5885 409.197 74.1797 403.941 75.595C404.513 74.1912 405.085 72.7874 405.658 71.3829ZM413.068 60.4812C413.462 61.9648 425.679 56.4978 425.902 60.4711C426.073 63.5196 413.814 65.0385 411.611 64.771C412.127 63.3672 413.5 62.1101 413.068 60.4812ZM417.17 51.1559C417.43 48.1635 417.831 48.1808 420.234 47.8989C422.066 47.6839 424.585 46.6109 424.108 49.873C423.7 52.6662 416.908 54.1757 417.17 51.1559ZM421.536 40.8598C422.114 39.2532 423.415 41.4157 423.443 42.2327C423.516 44.4067 421.865 43.9363 420.277 43.9363C420.719 42.9209 421.14 41.8939 421.536 40.8598ZM441.643 28.8003C441.319 28.4105 439.501 28.2617 438.983 28.0725C437.71 27.6065 437.891 26.6134 436.262 27.5928C436.181 27.5109 436.335 26.7745 436.247 26.7407C436.202 26.7234 435.061 26.2933 434.69 26.056C433.795 25.4836 432.989 24.9233 432.167 24.2049C431.293 23.4419 430.417 22.3344 429.419 21.7267C428.997 21.4707 428.653 21.1075 428.146 21.0291C426.829 20.8263 427.206 21.7425 426.055 21.9245C425.346 22.0367 424.829 21.2096 423.902 21.5663C423.101 21.8741 422.636 22.9967 422.279 23.6648C420.98 26.0963 419.979 28.7133 418.708 31.1706C412.21 43.7364 404.823 55.8254 398.529 68.5084C395.497 74.6183 392.333 80.7707 390.199 87.264C388.661 91.9471 385.186 98.7884 388.175 103.468C390.349 106.87 394.701 108.34 398.174 109.983C403.399 112.457 408.215 115.691 413.498 118.089C419.797 120.949 425.914 123.941 432.054 127.135C434.672 128.497 437.035 130.459 439.645 131.749C441.241 132.538 443.707 131.191 444.226 133C446.227 130.579 449.466 132.193 451.781 130.489C453.142 129.486 454.137 127.511 455.272 126.277C456.976 124.426 458.825 122.708 460.563 120.889C467.461 113.666 473.831 106.142 480.107 98.3828C486.101 90.9734 493.105 83.9731 498.168 75.8625C500.179 72.6428 500.543 69.2664 499.216 65.7095C498.247 63.1148 495.913 59.1968 492.579 60.9149C493.843 58.8178 488.966 56.5784 487.487 56.1684C487.464 56.1627 487.173 57.7736 486.76 57.7333C486.907 57.7477 485.52 54.1642 484.911 53.7046C483.103 52.3375 480.902 50.7424 478.929 49.6169C477.119 48.585 475.209 48.0736 473.456 46.9187C471.33 45.5192 469.379 43.8594 467.246 42.4693C465.186 41.1273 462.89 39.5409 460.613 38.6182C458.639 37.8178 456.866 37.661 455.09 36.3493C452.893 34.7261 450.976 33.6251 448.442 32.5068C446.25 31.5396 443.211 30.6946 441.643 28.8003Z" fill="black"/>
<path fill-rule="evenodd" clip-rule="evenodd" d="M278.011 7.21321C275.288 6.21721 271.919 4.27221 268.892 4.93521C265.675 5.63921 264.38 8.86121 262.041 10.7982C255.682 16.0652 251.978 8.21521 248.484 3.91321C245.184 -0.148794 241.158 -1.13479 236.502 1.36121C234.647 2.35621 226.832 6.91521 228.195 9.83621C229.175 11.9382 233.036 10.0512 234.353 9.59221C237.212 8.59721 239.867 7.72621 242.791 9.17721C248.276 11.8972 249.699 19.3562 256.335 20.5192C263.197 21.7222 263.422 15.1922 268.319 12.7342C271.602 11.0872 273.889 14.0032 277.056 13.4222C280.074 12.8692 281.47 8.47721 278.011 7.21321Z" fill="black"/>
<path fill-rule="evenodd" clip-rule="evenodd" d="M222.612 33.5303C225.039 34.0573 226.623 29.3503 228.142 28.1563C230.662 26.1773 235.031 25.7783 237.597 27.7703C242.608 31.6583 240.881 40.0523 248.016 42.2403C254.393 44.1963 257.397 35.7973 262.765 33.7063C265.886 32.4903 269.312 31.6943 268.094 27.3313C267.253 24.3143 264.775 23.5393 262.081 24.6983C257.451 26.6883 255.879 34.7953 250.39 34.9403C244.711 35.0903 244.095 26.9033 241.657 23.3373C237.94 17.9023 230.299 16.5893 225.957 21.7863C224.646 23.3543 217.99 32.5293 222.612 33.5303Z" fill="black"/>
<defs>
<clipPath id="clip0_40_2">
<rect width="533.333" height="400" fill="white" transform="translate(0 52)"/>
</clipPath>
</defs>
</svg>
